<svg width="48" height="48" viewBox="0 0 48 48" fill="none" xmlns="http://www.w3.org/2000/svg">
<g id="Books">
<g id="Shape" filter="url(#filter0_i_2843_3021)">
<path d="M24.8584 16.6135H43.4434C44.5606 16.6135 45.4663 17.5192 45.4663 18.6364V42H24.8584V16.6135Z" fill="url(#paint0_linear_2843_3021)"/>
<path d="M24.8584 16.6135H43.4434C44.5606 16.6135 45.4663 17.5192 45.4663 18.6364V42H24.8584V16.6135Z" fill="url(#paint1_linear_2843_3021)"/>
<path d="M24.8584 16.6135H43.4434C44.5606 16.6135 45.4663 17.5192 45.4663 18.6364V42H24.8584V16.6135Z" fill="url(#paint2_radial_2843_3021)"/>
</g>
<g id="Shape_2">
<path d="M23.7207 41.3936H45.4664V43.9221H44.9607L44.455 44.4278H23.7207V41.3936Z" fill="url(#paint3_linear_2843_3021)"/>
<path d="M23.7207 41.3936H45.4664V43.9221H44.9607L44.455 44.4278H23.7207V41.3936Z" fill="url(#paint4_linear_2843_3021)"/>
</g>
<g id="Shape_3">
<path d="M24.732 16.6135C23.8941 16.6135 23.2148 17.2928 23.2148 18.1307V42.9107H24.2263C24.2263 42.3521 24.6791 41.8992 25.2377 41.8992H26.2491V16.6135H24.732Z" fill="url(#paint5_linear_2843_3021)"/>
<path d="M24.732 16.6135C23.8941 16.6135 23.2148 17.2928 23.2148 18.1307V42.9107H24.2263C24.2263 42.3521 24.6791 41.8992 25.2377 41.8992H26.2491V16.6135H24.732Z" fill="url(#paint6_radial_2843_3021)"/>
</g>
<g id="Shape_4" filter="url(#filter1_i_2843_3021)">
<path d="M24.732 40.8877C23.8941 40.8877 23.2148 41.5669 23.2148 42.4048V43.4163C23.2148 44.2542 23.8941 44.9334 24.732 44.9334H44.3615C45.022 44.9334 45.4663 44.5951 45.4663 43.922H25.2377C24.6791 43.922 24.2263 43.4691 24.2263 42.9106C24.2263 42.352 24.6791 41.8991 25.2377 41.8991H45.4663V40.8877H24.732Z" fill="url(#paint7_linear_2843_3021)"/>
</g>
<g id="Shape_5">
<path d="M15.6553 10.5544H32.8496C33.9668 10.5544 34.8724 11.4601 34.8724 12.5773V34.8287H15.6553V10.5544Z" fill="url(#paint8_linear_2843_3021)"/>
<path d="M15.6553 10.5544H32.8496C33.9668 10.5544 34.8724 11.4601 34.8724 12.5773V34.8287H15.6553V10.5544Z" fill="url(#paint9_linear_2843_3021)"/>
<path d="M15.6553 10.5544H32.8496C33.9668 10.5544 34.8724 11.4601 34.8724 12.5773V34.8287H15.6553V10.5544Z" fill="url(#paint10_radial_2843_3021)"/>
</g>
<g id="Shape_6">
<path d="M13.127 35.3345H34.8727V37.863H34.367L33.8612 38.3688H13.127V35.3345Z" fill="url(#paint11_linear_2843_3021)"/>
<path d="M13.127 35.3345H34.8727V37.863H34.367L33.8612 38.3688H13.127V35.3345Z" fill="url(#paint12_linear_2843_3021)"/>
</g>
<g id="Shape_7">
<path d="M14.1382 10.5544C13.3003 10.5544 12.6211 11.2337 12.6211 12.0716V36.8516H13.6325C13.6325 36.293 14.0854 35.8402 14.644 35.8402H15.6554V10.5544H14.1382Z" fill="url(#paint13_linear_2843_3021)"/>
<path d="M14.1382 10.5544C13.3003 10.5544 12.6211 11.2337 12.6211 12.0716V36.8516H13.6325C13.6325 36.293 14.0854 35.8402 14.644 35.8402H15.6554V10.5544H14.1382Z" fill="url(#paint14_radial_2843_3021)"/>
<path d="M14.1382 10.5544C13.3003 10.5544 12.6211 11.2337 12.6211 12.0716V36.8516H13.6325C13.6325 36.293 14.0854 35.8402 14.644 35.8402H15.6554V10.5544H14.1382Z" fill="url(#paint15_radial_2843_3021)"/>
</g>
<g id="Shape_8" filter="url(#filter2_i_2843_3021)">
<path d="M14.1382 34.8286C13.3003 34.8286 12.6211 35.5079 12.6211 36.3458V37.3572C12.6211 38.1951 13.3003 38.8743 14.1382 38.8743H33.7677C34.4283 38.8743 34.8725 38.536 34.8725 37.8629H14.644C14.0854 37.8629 13.6325 37.4101 13.6325 36.8515C13.6325 36.2929 14.0854 35.84 14.644 35.84H34.8725V34.8286H14.1382Z" fill="url(#paint16_linear_2843_3021)"/>
</g>
<g id="Shape_9" filter="url(#filter3_i_2843_3021)">
<path d="M4.92285 6H23.5029C24.6198 6 25.5253 6.90542 25.5253 8.02232V30.2679H4.92285V6Z" fill="url(#paint17_linear_2843_3021)"/>
<path d="M4.92285 6H23.5029C24.6198 6 25.5253 6.90542 25.5253 8.02232V30.2679H4.92285V6Z" fill="url(#paint18_linear_2843_3021)"/>
</g>
<g id="Shape_10">
<path d="M3.78516 30.7734H25.5251V33.3013H25.0195L24.514 33.8069H3.78516V30.7734Z" fill="url(#paint19_linear_2843_3021)"/>
<path d="M3.78516 30.7734H25.5251V33.3013H25.0195L24.514 33.8069H3.78516V30.7734Z" fill="url(#paint20_linear_2843_3021)"/>
</g>
<path id="Shape_11" d="M4.79701 6C3.95934 6 3.28027 6.67907 3.28027 7.51674V32.2902H4.29143C4.29143 31.7317 4.74415 31.279 5.30259 31.279H6.31376V6H4.79701Z" fill="url(#paint21_linear_2843_3021)"/>
<g id="Shape_12" filter="url(#filter4_i_2843_3021)">
<path d="M4.79701 30.2678C3.95934 30.2678 3.28027 30.9469 3.28027 31.7846V32.7957C3.28027 33.6334 3.95934 34.3125 4.79701 34.3125H24.4213C25.0817 34.3125 25.5258 33.9743 25.5258 33.3013H5.30259C4.74415 33.3013 4.29143 32.8486 4.29143 32.2901C4.29143 31.7317 4.74415 31.279 5.30259 31.279H25.5258V30.2678H4.79701Z" fill="url(#paint22_linear_2843_3021)"/>
</g>
</g>
<defs>
<filter id="filter0_i_2843_3021" x="24.8584" y="16.6135" width="20.6074" height="25.4865" filterUnits="userSpaceOnUse" color-interpolation-filters="sRGB">
<feFlood flood-opacity="0" result="BackgroundImageFix"/>
<feBlend mode="normal" in="SourceGraphic" in2="BackgroundImageFix" result="shape"/>
<feColorMatrix in="SourceAlpha" type="matrix" values="0 0 0 0 0 0 0 0 0 0 0 0 0 0 0 0 0 0 127 0" result="hardAlpha"/>
<feOffset dy="0.1"/>
<feGaussianBlur stdDeviation="0.25"/>
<feComposite in2="hardAlpha" operator="arithmetic" k2="-1" k3="1"/>
<feColorMatrix type="matrix" values="0 0 0 0 0.32549 0 0 0 0 0.807843 0 0 0 0 0.933333 0 0 0 1 0"/>
<feBlend mode="normal" in2="shape" result="effect1_innerShadow_2843_3021"/>
</filter>
<filter id="filter1_i_2843_3021" x="23.2148" y="40.8877" width="22.251" height="4.14565" filterUnits="userSpaceOnUse" color-interpolation-filters="sRGB">
<feFlood flood-opacity="0" result="BackgroundImageFix"/>
<feBlend mode="normal" in="SourceGraphic" in2="BackgroundImageFix" result="shape"/>
<feColorMatrix in="SourceAlpha" type="matrix" values="0 0 0 0 0 0 0 0 0 0 0 0 0 0 0 0 0 0 127 0" result="hardAlpha"/>
<feOffset dy="0.1"/>
<feGaussianBlur stdDeviation="0.15"/>
<feComposite in2="hardAlpha" operator="arithmetic" k2="-1" k3="1"/>
<feColorMatrix type="matrix" values="0 0 0 0 0.168627 0 0 0 0 0.388235 0 0 0 0 0.74902 0 0 0 1 0"/>
<feBlend mode="normal" in2="shape" result="effect1_innerShadow_2843_3021"/>
</filter>
<filter id="filter2_i_2843_3021" x="12.6211" y="34.8286" width="22.251" height="4.14565" filterUnits="userSpaceOnUse" color-interpolation-filters="sRGB">
<feFlood flood-opacity="0" result="BackgroundImageFix"/>
<feBlend mode="normal" in="SourceGraphic" in2="BackgroundImageFix" result="shape"/>
<feColorMatrix in="SourceAlpha" type="matrix" values="0 0 0 0 0 0 0 0 0 0 0 0 0 0 0 0 0 0 127 0" result="hardAlpha"/>
<feOffset dy="0.1"/>
<feGaussianBlur stdDeviation="0.15"/>
<feComposite in2="hardAlpha" operator="arithmetic" k2="-1" k3="1"/>
<feColorMatrix type="matrix" values="0 0 0 0 0.694118 0 0 0 0 0.192157 0 0 0 0 0.360784 0 0 0 1 0"/>
<feBlend mode="normal" in2="shape" result="effect1_innerShadow_2843_3021"/>
</filter>
<filter id="filter3_i_2843_3021" x="4.92285" y="6" width="20.6025" height="24.3678" filterUnits="userSpaceOnUse" color-interpolation-filters="sRGB">
<feFlood flood-opacity="0" result="BackgroundImageFix"/>
<feBlend mode="normal" in="SourceGraphic" in2="BackgroundImageFix" result="shape"/>
<feColorMatrix in="SourceAlpha" type="matrix" values="0 0 0 0 0 0 0 0 0 0 0 0 0 0 0 0 0 0 127 0" result="hardAlpha"/>
<feOffset dy="0.1"/>
<feGaussianBlur stdDeviation="0.25"/>
<feComposite in2="hardAlpha" operator="arithmetic" k2="-1" k3="1"/>
<feColorMatrix type="matrix" values="0 0 0 0 0.623529 0 0 0 0 0.858824 0 0 0 0 0.290196 0 0 0 1 0"/>
<feBlend mode="normal" in2="shape" result="effect1_innerShadow_2843_3021"/>
</filter>
<filter id="filter4_i_2843_3021" x="3.28027" y="30.2678" width="22.2451" height="4.14468" filterUnits="userSpaceOnUse" color-interpolation-filters="sRGB">
<feFlood flood-opacity="0" result="BackgroundImageFix"/>
<feBlend mode="normal" in="SourceGraphic" in2="BackgroundImageFix" result="shape"/>
<feColorMatrix in="SourceAlpha" type="matrix" values="0 0 0 0 0 0 0 0 0 0 0 0 0 0 0 0 0 0 127 0" result="hardAlpha"/>
<feOffset dy="0.1"/>
<feGaussianBlur stdDeviation="0.15"/>
<feComposite in2="hardAlpha" operator="arithmetic" k2="-1" k3="1"/>
<feColorMatrix type="matrix" values="0 0 0 0 0.113725 0 0 0 0 0.435294 0 0 0 0 0.439216 0 0 0 1 0"/>
<feBlend mode="normal" in2="shape" result="effect1_innerShadow_2843_3021"/>
</filter>
<linearGradient id="paint0_linear_2843_3021" x1="35.8577" y1="16.6135" x2="35.8577" y2="40.8878" gradientUnits="userSpaceOnUse">
<stop stop-color="#56D1F3"/>
<stop offset="1" stop-color="#39ADF1"/>
</linearGradient>
<linearGradient id="paint1_linear_2843_3021" x1="45.6243" y1="20.1851" x2="43.633" y2="20.4696" gradientUnits="userSpaceOnUse">
<stop offset="0.0135725" stop-color="#7FECFF"/>
<stop offset="1" stop-color="#60DEFF" stop-opacity="0"/>
</linearGradient>
<radialGradient id="paint2_radial_2843_3021" cx="0" cy="0" r="1" gradientUnits="userSpaceOnUse" gradientTransform="translate(26.1211 40.8878) scale(9.04124 7.67563)">
<stop stop-color="#2E7CD5"/>
<stop offset="1" stop-color="#2E7CD5" stop-opacity="0"/>
</radialGradient>
<linearGradient id="paint3_linear_2843_3021" x1="24.9562" y1="43.3309" x2="45.2834" y2="43.3309" gradientUnits="userSpaceOnUse">
<stop stop-color="#D5BCEB"/>
<stop offset="1" stop-color="#DCCCED"/>
<stop offset="1" stop-color="#E3D3F2"/>
</linearGradient>
<linearGradient id="paint4_linear_2843_3021" x1="34.5936" y1="41.6343" x2="34.5936" y2="43.0699" gradientUnits="userSpaceOnUse">
<stop stop-color="#9F84AE"/>
<stop offset="1" stop-color="#C5B1D6" stop-opacity="0"/>
</linearGradient>
<linearGradient id="paint5_linear_2843_3021" x1="23.4225" y1="31.5196" x2="25.8066" y2="31.5321" gradientUnits="userSpaceOnUse">
<stop stop-color="#44A3D2"/>
<stop offset="1" stop-color="#3C8FCC"/>
</linearGradient>
<radialGradient id="paint6_radial_2843_3021" cx="0" cy="0" r="1" gradientUnits="userSpaceOnUse" gradientTransform="translate(26.2491 38.4375) rotate(90) scale(6.32812 3.69054)">
<stop stop-color="#3163AE"/>
<stop offset="1" stop-color="#3163AE" stop-opacity="0"/>
</radialGradient>
<linearGradient id="paint7_linear_2843_3021" x1="24.6624" y1="43.8855" x2="45.4663" y2="43.8528" gradientUnits="userSpaceOnUse">
<stop stop-color="#3769C5"/>
<stop offset="1" stop-color="#3666C3"/>
</linearGradient>
<linearGradient id="paint8_linear_2843_3021" x1="25.2638" y1="10.5544" x2="25.2638" y2="34.8287" gradientUnits="userSpaceOnUse">
<stop stop-color="#E13074"/>
<stop offset="1" stop-color="#E0334C"/>
</linearGradient>
<linearGradient id="paint9_linear_2843_3021" x1="36.5818" y1="13.9755" x2="33.841" y2="14.0734" gradientUnits="userSpaceOnUse">
<stop offset="0.408703" stop-color="#F76594"/>
<stop offset="1" stop-color="#FA6295" stop-opacity="0"/>
</linearGradient>
<radialGradient id="paint10_radial_2843_3021" cx="0" cy="0" r="1" gradientUnits="userSpaceOnUse" gradientTransform="translate(16.5116 34.2188) scale(10.125 8.1933)">
<stop stop-color="#B21940"/>
<stop offset="1" stop-color="#B21940" stop-opacity="0"/>
</radialGradient>
<linearGradient id="paint11_linear_2843_3021" x1="14.3624" y1="37.2718" x2="34.6896" y2="37.2718" gradientUnits="userSpaceOnUse">
<stop stop-color="#D5BCEB"/>
<stop offset="1" stop-color="#DCCCED"/>
<stop offset="1" stop-color="#E3D3F2"/>
</linearGradient>
<linearGradient id="paint12_linear_2843_3021" x1="23.9998" y1="35.5752" x2="23.9998" y2="37.0108" gradientUnits="userSpaceOnUse">
<stop stop-color="#9F84AE"/>
<stop offset="1" stop-color="#C5B1D6" stop-opacity="0"/>
</linearGradient>
<linearGradient id="paint13_linear_2843_3021" x1="12.8288" y1="25.4605" x2="15.6554" y2="25.4605" gradientUnits="userSpaceOnUse">
<stop stop-color="#9A3E4F"/>
<stop offset="1" stop-color="#AA2C4D"/>
</linearGradient>
<radialGradient id="paint14_radial_2843_3021" cx="0" cy="0" r="1" gradientUnits="userSpaceOnUse" gradientTransform="translate(13.0245 35.5099) rotate(-90) scale(6.72135 1.18434)">
<stop stop-color="#9B3F51"/>
<stop offset="1" stop-color="#9B3F51" stop-opacity="0"/>
</radialGradient>
<radialGradient id="paint15_radial_2843_3021" cx="0" cy="0" r="1" gradientUnits="userSpaceOnUse" gradientTransform="translate(15.6554 33.5157) rotate(90) scale(4.92188 2.79991)">
<stop offset="0.266667" stop-color="#8F163A"/>
<stop offset="1" stop-color="#8F163A" stop-opacity="0"/>
</radialGradient>
<linearGradient id="paint16_linear_2843_3021" x1="14.0686" y1="37.8264" x2="34.8725" y2="37.7937" gradientUnits="userSpaceOnUse">
<stop stop-color="#AB1F5C"/>
<stop offset="1" stop-color="#A51E5A"/>
</linearGradient>
<linearGradient id="paint17_linear_2843_3021" x1="15.9192" y1="6" x2="15.9192" y2="30.2679" gradientUnits="userSpaceOnUse">
<stop stop-color="#A6E051"/>
<stop offset="1" stop-color="#74D891"/>
</linearGradient>
<linearGradient id="paint18_linear_2843_3021" x1="25.6832" y1="9.57066" x2="23.6925" y2="9.85505" gradientUnits="userSpaceOnUse">
<stop offset="0.0135725" stop-color="#C0FA7C"/>
<stop offset="1" stop-color="#B0ED5B" stop-opacity="0"/>
</linearGradient>
<linearGradient id="paint19_linear_2843_3021" x1="5.02029" y1="32.7103" x2="25.3421" y2="32.7103" gradientUnits="userSpaceOnUse">
<stop stop-color="#D5BCEB"/>
<stop offset="1" stop-color="#DCCCED"/>
<stop offset="1" stop-color="#E3D3F2"/>
</linearGradient>
<linearGradient id="paint20_linear_2843_3021" x1="14.6551" y1="31.0141" x2="14.6551" y2="32.4493" gradientUnits="userSpaceOnUse">
<stop stop-color="#9F84AE"/>
<stop offset="1" stop-color="#C5B1D6" stop-opacity="0"/>
</linearGradient>
<linearGradient id="paint21_linear_2843_3021" x1="3.48788" y1="20.9021" x2="5.87137" y2="20.9146" gradientUnits="userSpaceOnUse">
<stop stop-color="#63B33B"/>
<stop offset="1" stop-color="#429B5B"/>
</linearGradient>
<linearGradient id="paint22_linear_2843_3021" x1="4.72742" y1="33.2648" x2="25.5258" y2="33.2322" gradientUnits="userSpaceOnUse">
<stop stop-color="#2E7671"/>
<stop offset="1" stop-color="#2E7172"/>
</linearGradient>
</defs>
</svg>
