<svg width="48" height="48" viewBox="0 0 48 48" fill="none" xmlns="http://www.w3.org/2000/svg">
<g id="Dress">
<g id="Rectangle 27">
<path d="M16.3625 3.74063C16.3625 3.40925 16.6312 3.14062 16.9625 3.14062H17.5672C17.8986 3.14062 18.1672 3.40925 18.1672 3.74063V6.92578H16.3625V3.74063Z" fill="#2D83CB"/>
<path d="M16.3625 3.74063C16.3625 3.40925 16.6312 3.14062 16.9625 3.14062H17.5672C17.8986 3.14062 18.1672 3.40925 18.1672 3.74063V6.92578H16.3625V3.74063Z" fill="url(#paint0_linear_2316_55761)"/>
<path d="M16.3625 3.74063C16.3625 3.40925 16.6312 3.14062 16.9625 3.14062H17.5672C17.8986 3.14062 18.1672 3.40925 18.1672 3.74063V6.92578H16.3625V3.74063Z" fill="url(#paint1_radial_2316_55761)"/>
</g>
<g id="Rectangle 28">
<path d="M29.9797 3.74063C29.9797 3.40925 30.2484 3.14062 30.5797 3.14062H31.1844C31.5158 3.14062 31.7844 3.40925 31.7844 3.74063V6.92578H29.9797V3.74063Z" fill="#2D83CB"/>
<path d="M29.9797 3.74063C29.9797 3.40925 30.2484 3.14062 30.5797 3.14062H31.1844C31.5158 3.14062 31.7844 3.40925 31.7844 3.74063V6.92578H29.9797V3.74063Z" fill="url(#paint2_linear_2316_55761)"/>
<path d="M29.9797 3.74063C29.9797 3.40925 30.2484 3.14062 30.5797 3.14062H31.1844C31.5158 3.14062 31.7844 3.40925 31.7844 3.74063V6.92578H29.9797V3.74063Z" fill="url(#paint3_radial_2316_55761)"/>
</g>
<g id="Union" filter="url(#filter0_i_2316_55761)">
<path d="M15.0087 8.45085L16.8849 16.3763C16.9088 16.4772 17.0036 16.5415 17.1073 16.5423H31.0233C31.127 16.5415 31.2167 16.4701 31.2406 16.3692L33.1382 8.45085C33.3949 7.36737 32.5731 6.32812 31.4596 6.32812H28.6653C27.0034 6.32812 25.4768 7.24409 24.6948 8.71048L24.1396 9.75141C24.1114 9.80435 24.0355 9.80435 24.0072 9.75141L23.4521 8.71048C22.67 7.24409 21.1434 6.32812 19.4815 6.32812H16.6872C15.5737 6.32812 14.752 7.36737 15.0087 8.45085Z" fill="url(#paint4_linear_2316_55761)"/>
<path d="M15.0087 8.45085L16.8849 16.3763C16.9088 16.4772 17.0036 16.5415 17.1073 16.5423H31.0233C31.127 16.5415 31.2167 16.4701 31.2406 16.3692L33.1382 8.45085C33.3949 7.36737 32.5731 6.32812 31.4596 6.32812H28.6653C27.0034 6.32812 25.4768 7.24409 24.6948 8.71048L24.1396 9.75141C24.1114 9.80435 24.0355 9.80435 24.0072 9.75141L23.4521 8.71048C22.67 7.24409 21.1434 6.32812 19.4815 6.32812H16.6872C15.5737 6.32812 14.752 7.36737 15.0087 8.45085Z" fill="url(#paint5_linear_2316_55761)"/>
<path d="M15.0087 8.45085L16.8849 16.3763C16.9088 16.4772 17.0036 16.5415 17.1073 16.5423H31.0233C31.127 16.5415 31.2167 16.4701 31.2406 16.3692L33.1382 8.45085C33.3949 7.36737 32.5731 6.32812 31.4596 6.32812H28.6653C27.0034 6.32812 25.4768 7.24409 24.6948 8.71048L24.1396 9.75141C24.1114 9.80435 24.0355 9.80435 24.0072 9.75141L23.4521 8.71048C22.67 7.24409 21.1434 6.32812 19.4815 6.32812H16.6872C15.5737 6.32812 14.752 7.36737 15.0087 8.45085Z" fill="url(#paint6_linear_2316_55761)"/>
</g>
<g id="Rectangle 26">
<rect x="16.8962" y="16.5469" width="14.3555" height="1.5" rx="0.1" fill="url(#paint7_linear_2316_55761)"/>
<rect x="16.8962" y="16.5469" width="14.3555" height="1.5" rx="0.1" fill="url(#paint8_radial_2316_55761)"/>
<rect x="16.8962" y="16.5469" width="14.3555" height="1.5" rx="0.1" fill="url(#paint9_linear_2316_55761)"/>
<rect x="16.8962" y="16.5469" width="14.3555" height="1.5" rx="0.1" fill="url(#paint10_linear_2316_55761)"/>
</g>
<g id="Union_2" filter="url(#filter1_iii_2316_55761)">
<path d="M17.0385 18.1303L6.60064 39.0469C5.93972 40.125 5.25525 42.2578 6.81303 43.8164C8.59411 45.5984 10.672 44.8207 11.7577 43.8164C12.0089 43.584 12.2244 43.3904 12.406 43.23C12.7822 42.898 13.4284 42.9972 13.7579 43.3751C14.4179 44.1319 15.4336 44.9535 16.5608 44.9535C18.1218 44.9535 18.9381 44.1277 19.3178 43.7435L19.3223 43.739L19.74 43.2993C20.119 42.9003 20.6544 42.8902 21.0461 43.2769L21.8122 44.0332C22.2252 44.475 22.9806 44.918 24.0899 44.918C25.1993 44.918 25.9476 44.475 26.3605 44.0332L27.1267 43.2769C27.5184 42.8902 28.0609 42.9003 28.4399 43.2993L28.8576 43.739L28.8621 43.7435C29.2418 44.1277 30.0581 44.9535 31.6191 44.9535C32.7463 44.9535 33.762 44.1319 34.422 43.3751C34.7515 42.9972 35.3977 42.898 35.7739 43.23C35.9555 43.3904 36.171 43.584 36.4222 43.8164C37.5079 44.8207 39.5858 45.5984 41.3669 43.8164C42.9246 42.2578 42.2402 40.125 41.5793 39.0469L31.1414 18.1303C31.1159 18.0792 31.0635 18.0469 31.0061 18.0469H17.1738C17.1164 18.0469 17.064 18.0792 17.0385 18.1303Z" fill="url(#paint11_linear_2316_55761)"/>
</g>
<g id="Union_3" filter="url(#filter2_iii_2316_55761)">
<path d="M17.0385 18.1303L6.60064 39.0469C5.93972 40.125 5.25525 42.2578 6.81303 43.8164C8.59411 45.5984 10.672 44.8207 11.7577 43.8164C12.0089 43.584 12.2244 43.3904 12.406 43.23C12.7822 42.898 13.4284 42.9972 13.7579 43.3751C14.4179 44.1319 15.4336 44.9535 16.5608 44.9535C18.1218 44.9535 18.9381 44.1277 19.3178 43.7435L19.3223 43.739L19.74 43.2993C20.119 42.9003 20.6544 42.8902 21.0461 43.2769L21.8122 44.0332C22.2252 44.475 22.9806 44.918 24.0899 44.918C25.1993 44.918 25.9476 44.475 26.3605 44.0332L27.1267 43.2769C27.5184 42.8902 28.0609 42.9003 28.4399 43.2993L28.8576 43.739L28.8621 43.7435C29.2418 44.1277 30.0581 44.9535 31.6191 44.9535C32.7463 44.9535 33.762 44.1319 34.422 43.3751C34.7515 42.9972 35.3977 42.898 35.7739 43.23C35.9555 43.3904 36.171 43.584 36.4222 43.8164C37.5079 44.8207 39.5858 45.5984 41.3669 43.8164C42.9246 42.2578 42.2402 40.125 41.5793 39.0469L31.1414 18.1303C31.1159 18.0792 31.0635 18.0469 31.0061 18.0469H17.1738C17.1164 18.0469 17.064 18.0792 17.0385 18.1303Z" fill="url(#paint12_linear_2316_55761)"/>
</g>
<path id="Union_4" d="M17.0385 18.1303L6.60064 39.0469C5.93972 40.125 5.25525 42.2578 6.81303 43.8164C8.59411 45.5984 10.672 44.8207 11.7577 43.8164C12.0089 43.584 12.2244 43.3904 12.406 43.23C12.7822 42.898 13.4284 42.9972 13.7579 43.3751C14.4179 44.1319 15.4336 44.9535 16.5608 44.9535C18.1218 44.9535 18.9381 44.1277 19.3178 43.7435L19.3223 43.739L19.74 43.2993C20.119 42.9003 20.6544 42.8902 21.0461 43.2769L21.8122 44.0332C22.2252 44.475 22.9806 44.918 24.0899 44.918C25.1993 44.918 25.9476 44.475 26.3605 44.0332L27.1267 43.2769C27.5184 42.8902 28.0609 42.9003 28.4399 43.2993L28.8576 43.739L28.8621 43.7435C29.2418 44.1277 30.0581 44.9535 31.6191 44.9535C32.7463 44.9535 33.762 44.1319 34.422 43.3751C34.7515 42.9972 35.3977 42.898 35.7739 43.23C35.9555 43.3904 36.171 43.584 36.4222 43.8164C37.5079 44.8207 39.5858 45.5984 41.3669 43.8164C42.9246 42.2578 42.2402 40.125 41.5793 39.0469L31.1414 18.1303C31.1159 18.0792 31.0635 18.0469 31.0061 18.0469H17.1738C17.1164 18.0469 17.064 18.0792 17.0385 18.1303Z" fill="url(#paint13_linear_2316_55761)"/>
<g id="Vector 9" filter="url(#filter3_f_2316_55761)">
<path d="M20.6772 6.92578C21.2012 7.06894 22.3983 7.62427 22.9946 8.70035C23.591 9.77644 23.7976 10.1348 23.8263 10.1795" stroke="url(#paint14_linear_2316_55761)" stroke-width="0.25" stroke-linecap="round"/>
</g>
<g id="Vector 10" filter="url(#filter4_f_2316_55761)">
<path d="M25.8611 8.00391C26.1033 7.62891 26.8501 6.87891 27.9001 6.87891C28.9501 6.87891 30.4548 6.87891 31.0759 6.87891C31.3259 6.88672 31.9126 6.96797 32.2595 7.23047" stroke="url(#paint15_radial_2316_55761)" stroke-width="0.25" stroke-linecap="round"/>
</g>
</g>
<defs>
<filter id="filter0_i_2316_55761" x="14.9614" y="6.32812" width="18.2239" height="10.3642" filterUnits="userSpaceOnUse" color-interpolation-filters="sRGB">
<feFlood flood-opacity="0" result="BackgroundImageFix"/>
<feBlend mode="normal" in="SourceGraphic" in2="BackgroundImageFix" result="shape"/>
<feColorMatrix in="SourceAlpha" type="matrix" values="0 0 0 0 0 0 0 0 0 0 0 0 0 0 0 0 0 0 127 0" result="hardAlpha"/>
<feOffset dy="0.15"/>
<feGaussianBlur stdDeviation="0.125"/>
<feComposite in2="hardAlpha" operator="arithmetic" k2="-1" k3="1"/>
<feColorMatrix type="matrix" values="0 0 0 0 0.196078 0 0 0 0 0.427451 0 0 0 0 0.74902 0 0 0 1 0"/>
<feBlend mode="normal" in2="shape" result="effect1_innerShadow_2316_55761"/>
</filter>
<filter id="filter1_iii_2316_55761" x="5.36572" y="17.2969" width="36.9485" height="27.6566" filterUnits="userSpaceOnUse" color-interpolation-filters="sRGB">
<feFlood flood-opacity="0" result="BackgroundImageFix"/>
<feBlend mode="normal" in="SourceGraphic" in2="BackgroundImageFix" result="shape"/>
<feColorMatrix in="SourceAlpha" type="matrix" values="0 0 0 0 0 0 0 0 0 0 0 0 0 0 0 0 0 0 127 0" result="hardAlpha"/>
<feOffset dx="-0.25" dy="-0.25"/>
<feGaussianBlur stdDeviation="0.25"/>
<feComposite in2="hardAlpha" operator="arithmetic" k2="-1" k3="1"/>
<feColorMatrix type="matrix" values="0 0 0 0 0.356863 0 0 0 0 0.627451 0 0 0 0 0.917647 0 0 0 1 0"/>
<feBlend mode="normal" in2="shape" result="effect1_innerShadow_2316_55761"/>
<feColorMatrix in="SourceAlpha" type="matrix" values="0 0 0 0 0 0 0 0 0 0 0 0 0 0 0 0 0 0 127 0" result="hardAlpha"/>
<feOffset dx="-0.5" dy="-0.75"/>
<feGaussianBlur stdDeviation="0.375"/>
<feComposite in2="hardAlpha" operator="arithmetic" k2="-1" k3="1"/>
<feColorMatrix type="matrix" values="0 0 0 0 0.34902 0 0 0 0 0.596078 0 0 0 0 1 0 0 0 1 0"/>
<feBlend mode="normal" in2="effect1_innerShadow_2316_55761" result="effect2_innerShadow_2316_55761"/>
<feColorMatrix in="SourceAlpha" type="matrix" values="0 0 0 0 0 0 0 0 0 0 0 0 0 0 0 0 0 0 127 0" result="hardAlpha"/>
<feOffset dy="-0.5"/>
<feGaussianBlur stdDeviation="0.375"/>
<feComposite in2="hardAlpha" operator="arithmetic" k2="-1" k3="1"/>
<feColorMatrix type="matrix" values="0 0 0 0 0.290196 0 0 0 0 0.34902 0 0 0 0 1 0 0 0 1 0"/>
<feBlend mode="normal" in2="effect2_innerShadow_2316_55761" result="effect3_innerShadow_2316_55761"/>
</filter>
<filter id="filter2_iii_2316_55761" x="5.36572" y="17.2969" width="36.9485" height="27.6566" filterUnits="userSpaceOnUse" color-interpolation-filters="sRGB">
<feFlood flood-opacity="0" result="BackgroundImageFix"/>
<feBlend mode="normal" in="SourceGraphic" in2="BackgroundImageFix" result="shape"/>
<feColorMatrix in="SourceAlpha" type="matrix" values="0 0 0 0 0 0 0 0 0 0 0 0 0 0 0 0 0 0 127 0" result="hardAlpha"/>
<feOffset dx="-0.25" dy="-0.25"/>
<feGaussianBlur stdDeviation="0.25"/>
<feComposite in2="hardAlpha" operator="arithmetic" k2="-1" k3="1"/>
<feColorMatrix type="matrix" values="0 0 0 0 0.356863 0 0 0 0 0.627451 0 0 0 0 0.917647 0 0 0 1 0"/>
<feBlend mode="normal" in2="shape" result="effect1_innerShadow_2316_55761"/>
<feColorMatrix in="SourceAlpha" type="matrix" values="0 0 0 0 0 0 0 0 0 0 0 0 0 0 0 0 0 0 127 0" result="hardAlpha"/>
<feOffset dx="-0.5" dy="-0.75"/>
<feGaussianBlur stdDeviation="0.375"/>
<feComposite in2="hardAlpha" operator="arithmetic" k2="-1" k3="1"/>
<feColorMatrix type="matrix" values="0 0 0 0 0.34902 0 0 0 0 0.596078 0 0 0 0 1 0 0 0 1 0"/>
<feBlend mode="normal" in2="effect1_innerShadow_2316_55761" result="effect2_innerShadow_2316_55761"/>
<feColorMatrix in="SourceAlpha" type="matrix" values="0 0 0 0 0 0 0 0 0 0 0 0 0 0 0 0 0 0 127 0" result="hardAlpha"/>
<feOffset dy="-0.5"/>
<feGaussianBlur stdDeviation="0.375"/>
<feComposite in2="hardAlpha" operator="arithmetic" k2="-1" k3="1"/>
<feColorMatrix type="matrix" values="0 0 0 0 0.290196 0 0 0 0 0.34902 0 0 0 0 1 0 0 0 1 0"/>
<feBlend mode="normal" in2="effect2_innerShadow_2316_55761" result="effect3_innerShadow_2316_55761"/>
</filter>
<filter id="filter3_f_2316_55761" x="20.4022" y="6.65078" width="3.69917" height="3.80366" filterUnits="userSpaceOnUse" color-interpolation-filters="sRGB">
<feFlood flood-opacity="0" result="BackgroundImageFix"/>
<feBlend mode="normal" in="SourceGraphic" in2="BackgroundImageFix" result="shape"/>
<feGaussianBlur stdDeviation="0.075" result="effect1_foregroundBlur_2316_55761"/>
</filter>
<filter id="filter4_f_2316_55761" x="25.5861" y="6.60391" width="6.94844" height="1.675" filterUnits="userSpaceOnUse" color-interpolation-filters="sRGB">
<feFlood flood-opacity="0" result="BackgroundImageFix"/>
<feBlend mode="normal" in="SourceGraphic" in2="BackgroundImageFix" result="shape"/>
<feGaussianBlur stdDeviation="0.075" result="effect1_foregroundBlur_2316_55761"/>
</filter>
<linearGradient id="paint0_linear_2316_55761" x1="16.205" y1="6.5625" x2="17.2649" y2="6.5625" gradientUnits="userSpaceOnUse">
<stop stop-color="#2A5FA6"/>
<stop offset="1" stop-color="#2A5FA6" stop-opacity="0"/>
</linearGradient>
<radialGradient id="paint1_radial_2316_55761" cx="0" cy="0" r="1" gradientUnits="userSpaceOnUse" gradientTransform="translate(18.1034 6.76758) rotate(-89.1175) scale(4.14307 0.587486)">
<stop offset="0.165152" stop-color="#5D9CDB"/>
<stop offset="1" stop-color="#2E84CC" stop-opacity="0"/>
</radialGradient>
<linearGradient id="paint2_linear_2316_55761" x1="29.8222" y1="6.5625" x2="30.8821" y2="6.5625" gradientUnits="userSpaceOnUse">
<stop stop-color="#2A5FA6"/>
<stop offset="1" stop-color="#2A5FA6" stop-opacity="0"/>
</linearGradient>
<radialGradient id="paint3_radial_2316_55761" cx="0" cy="0" r="1" gradientUnits="userSpaceOnUse" gradientTransform="translate(31.7206 6.76758) rotate(-89.1175) scale(4.14307 0.587486)">
<stop offset="0.165152" stop-color="#5D9CDB"/>
<stop offset="1" stop-color="#2E84CC" stop-opacity="0"/>
</radialGradient>
<linearGradient id="paint4_linear_2316_55761" x1="18.7831" y1="15.8906" x2="28.1581" y2="15.8906" gradientUnits="userSpaceOnUse">
<stop stop-color="#2E71E2"/>
<stop offset="1" stop-color="#418FFB"/>
</linearGradient>
<linearGradient id="paint5_linear_2316_55761" x1="16.1581" y1="15.0937" x2="23.0956" y2="14.1094" gradientUnits="userSpaceOnUse">
<stop stop-color="#385BAA"/>
<stop offset="1" stop-color="#2A6DDD" stop-opacity="0"/>
</linearGradient>
<linearGradient id="paint6_linear_2316_55761" x1="31.7674" y1="14.8594" x2="28.9081" y2="14.5313" gradientUnits="userSpaceOnUse">
<stop stop-color="#3E8DED"/>
<stop offset="1" stop-color="#3F8CE3" stop-opacity="0"/>
</linearGradient>
<linearGradient id="paint7_linear_2316_55761" x1="18.2673" y1="18.0469" x2="28.4392" y2="18.0469" gradientUnits="userSpaceOnUse">
<stop stop-color="#3E2242"/>
<stop offset="1" stop-color="#642F67"/>
</linearGradient>
<radialGradient id="paint8_radial_2316_55761" cx="0" cy="0" r="1" gradientUnits="userSpaceOnUse" gradientTransform="translate(28.6736 16.5469) rotate(90) scale(0.492187 9.17578)">
<stop offset="0.238095" stop-color="#673C6A"/>
<stop offset="1" stop-color="#673C6A" stop-opacity="0"/>
</radialGradient>
<linearGradient id="paint9_linear_2316_55761" x1="24.074" y1="16.5469" x2="24.074" y2="16.6934" gradientUnits="userSpaceOnUse">
<stop stop-color="#331B3B"/>
<stop offset="1" stop-color="#331B3B" stop-opacity="0"/>
</linearGradient>
<linearGradient id="paint10_linear_2316_55761" x1="24.074" y1="18.1406" x2="24.074" y2="17.7773" gradientUnits="userSpaceOnUse">
<stop stop-color="#331B3B"/>
<stop offset="1" stop-color="#331B3B" stop-opacity="0"/>
</linearGradient>
<linearGradient id="paint11_linear_2316_55761" x1="34.4861" y1="28.6875" x2="22.2048" y2="32.1562" gradientUnits="userSpaceOnUse">
<stop stop-color="#59A4FE"/>
<stop offset="1" stop-color="#2B7EE5"/>
</linearGradient>
<linearGradient id="paint12_linear_2316_55761" x1="34.4861" y1="28.6875" x2="22.2048" y2="32.1562" gradientUnits="userSpaceOnUse">
<stop stop-color="#59A4FE"/>
<stop offset="1" stop-color="#2B7EE5"/>
</linearGradient>
<linearGradient id="paint13_linear_2316_55761" x1="9.54857" y1="30.375" x2="24.6423" y2="34.2188" gradientUnits="userSpaceOnUse">
<stop offset="0.144679" stop-color="#3E639C"/>
<stop offset="1" stop-color="#2979DA" stop-opacity="0"/>
</linearGradient>
<linearGradient id="paint14_linear_2316_55761" x1="23.6112" y1="10.0313" x2="20.8456" y2="7.35938" gradientUnits="userSpaceOnUse">
<stop stop-color="#5E93EB"/>
<stop offset="1" stop-color="#5E93EB" stop-opacity="0"/>
</linearGradient>
<radialGradient id="paint15_radial_2316_55761" cx="0" cy="0" r="1" gradientUnits="userSpaceOnUse" gradientTransform="translate(32.5642 7.28906) rotate(178.534) scale(5.95507 2.08851)">
<stop offset="0.195204" stop-color="#5FA0F4" stop-opacity="0"/>
<stop offset="0.754698" stop-color="#5FA0F4"/>
<stop offset="1" stop-color="#5FA0F4" stop-opacity="0"/>
</radialGradient>
</defs>
</svg>
