<svg width="48" height="48" viewBox="0 0 48 48" fill="none" xmlns="http://www.w3.org/2000/svg">
<g id="Hammer and wrench">
<g id="Rectangle 1277" filter="url(#filter0_i_2843_9057)">
<path d="M17.8408 11.9958L42.3828 36.5378C44.1028 38.2578 44.1028 41.0464 42.3828 42.7664C40.6629 44.4863 37.8743 44.4863 36.1543 42.7664L11.6123 18.2244L17.8408 11.9958Z" fill="#A3796E"/>
<path d="M17.8408 11.9958L42.3828 36.5378C44.1028 38.2578 44.1028 41.0464 42.3828 42.7664C40.6629 44.4863 37.8743 44.4863 36.1543 42.7664L11.6123 18.2244L17.8408 11.9958Z" fill="url(#paint0_linear_2843_9057)"/>
<path d="M17.8408 11.9958L42.3828 36.5378C44.1028 38.2578 44.1028 41.0464 42.3828 42.7664C40.6629 44.4863 37.8743 44.4863 36.1543 42.7664L11.6123 18.2244L17.8408 11.9958Z" fill="url(#paint1_linear_2843_9057)"/>
</g>
<g id="Rectangle 1279" filter="url(#filter1_f_2843_9057)">
<path d="M17.7817 16.8821C17.3332 16.4336 17.3332 15.7065 17.7817 15.258C18.2302 14.8095 18.9573 14.8095 19.4058 15.258L41.7506 37.6028C42.1991 38.0513 42.1991 38.7784 41.7506 39.2269C41.3021 39.6754 40.575 39.6754 40.1265 39.2269L17.7817 16.8821Z" fill="url(#paint2_linear_2843_9057)"/>
<path d="M17.7817 16.8821C17.3332 16.4336 17.3332 15.7065 17.7817 15.258C18.2302 14.8095 18.9573 14.8095 19.4058 15.258L41.7506 37.6028C42.1991 38.0513 42.1991 38.7784 41.7506 39.2269C41.3021 39.6754 40.575 39.6754 40.1265 39.2269L17.7817 16.8821Z" fill="url(#paint3_radial_2843_9057)"/>
</g>
<g id="Rectangle 1278" filter="url(#filter2_i_2843_9057)">
<path d="M3.64932 16.2262C4.75372 15.1218 6.08774 15.4852 7.52325 16.2179C7.69849 16.3073 7.857 16.4261 7.99612 16.5653L12.4405 21.0097C12.5403 21.1094 12.6303 21.219 12.703 21.3399C13.606 22.841 13.6805 24.3591 12.8017 25.238L11.145 26.8479C10.9985 26.9943 10.7611 26.9943 10.6147 26.8479L2.09812 18.3313C1.95167 18.1849 1.95167 17.9474 2.09812 17.801L3.64932 16.2262Z" fill="#ADA9B9"/>
<path d="M3.64932 16.2262C4.75372 15.1218 6.08774 15.4852 7.52325 16.2179C7.69849 16.3073 7.857 16.4261 7.99612 16.5653L12.4405 21.0097C12.5403 21.1094 12.6303 21.219 12.703 21.3399C13.606 22.841 13.6805 24.3591 12.8017 25.238L11.145 26.8479C10.9985 26.9943 10.7611 26.9943 10.6147 26.8479L2.09812 18.3313C1.95167 18.1849 1.95167 17.9474 2.09812 17.801L3.64932 16.2262Z" fill="url(#paint4_radial_2843_9057)"/>
<path d="M3.64932 16.2262C4.75372 15.1218 6.08774 15.4852 7.52325 16.2179C7.69849 16.3073 7.857 16.4261 7.99612 16.5653L12.4405 21.0097C12.5403 21.1094 12.6303 21.219 12.703 21.3399C13.606 22.841 13.6805 24.3591 12.8017 25.238L11.145 26.8479C10.9985 26.9943 10.7611 26.9943 10.6147 26.8479L2.09812 18.3313C1.95167 18.1849 1.95167 17.9474 2.09812 17.801L3.64932 16.2262Z" fill="url(#paint5_radial_2843_9057)"/>
<path d="M3.64932 16.2262C4.75372 15.1218 6.08774 15.4852 7.52325 16.2179C7.69849 16.3073 7.857 16.4261 7.99612 16.5653L12.4405 21.0097C12.5403 21.1094 12.6303 21.219 12.703 21.3399C13.606 22.841 13.6805 24.3591 12.8017 25.238L11.145 26.8479C10.9985 26.9943 10.7611 26.9943 10.6147 26.8479L2.09812 18.3313C1.95167 18.1849 1.95167 17.9474 2.09812 17.801L3.64932 16.2262Z" fill="url(#paint6_radial_2843_9057)"/>
<path d="M3.64932 16.2262C4.75372 15.1218 6.08774 15.4852 7.52325 16.2179C7.69849 16.3073 7.857 16.4261 7.99612 16.5653L12.4405 21.0097C12.5403 21.1094 12.6303 21.219 12.703 21.3399C13.606 22.841 13.6805 24.3591 12.8017 25.238L11.145 26.8479C10.9985 26.9943 10.7611 26.9943 10.6147 26.8479L2.09812 18.3313C1.95167 18.1849 1.95167 17.9474 2.09812 17.801L3.64932 16.2262Z" fill="url(#paint7_radial_2843_9057)"/>
</g>
<path id="Rectangle 1289" d="M17.8408 11.9958L42.3828 36.5378C44.1028 38.2578 44.1028 41.0464 42.3828 42.7664C40.6629 44.4863 37.8743 44.4863 36.1543 42.7664L11.6123 18.2244L17.8408 11.9958Z" fill="url(#paint8_radial_2843_9057)"/>
<g id="Union" filter="url(#filter3_i_2843_9057)">
<path d="M19.2798 10.0554C18.988 10.3484 18.9885 10.8225 19.281 11.1149L22.4916 14.3255C22.7259 14.5598 22.7259 14.9397 22.4916 15.174L14.7737 22.8919C14.5394 23.1262 14.1595 23.1262 13.9252 22.8919L6.96526 15.932C6.5259 15.4926 6.5259 14.7803 6.96526 14.341L16.8004 4.50586C17.4237 3.88257 18.2896 3.56493 19.1681 3.63735L23.8903 4.02649C24.3991 4.06843 24.6264 4.68609 24.2662 5.04781L19.2798 10.0554Z" fill="#CAC3DA"/>
</g>
<g id="Union_2">
<path d="M19.2798 10.0554C18.988 10.3484 18.9885 10.8225 19.281 11.1149L22.4916 14.3255C22.7259 14.5598 22.7259 14.9397 22.4916 15.174L14.7737 22.8919C14.5394 23.1262 14.1595 23.1262 13.9252 22.8919L6.96526 15.932C6.5259 15.4926 6.5259 14.7803 6.96526 14.341L16.8004 4.50586C17.4237 3.88257 18.2896 3.56493 19.1681 3.63735L23.8903 4.02649C24.3991 4.06843 24.6264 4.68609 24.2662 5.04781L19.2798 10.0554Z" fill="url(#paint9_linear_2843_9057)"/>
<path d="M19.2798 10.0554C18.988 10.3484 18.9885 10.8225 19.281 11.1149L22.4916 14.3255C22.7259 14.5598 22.7259 14.9397 22.4916 15.174L14.7737 22.8919C14.5394 23.1262 14.1595 23.1262 13.9252 22.8919L6.96526 15.932C6.5259 15.4926 6.5259 14.7803 6.96526 14.341L16.8004 4.50586C17.4237 3.88257 18.2896 3.56493 19.1681 3.63735L23.8903 4.02649C24.3991 4.06843 24.6264 4.68609 24.2662 5.04781L19.2798 10.0554Z" fill="url(#paint10_radial_2843_9057)"/>
<path d="M19.2798 10.0554C18.988 10.3484 18.9885 10.8225 19.281 11.1149L22.4916 14.3255C22.7259 14.5598 22.7259 14.9397 22.4916 15.174L14.7737 22.8919C14.5394 23.1262 14.1595 23.1262 13.9252 22.8919L6.96526 15.932C6.5259 15.4926 6.5259 14.7803 6.96526 14.341L16.8004 4.50586C17.4237 3.88257 18.2896 3.56493 19.1681 3.63735L23.8903 4.02649C24.3991 4.06843 24.6264 4.68609 24.2662 5.04781L19.2798 10.0554Z" fill="url(#paint11_radial_2843_9057)"/>
</g>
<g id="Rectangle 1280" filter="url(#filter4_f_2843_9057)">
<rect x="9.93164" y="17.8896" width="10.8376" height="6.4176" transform="rotate(-45 9.93164 17.8896)" fill="url(#paint12_linear_2843_9057)"/>
<rect x="9.93164" y="17.8896" width="10.8376" height="6.4176" transform="rotate(-45 9.93164 17.8896)" fill="url(#paint13_linear_2843_9057)"/>
</g>
<g id="Union_3" filter="url(#filter5_ii_2843_9057)">
<path d="M38.0824 5.15808C38.595 5.2933 38.7198 5.92566 38.3449 6.30052L34.7093 9.93617C34.2699 10.3755 34.2699 11.0878 34.7093 11.5272L37.0323 13.8503C37.4717 14.2896 38.184 14.2896 38.6234 13.8503L42.2723 10.2013C42.6461 9.82752 43.2766 9.95032 43.4143 10.4607C43.5829 11.0859 43.6729 11.7434 43.6729 12.4219C43.6729 16.5705 40.3098 19.9336 36.1611 19.9336C35.5092 19.9336 34.8766 19.8505 34.2735 19.6944C33.9413 19.6085 33.583 19.6874 33.3405 19.93L20.4572 32.8133C20.2163 33.0542 20.1366 33.4094 20.2197 33.7398C20.3677 34.3281 20.4463 34.9439 20.4463 35.5781C20.4463 39.7267 17.0832 43.0898 12.9346 43.0898C12.2705 43.0898 11.6266 43.0037 11.0133 42.8419C10.5007 42.7067 10.3759 42.0743 10.7508 41.6995L14.3864 38.0638C14.8258 37.6245 14.8258 36.9122 14.3864 36.4728L12.0634 34.1497C11.624 33.7104 10.9117 33.7104 10.4724 34.1497L6.82343 37.7987C6.44962 38.1725 5.81909 38.0497 5.6814 37.5393C5.51276 36.9141 5.42285 36.2566 5.42285 35.5781C5.42285 31.4295 8.78595 28.0664 12.9346 28.0664C13.5806 28.0664 14.2076 28.148 14.8059 28.3013C15.1374 28.3863 15.4946 28.3071 15.7367 28.0651L28.6338 15.168C28.8741 14.9276 28.954 14.5735 28.8719 14.2438C28.7265 13.6605 28.6494 13.0502 28.6494 12.4219C28.6494 8.27328 32.0125 4.91016 36.1611 4.91016C36.8252 4.91016 37.4691 4.99633 38.0824 5.15808Z" fill="url(#paint14_linear_2843_9057)"/>
<path d="M38.0824 5.15808C38.595 5.2933 38.7198 5.92566 38.3449 6.30052L34.7093 9.93617C34.2699 10.3755 34.2699 11.0878 34.7093 11.5272L37.0323 13.8503C37.4717 14.2896 38.184 14.2896 38.6234 13.8503L42.2723 10.2013C42.6461 9.82752 43.2766 9.95032 43.4143 10.4607C43.5829 11.0859 43.6729 11.7434 43.6729 12.4219C43.6729 16.5705 40.3098 19.9336 36.1611 19.9336C35.5092 19.9336 34.8766 19.8505 34.2735 19.6944C33.9413 19.6085 33.583 19.6874 33.3405 19.93L20.4572 32.8133C20.2163 33.0542 20.1366 33.4094 20.2197 33.7398C20.3677 34.3281 20.4463 34.9439 20.4463 35.5781C20.4463 39.7267 17.0832 43.0898 12.9346 43.0898C12.2705 43.0898 11.6266 43.0037 11.0133 42.8419C10.5007 42.7067 10.3759 42.0743 10.7508 41.6995L14.3864 38.0638C14.8258 37.6245 14.8258 36.9122 14.3864 36.4728L12.0634 34.1497C11.624 33.7104 10.9117 33.7104 10.4724 34.1497L6.82343 37.7987C6.44962 38.1725 5.81909 38.0497 5.6814 37.5393C5.51276 36.9141 5.42285 36.2566 5.42285 35.5781C5.42285 31.4295 8.78595 28.0664 12.9346 28.0664C13.5806 28.0664 14.2076 28.148 14.8059 28.3013C15.1374 28.3863 15.4946 28.3071 15.7367 28.0651L28.6338 15.168C28.8741 14.9276 28.954 14.5735 28.8719 14.2438C28.7265 13.6605 28.6494 13.0502 28.6494 12.4219C28.6494 8.27328 32.0125 4.91016 36.1611 4.91016C36.8252 4.91016 37.4691 4.99633 38.0824 5.15808Z" fill="url(#paint15_radial_2843_9057)"/>
</g>
<g id="Rectangle 1288">
<rect x="29.1943" y="14.6191" width="6.6954" height="19.3902" transform="rotate(45 29.1943 14.6191)" fill="url(#paint16_linear_2843_9057)"/>
<rect x="29.1943" y="14.6191" width="6.6954" height="19.3902" transform="rotate(45 29.1943 14.6191)" fill="url(#paint17_linear_2843_9057)"/>
<rect x="29.1943" y="14.6191" width="6.6954" height="19.3902" transform="rotate(45 29.1943 14.6191)" fill="url(#paint18_linear_2843_9057)"/>
<rect x="29.1943" y="14.6191" width="6.6954" height="19.3902" transform="rotate(45 29.1943 14.6191)" fill="url(#paint19_radial_2843_9057)"/>
</g>
<g id="Subtract">
<path d="M10.7508 41.6995C10.3759 42.0743 10.5007 42.7067 11.0133 42.8419C11.6266 43.0037 12.2705 43.0898 12.9346 43.0898C17.0832 43.0898 20.4463 39.7267 20.4463 35.5781C20.4463 31.4295 17.0832 28.0664 12.9346 28.0664C8.78595 28.0664 5.42285 31.4295 5.42285 35.5781C5.42285 36.2566 5.51279 36.9141 5.68141 37.5393C5.81907 38.0497 6.44958 38.1725 6.82338 37.7987L10.4724 34.1497C10.9117 33.7104 11.624 33.7104 12.0634 34.1497L14.3864 36.4728C14.8258 36.9122 14.8258 37.6245 14.3864 38.0638L10.7508 41.6995Z" fill="url(#paint20_radial_2843_9057)"/>
<path d="M10.7508 41.6995C10.3759 42.0743 10.5007 42.7067 11.0133 42.8419C11.6266 43.0037 12.2705 43.0898 12.9346 43.0898C17.0832 43.0898 20.4463 39.7267 20.4463 35.5781C20.4463 31.4295 17.0832 28.0664 12.9346 28.0664C8.78595 28.0664 5.42285 31.4295 5.42285 35.5781C5.42285 36.2566 5.51279 36.9141 5.68141 37.5393C5.81907 38.0497 6.44958 38.1725 6.82338 37.7987L10.4724 34.1497C10.9117 33.7104 11.624 33.7104 12.0634 34.1497L14.3864 36.4728C14.8258 36.9122 14.8258 37.6245 14.3864 38.0638L10.7508 41.6995Z" fill="url(#paint21_radial_2843_9057)"/>
<path d="M10.7508 41.6995C10.3759 42.0743 10.5007 42.7067 11.0133 42.8419C11.6266 43.0037 12.2705 43.0898 12.9346 43.0898C17.0832 43.0898 20.4463 39.7267 20.4463 35.5781C20.4463 31.4295 17.0832 28.0664 12.9346 28.0664C8.78595 28.0664 5.42285 31.4295 5.42285 35.5781C5.42285 36.2566 5.51279 36.9141 5.68141 37.5393C5.81907 38.0497 6.44958 38.1725 6.82338 37.7987L10.4724 34.1497C10.9117 33.7104 11.624 33.7104 12.0634 34.1497L14.3864 36.4728C14.8258 36.9122 14.8258 37.6245 14.3864 38.0638L10.7508 41.6995Z" fill="url(#paint22_radial_2843_9057)"/>
</g>
<g id="Subtract_2">
<path d="M38.0824 5.15808C38.595 5.2933 38.7198 5.92566 38.3449 6.30052L34.7093 9.93617C34.2699 10.3755 34.2699 11.0878 34.7093 11.5272L37.0323 13.8503C37.4717 14.2896 38.184 14.2896 38.6234 13.8503L42.2723 10.2013C42.6461 9.82752 43.2766 9.95032 43.4143 10.4607C43.5829 11.0859 43.6729 11.7434 43.6729 12.4219C43.6729 16.5705 40.3098 19.9336 36.1611 19.9336C35.6293 19.9336 35.1105 19.8783 34.6099 19.7732C34.3518 19.719 34.1201 19.5817 33.9336 19.3952L29.1878 14.6494C29.0013 14.4629 28.864 14.2312 28.8098 13.9731C28.7047 13.4725 28.6494 12.9537 28.6494 12.4219C28.6494 8.27328 32.0125 4.91016 36.1611 4.91016C36.8252 4.91016 37.4691 4.99633 38.0824 5.15808Z" fill="url(#paint23_radial_2843_9057)"/>
<path d="M38.0824 5.15808C38.595 5.2933 38.7198 5.92566 38.3449 6.30052L34.7093 9.93617C34.2699 10.3755 34.2699 11.0878 34.7093 11.5272L37.0323 13.8503C37.4717 14.2896 38.184 14.2896 38.6234 13.8503L42.2723 10.2013C42.6461 9.82752 43.2766 9.95032 43.4143 10.4607C43.5829 11.0859 43.6729 11.7434 43.6729 12.4219C43.6729 16.5705 40.3098 19.9336 36.1611 19.9336C35.6293 19.9336 35.1105 19.8783 34.6099 19.7732C34.3518 19.719 34.1201 19.5817 33.9336 19.3952L29.1878 14.6494C29.0013 14.4629 28.864 14.2312 28.8098 13.9731C28.7047 13.4725 28.6494 12.9537 28.6494 12.4219C28.6494 8.27328 32.0125 4.91016 36.1611 4.91016C36.8252 4.91016 37.4691 4.99633 38.0824 5.15808Z" fill="url(#paint24_radial_2843_9057)"/>
</g>
</g>
<defs>
<filter id="filter0_i_2843_9057" x="11.6123" y="11.8458" width="32.0605" height="32.2105" filterUnits="userSpaceOnUse" color-interpolation-filters="sRGB">
<feFlood flood-opacity="0" result="BackgroundImageFix"/>
<feBlend mode="normal" in="SourceGraphic" in2="BackgroundImageFix" result="shape"/>
<feColorMatrix in="SourceAlpha" type="matrix" values="0 0 0 0 0 0 0 0 0 0 0 0 0 0 0 0 0 0 127 0" result="hardAlpha"/>
<feOffset dy="-0.15"/>
<feGaussianBlur stdDeviation="0.15"/>
<feComposite in2="hardAlpha" operator="arithmetic" k2="-1" k3="1"/>
<feColorMatrix type="matrix" values="0 0 0 0 0.643137 0 0 0 0 0.384314 0 0 0 0 0.737255 0 0 0 1 0"/>
<feBlend mode="normal" in2="shape" result="effect1_innerShadow_2843_9057"/>
</filter>
<filter id="filter1_f_2843_9057" x="16.4453" y="13.9216" width="26.6416" height="26.6416" filterUnits="userSpaceOnUse" color-interpolation-filters="sRGB">
<feFlood flood-opacity="0" result="BackgroundImageFix"/>
<feBlend mode="normal" in="SourceGraphic" in2="BackgroundImageFix" result="shape"/>
<feGaussianBlur stdDeviation="0.5" result="effect1_foregroundBlur_2843_9057"/>
</filter>
<filter id="filter2_i_2843_9057" x="1.98828" y="15.3769" width="11.5836" height="11.5809" filterUnits="userSpaceOnUse" color-interpolation-filters="sRGB">
<feFlood flood-opacity="0" result="BackgroundImageFix"/>
<feBlend mode="normal" in="SourceGraphic" in2="BackgroundImageFix" result="shape"/>
<feColorMatrix in="SourceAlpha" type="matrix" values="0 0 0 0 0 0 0 0 0 0 0 0 0 0 0 0 0 0 127 0" result="hardAlpha"/>
<feOffset dx="0.15" dy="-0.15"/>
<feGaussianBlur stdDeviation="0.375"/>
<feComposite in2="hardAlpha" operator="arithmetic" k2="-1" k3="1"/>
<feColorMatrix type="matrix" values="0 0 0 0 0.552941 0 0 0 0 0.541176 0 0 0 0 0.592157 0 0 0 1 0"/>
<feBlend mode="normal" in2="shape" result="effect1_innerShadow_2843_9057"/>
</filter>
<filter id="filter3_i_2843_9057" x="6.63574" y="3.3772" width="18.0566" height="19.6904" filterUnits="userSpaceOnUse" color-interpolation-filters="sRGB">
<feFlood flood-opacity="0" result="BackgroundImageFix"/>
<feBlend mode="normal" in="SourceGraphic" in2="BackgroundImageFix" result="shape"/>
<feColorMatrix in="SourceAlpha" type="matrix" values="0 0 0 0 0 0 0 0 0 0 0 0 0 0 0 0 0 0 127 0" result="hardAlpha"/>
<feOffset dx="0.25" dy="-0.25"/>
<feGaussianBlur stdDeviation="0.5"/>
<feComposite in2="hardAlpha" operator="arithmetic" k2="-1" k3="1"/>
<feColorMatrix type="matrix" values="0 0 0 0 0.537255 0 0 0 0 0.52549 0 0 0 0 0.596078 0 0 0 1 0"/>
<feBlend mode="normal" in2="shape" result="effect1_innerShadow_2843_9057"/>
</filter>
<filter id="filter4_f_2843_9057" x="8.93164" y="9.22632" width="14.2012" height="14.2012" filterUnits="userSpaceOnUse" color-interpolation-filters="sRGB">
<feFlood flood-opacity="0" result="BackgroundImageFix"/>
<feBlend mode="normal" in="SourceGraphic" in2="BackgroundImageFix" result="shape"/>
<feGaussianBlur stdDeviation="0.5" result="effect1_foregroundBlur_2843_9057"/>
</filter>
<filter id="filter5_ii_2843_9057" x="5.22285" y="4.71016" width="38.65" height="38.5797" filterUnits="userSpaceOnUse" color-interpolation-filters="sRGB">
<feFlood flood-opacity="0" result="BackgroundImageFix"/>
<feBlend mode="normal" in="SourceGraphic" in2="BackgroundImageFix" result="shape"/>
<feColorMatrix in="SourceAlpha" type="matrix" values="0 0 0 0 0 0 0 0 0 0 0 0 0 0 0 0 0 0 127 0" result="hardAlpha"/>
<feOffset dx="0.2" dy="0.2"/>
<feGaussianBlur stdDeviation="0.3"/>
<feComposite in2="hardAlpha" operator="arithmetic" k2="-1" k3="1"/>
<feColorMatrix type="matrix" values="0 0 0 0 0.701961 0 0 0 0 0.686275 0 0 0 0 0.733333 0 0 0 1 0"/>
<feBlend mode="normal" in2="shape" result="effect1_innerShadow_2843_9057"/>
<feColorMatrix in="SourceAlpha" type="matrix" values="0 0 0 0 0 0 0 0 0 0 0 0 0 0 0 0 0 0 127 0" result="hardAlpha"/>
<feOffset dx="-0.2" dy="-0.2"/>
<feGaussianBlur stdDeviation="0.2"/>
<feComposite in2="hardAlpha" operator="arithmetic" k2="-1" k3="1"/>
<feColorMatrix type="matrix" values="0 0 0 0 0.866667 0 0 0 0 0.854902 0 0 0 0 0.894118 0 0 0 1 0"/>
<feBlend mode="normal" in2="effect1_innerShadow_2843_9057" result="effect2_innerShadow_2843_9057"/>
</filter>
<linearGradient id="paint0_linear_2843_9057" x1="45.2979" y1="40.8357" x2="38.7822" y2="34.3201" gradientUnits="userSpaceOnUse">
<stop offset="0.064748" stop-color="#7F494F"/>
<stop offset="1" stop-color="#7F494F" stop-opacity="0"/>
</linearGradient>
<linearGradient id="paint1_linear_2843_9057" x1="26.3604" y1="31.4138" x2="31.7041" y2="25.8826" gradientUnits="userSpaceOnUse">
<stop offset="0.0577084" stop-color="#733464"/>
<stop offset="1" stop-color="#7C425A" stop-opacity="0"/>
</linearGradient>
<linearGradient id="paint2_linear_2843_9057" x1="26.3136" y1="24.9921" x2="40.0948" y2="38.5389" gradientUnits="userSpaceOnUse">
<stop stop-color="#A77975"/>
<stop offset="1" stop-color="#8F6969"/>
</linearGradient>
<radialGradient id="paint3_radial_2843_9057" cx="0" cy="0" r="1" gradientUnits="userSpaceOnUse" gradientTransform="translate(42.5323 38.9139) rotate(-144.273) scale(3.29128 4.21324)">
<stop stop-color="#9B7775"/>
<stop offset="1" stop-color="#9B7775" stop-opacity="0"/>
</radialGradient>
<radialGradient id="paint4_radial_2843_9057" cx="0" cy="0" r="1" gradientUnits="userSpaceOnUse" gradientTransform="translate(7.7052 23.8052) rotate(-45.6098) scale(4.62359 4.62481)">
<stop stop-color="#CABFDD"/>
<stop offset="1" stop-color="#CABFDD" stop-opacity="0"/>
</radialGradient>
<radialGradient id="paint5_radial_2843_9057" cx="0" cy="0" r="1" gradientUnits="userSpaceOnUse" gradientTransform="translate(6.62588 22.8356) rotate(-47.332) scale(7.33126 16.9991)">
<stop offset="0.599497" stop-color="#BBB9C3" stop-opacity="0"/>
<stop offset="0.775721" stop-color="#8C889A"/>
</radialGradient>
<radialGradient id="paint6_radial_2843_9057" cx="0" cy="0" r="1" gradientUnits="userSpaceOnUse" gradientTransform="translate(9.34464 19.8356) rotate(131.009) scale(2.85745 8.76523)">
<stop stop-color="#DED9EA"/>
<stop offset="1" stop-color="#CAC1DC" stop-opacity="0"/>
</radialGradient>
<radialGradient id="paint7_radial_2843_9057" cx="0" cy="0" r="1" gradientUnits="userSpaceOnUse" gradientTransform="translate(11.1259 19.5544) rotate(-177.818) scale(9.85089 12.7086)">
<stop offset="0.547233" stop-color="#8F8C98" stop-opacity="0"/>
<stop offset="1" stop-color="#8F8C98"/>
</radialGradient>
<radialGradient id="paint8_radial_2843_9057" cx="0" cy="0" r="1" gradientUnits="userSpaceOnUse" gradientTransform="translate(24.0999 23.8292) rotate(-132.466) scale(4.12655 32.5009)">
<stop offset="0.318552" stop-color="#563235"/>
<stop offset="1" stop-color="#563235" stop-opacity="0"/>
</radialGradient>
<linearGradient id="paint9_linear_2843_9057" x1="21.144" y1="3.93278" x2="20.9982" y2="5.77913" gradientUnits="userSpaceOnUse">
<stop stop-color="#CCCCD3"/>
<stop offset="1" stop-color="#CCCCD3" stop-opacity="0"/>
</linearGradient>
<radialGradient id="paint10_radial_2843_9057" cx="0" cy="0" r="1" gradientUnits="userSpaceOnUse" gradientTransform="translate(23.5734 4.85596) rotate(136.759) scale(2.51783 0.50679)">
<stop stop-color="#DFDDE8"/>
<stop offset="1" stop-color="#CCC9D6" stop-opacity="0"/>
</radialGradient>
<radialGradient id="paint11_radial_2843_9057" cx="0" cy="0" r="1" gradientUnits="userSpaceOnUse" gradientTransform="translate(23.1847 12.4357) rotate(145.582) scale(6.36114 5.08223)">
<stop offset="0.200856" stop-color="#ECEAF4"/>
<stop offset="1" stop-color="#ECEAF4" stop-opacity="0"/>
</radialGradient>
<linearGradient id="paint12_linear_2843_9057" x1="20.705" y1="22.3858" x2="9.82797" y2="23.0337" gradientUnits="userSpaceOnUse">
<stop stop-color="#EDEAF7"/>
<stop offset="1" stop-color="#A89ABE"/>
</linearGradient>
<linearGradient id="paint13_linear_2843_9057" x1="15.3504" y1="17.8896" x2="15.3835" y2="19.8121" gradientUnits="userSpaceOnUse">
<stop offset="0.111441" stop-color="#B2ADC0"/>
<stop offset="1" stop-color="#B2ADC0" stop-opacity="0"/>
</linearGradient>
<linearGradient id="paint14_linear_2843_9057" x1="19.79" y1="19.3242" x2="27.665" y2="28.6055" gradientUnits="userSpaceOnUse">
<stop stop-color="#BAB6C1"/>
<stop offset="1" stop-color="#E0DBE7"/>
</linearGradient>
<radialGradient id="paint15_radial_2843_9057" cx="0" cy="0" r="1" gradientUnits="userSpaceOnUse" gradientTransform="translate(44.2588 9.48047) rotate(136.302) scale(8.75271 5.9954)">
<stop stop-color="#E1DFE7"/>
<stop offset="1" stop-color="#E1DFE7" stop-opacity="0"/>
</radialGradient>
<linearGradient id="paint16_linear_2843_9057" x1="27.5619" y1="25.0594" x2="33.4843" y2="25.2405" gradientUnits="userSpaceOnUse">
<stop stop-color="#9E9AA4"/>
<stop offset="1" stop-color="#D2CED9" stop-opacity="0"/>
</linearGradient>
<linearGradient id="paint17_linear_2843_9057" x1="32.5669" y1="14.1358" x2="32.5121" y2="15.4007" gradientUnits="userSpaceOnUse">
<stop offset="0.275" stop-color="#C8B4D9"/>
<stop offset="1" stop-color="#C8B4D9" stop-opacity="0"/>
</linearGradient>
<linearGradient id="paint18_linear_2843_9057" x1="37.2404" y1="24.0927" x2="32.1591" y2="23.9329" gradientUnits="userSpaceOnUse">
<stop stop-color="#D3C1E6"/>
<stop offset="1" stop-color="#D3C1E6" stop-opacity="0"/>
</linearGradient>
<radialGradient id="paint19_radial_2843_9057" cx="0" cy="0" r="1" gradientUnits="userSpaceOnUse" gradientTransform="translate(33.2629 33.8104) rotate(-96.7099) scale(1.70208 3.76724)">
<stop offset="0.341463" stop-color="#E0DBE9"/>
<stop offset="1" stop-color="#D3CEDA" stop-opacity="0"/>
</radialGradient>
<radialGradient id="paint20_radial_2843_9057" cx="0" cy="0" r="1" gradientUnits="userSpaceOnUse" gradientTransform="translate(16.04 36.0586) rotate(-163.225) scale(10.2323 11.9882)">
<stop offset="0.68256" stop-color="#9D99A6" stop-opacity="0"/>
<stop offset="1" stop-color="#9D99A6"/>
</radialGradient>
<radialGradient id="paint21_radial_2843_9057" cx="0" cy="0" r="1" gradientUnits="userSpaceOnUse" gradientTransform="translate(13.2744 32.918) rotate(89.2527) scale(10.7822 14.8715)">
<stop offset="0.405994" stop-color="#E0D0EF" stop-opacity="0"/>
<stop offset="0.944508" stop-color="#CBA8E2"/>
</radialGradient>
<radialGradient id="paint22_radial_2843_9057" cx="0" cy="0" r="1" gradientUnits="userSpaceOnUse" gradientTransform="translate(18.8994 31.5586) rotate(133.719) scale(5.56157 5.47008)">
<stop stop-color="#E9E3F3"/>
<stop offset="1" stop-color="#E9E3F3" stop-opacity="0"/>
</radialGradient>
<radialGradient id="paint23_radial_2843_9057" cx="0" cy="0" r="1" gradientUnits="userSpaceOnUse" gradientTransform="translate(35.8213 19.9336) rotate(-95.856) scale(9.18858 12.6871)">
<stop offset="0.0115057" stop-color="#C3A9D9"/>
<stop offset="1" stop-color="#C3A9D9" stop-opacity="0"/>
</radialGradient>
<radialGradient id="paint24_radial_2843_9057" cx="0" cy="0" r="1" gradientUnits="userSpaceOnUse" gradientTransform="translate(40.1338 13.5586) rotate(-160.812) scale(12.4081 13.1685)">
<stop offset="0.696071" stop-color="#AFA6BB" stop-opacity="0"/>
<stop offset="0.956086" stop-color="#9C98A3"/>
</radialGradient>
</defs>
</svg>
