<svg width="48" height="48" viewBox="0 0 48 48" fill="none" xmlns="http://www.w3.org/2000/svg">
<g id="Headphone">
<g id="Union" filter="url(#filter0_i_2843_9101)">
<path d="M13.4564 10.8677C9.44308 13.9622 8.91346 17.3755 8.98095 19.4993C9.08986 21.4176 9.33064 22.751 9.52141 23.8075L9.54133 23.9179C9.76551 25.1613 9.26639 26.3725 8.34083 27.1393L7.37762 27.9372C7.31145 27.992 7.29101 28.0848 7.32801 28.1624L9.14489 31.9705L6.77573 33.1008L4.95884 29.2927C4.40388 28.1295 4.71052 26.738 5.70296 25.9158L6.66618 25.1178C6.91024 24.9156 7.0033 24.635 6.95798 24.3836L6.93679 24.2662C6.84676 23.7678 6.40571 20.7266 6.3787 19.5872C6.33921 17.9211 6.44554 13.218 9.88218 9.23877C13.89 4.59814 20.2298 3.12158 23.933 3.12158C27.8822 3.12158 34.1104 4.59814 38.1182 9.23877C41.5548 13.218 41.6611 17.9211 41.6217 19.5872C41.6784 20.6488 41.1536 23.7678 41.0636 24.2662L41.0424 24.3836C40.9971 24.635 41.0901 24.9156 41.3342 25.1178L42.2974 25.9158C43.2898 26.738 43.5965 28.1295 43.0415 29.2927L41.2246 33.1008L38.8555 31.9705L40.6723 28.1624C40.7093 28.0848 40.6889 27.992 40.6227 27.9372L39.6595 27.1393C38.734 26.3725 38.2348 25.1613 38.459 23.9179L38.4789 23.8075C38.6697 22.7511 38.9105 21.4178 39.0194 19.4995C39.0869 17.3757 38.5573 13.9622 34.5439 10.8677C30.3285 7.61728 25.7494 7.35205 23.933 7.35205C22.1166 7.35205 17.6719 7.61728 13.4564 10.8677Z" fill="url(#paint0_radial_2843_9101)"/>
<path d="M13.4564 10.8677C9.44308 13.9622 8.91346 17.3755 8.98095 19.4993C9.08986 21.4176 9.33064 22.751 9.52141 23.8075L9.54133 23.9179C9.76551 25.1613 9.26639 26.3725 8.34083 27.1393L7.37762 27.9372C7.31145 27.992 7.29101 28.0848 7.32801 28.1624L9.14489 31.9705L6.77573 33.1008L4.95884 29.2927C4.40388 28.1295 4.71052 26.738 5.70296 25.9158L6.66618 25.1178C6.91024 24.9156 7.0033 24.635 6.95798 24.3836L6.93679 24.2662C6.84676 23.7678 6.40571 20.7266 6.3787 19.5872C6.33921 17.9211 6.44554 13.218 9.88218 9.23877C13.89 4.59814 20.2298 3.12158 23.933 3.12158C27.8822 3.12158 34.1104 4.59814 38.1182 9.23877C41.5548 13.218 41.6611 17.9211 41.6217 19.5872C41.6784 20.6488 41.1536 23.7678 41.0636 24.2662L41.0424 24.3836C40.9971 24.635 41.0901 24.9156 41.3342 25.1178L42.2974 25.9158C43.2898 26.738 43.5965 28.1295 43.0415 29.2927L41.2246 33.1008L38.8555 31.9705L40.6723 28.1624C40.7093 28.0848 40.6889 27.992 40.6227 27.9372L39.6595 27.1393C38.734 26.3725 38.2348 25.1613 38.459 23.9179L38.4789 23.8075C38.6697 22.7511 38.9105 21.4178 39.0194 19.4995C39.0869 17.3757 38.5573 13.9622 34.5439 10.8677C30.3285 7.61728 25.7494 7.35205 23.933 7.35205C22.1166 7.35205 17.6719 7.61728 13.4564 10.8677Z" fill="url(#paint1_radial_2843_9101)"/>
<path d="M13.4564 10.8677C9.44308 13.9622 8.91346 17.3755 8.98095 19.4993C9.08986 21.4176 9.33064 22.751 9.52141 23.8075L9.54133 23.9179C9.76551 25.1613 9.26639 26.3725 8.34083 27.1393L7.37762 27.9372C7.31145 27.992 7.29101 28.0848 7.32801 28.1624L9.14489 31.9705L6.77573 33.1008L4.95884 29.2927C4.40388 28.1295 4.71052 26.738 5.70296 25.9158L6.66618 25.1178C6.91024 24.9156 7.0033 24.635 6.95798 24.3836L6.93679 24.2662C6.84676 23.7678 6.40571 20.7266 6.3787 19.5872C6.33921 17.9211 6.44554 13.218 9.88218 9.23877C13.89 4.59814 20.2298 3.12158 23.933 3.12158C27.8822 3.12158 34.1104 4.59814 38.1182 9.23877C41.5548 13.218 41.6611 17.9211 41.6217 19.5872C41.6784 20.6488 41.1536 23.7678 41.0636 24.2662L41.0424 24.3836C40.9971 24.635 41.0901 24.9156 41.3342 25.1178L42.2974 25.9158C43.2898 26.738 43.5965 28.1295 43.0415 29.2927L41.2246 33.1008L38.8555 31.9705L40.6723 28.1624C40.7093 28.0848 40.6889 27.992 40.6227 27.9372L39.6595 27.1393C38.734 26.3725 38.2348 25.1613 38.459 23.9179L38.4789 23.8075C38.6697 22.7511 38.9105 21.4178 39.0194 19.4995C39.0869 17.3757 38.5573 13.9622 34.5439 10.8677C30.3285 7.61728 25.7494 7.35205 23.933 7.35205C22.1166 7.35205 17.6719 7.61728 13.4564 10.8677Z" fill="url(#paint2_radial_2843_9101)"/>
<path d="M13.4564 10.8677C9.44308 13.9622 8.91346 17.3755 8.98095 19.4993C9.08986 21.4176 9.33064 22.751 9.52141 23.8075L9.54133 23.9179C9.76551 25.1613 9.26639 26.3725 8.34083 27.1393L7.37762 27.9372C7.31145 27.992 7.29101 28.0848 7.32801 28.1624L9.14489 31.9705L6.77573 33.1008L4.95884 29.2927C4.40388 28.1295 4.71052 26.738 5.70296 25.9158L6.66618 25.1178C6.91024 24.9156 7.0033 24.635 6.95798 24.3836L6.93679 24.2662C6.84676 23.7678 6.40571 20.7266 6.3787 19.5872C6.33921 17.9211 6.44554 13.218 9.88218 9.23877C13.89 4.59814 20.2298 3.12158 23.933 3.12158C27.8822 3.12158 34.1104 4.59814 38.1182 9.23877C41.5548 13.218 41.6611 17.9211 41.6217 19.5872C41.6784 20.6488 41.1536 23.7678 41.0636 24.2662L41.0424 24.3836C40.9971 24.635 41.0901 24.9156 41.3342 25.1178L42.2974 25.9158C43.2898 26.738 43.5965 28.1295 43.0415 29.2927L41.2246 33.1008L38.8555 31.9705L40.6723 28.1624C40.7093 28.0848 40.6889 27.992 40.6227 27.9372L39.6595 27.1393C38.734 26.3725 38.2348 25.1613 38.459 23.9179L38.4789 23.8075C38.6697 22.7511 38.9105 21.4178 39.0194 19.4995C39.0869 17.3757 38.5573 13.9622 34.5439 10.8677C30.3285 7.61728 25.7494 7.35205 23.933 7.35205C22.1166 7.35205 17.6719 7.61728 13.4564 10.8677Z" fill="url(#paint3_radial_2843_9101)"/>
<path d="M13.4564 10.8677C9.44308 13.9622 8.91346 17.3755 8.98095 19.4993C9.08986 21.4176 9.33064 22.751 9.52141 23.8075L9.54133 23.9179C9.76551 25.1613 9.26639 26.3725 8.34083 27.1393L7.37762 27.9372C7.31145 27.992 7.29101 28.0848 7.32801 28.1624L9.14489 31.9705L6.77573 33.1008L4.95884 29.2927C4.40388 28.1295 4.71052 26.738 5.70296 25.9158L6.66618 25.1178C6.91024 24.9156 7.0033 24.635 6.95798 24.3836L6.93679 24.2662C6.84676 23.7678 6.40571 20.7266 6.3787 19.5872C6.33921 17.9211 6.44554 13.218 9.88218 9.23877C13.89 4.59814 20.2298 3.12158 23.933 3.12158C27.8822 3.12158 34.1104 4.59814 38.1182 9.23877C41.5548 13.218 41.6611 17.9211 41.6217 19.5872C41.6784 20.6488 41.1536 23.7678 41.0636 24.2662L41.0424 24.3836C40.9971 24.635 41.0901 24.9156 41.3342 25.1178L42.2974 25.9158C43.2898 26.738 43.5965 28.1295 43.0415 29.2927L41.2246 33.1008L38.8555 31.9705L40.6723 28.1624C40.7093 28.0848 40.6889 27.992 40.6227 27.9372L39.6595 27.1393C38.734 26.3725 38.2348 25.1613 38.459 23.9179L38.4789 23.8075C38.6697 22.7511 38.9105 21.4178 39.0194 19.4995C39.0869 17.3757 38.5573 13.9622 34.5439 10.8677C30.3285 7.61728 25.7494 7.35205 23.933 7.35205C22.1166 7.35205 17.6719 7.61728 13.4564 10.8677Z" fill="url(#paint4_radial_2843_9101)"/>
<path d="M13.4564 10.8677C9.44308 13.9622 8.91346 17.3755 8.98095 19.4993C9.08986 21.4176 9.33064 22.751 9.52141 23.8075L9.54133 23.9179C9.76551 25.1613 9.26639 26.3725 8.34083 27.1393L7.37762 27.9372C7.31145 27.992 7.29101 28.0848 7.32801 28.1624L9.14489 31.9705L6.77573 33.1008L4.95884 29.2927C4.40388 28.1295 4.71052 26.738 5.70296 25.9158L6.66618 25.1178C6.91024 24.9156 7.0033 24.635 6.95798 24.3836L6.93679 24.2662C6.84676 23.7678 6.40571 20.7266 6.3787 19.5872C6.33921 17.9211 6.44554 13.218 9.88218 9.23877C13.89 4.59814 20.2298 3.12158 23.933 3.12158C27.8822 3.12158 34.1104 4.59814 38.1182 9.23877C41.5548 13.218 41.6611 17.9211 41.6217 19.5872C41.6784 20.6488 41.1536 23.7678 41.0636 24.2662L41.0424 24.3836C40.9971 24.635 41.0901 24.9156 41.3342 25.1178L42.2974 25.9158C43.2898 26.738 43.5965 28.1295 43.0415 29.2927L41.2246 33.1008L38.8555 31.9705L40.6723 28.1624C40.7093 28.0848 40.6889 27.992 40.6227 27.9372L39.6595 27.1393C38.734 26.3725 38.2348 25.1613 38.459 23.9179L38.4789 23.8075C38.6697 22.7511 38.9105 21.4178 39.0194 19.4995C39.0869 17.3757 38.5573 13.9622 34.5439 10.8677C30.3285 7.61728 25.7494 7.35205 23.933 7.35205C22.1166 7.35205 17.6719 7.61728 13.4564 10.8677Z" fill="url(#paint5_linear_2843_9101)"/>
</g>
<g id="Rectangle 430">
<path d="M5.5806 33.6354C5.37043 32.9437 5.68358 32.2004 6.32542 31.8677L11.2521 29.3134C11.9135 28.9705 12.7242 29.3068 12.9486 30.0172L16.7144 41.9342C16.94 42.6481 16.464 43.3919 15.7213 43.4862L10.0951 44.2004C9.36966 44.2925 8.68355 43.8481 8.47097 43.1484L5.5806 33.6354Z" fill="url(#paint6_linear_2843_9101)"/>
<path d="M5.5806 33.6354C5.37043 32.9437 5.68358 32.2004 6.32542 31.8677L11.2521 29.3134C11.9135 28.9705 12.7242 29.3068 12.9486 30.0172L16.7144 41.9342C16.94 42.6481 16.464 43.3919 15.7213 43.4862L10.0951 44.2004C9.36966 44.2925 8.68355 43.8481 8.47097 43.1484L5.5806 33.6354Z" fill="url(#paint7_linear_2843_9101)"/>
<path d="M5.5806 33.6354C5.37043 32.9437 5.68358 32.2004 6.32542 31.8677L11.2521 29.3134C11.9135 28.9705 12.7242 29.3068 12.9486 30.0172L16.7144 41.9342C16.94 42.6481 16.464 43.3919 15.7213 43.4862L10.0951 44.2004C9.36966 44.2925 8.68355 43.8481 8.47097 43.1484L5.5806 33.6354Z" fill="url(#paint8_radial_2843_9101)"/>
<path d="M5.5806 33.6354C5.37043 32.9437 5.68358 32.2004 6.32542 31.8677L11.2521 29.3134C11.9135 28.9705 12.7242 29.3068 12.9486 30.0172L16.7144 41.9342C16.94 42.6481 16.464 43.3919 15.7213 43.4862L10.0951 44.2004C9.36966 44.2925 8.68355 43.8481 8.47097 43.1484L5.5806 33.6354Z" fill="url(#paint9_linear_2843_9101)"/>
<path d="M5.5806 33.6354C5.37043 32.9437 5.68358 32.2004 6.32542 31.8677L11.2521 29.3134C11.9135 28.9705 12.7242 29.3068 12.9486 30.0172L16.7144 41.9342C16.94 42.6481 16.464 43.3919 15.7213 43.4862L10.0951 44.2004C9.36966 44.2925 8.68355 43.8481 8.47097 43.1484L5.5806 33.6354Z" fill="url(#paint10_linear_2843_9101)"/>
</g>
<g id="Rectangle 431" filter="url(#filter1_i_2843_9101)">
<path d="M42.395 33.6354C42.6052 32.9437 42.292 32.2004 41.6502 31.8677L36.7235 29.3134C36.0621 28.9705 35.2514 29.3068 35.0269 30.0172L31.2612 41.9342C31.0356 42.6481 31.5116 43.3919 32.2543 43.4862L37.8805 44.2004C38.6059 44.2925 39.292 43.8481 39.5046 43.1484L42.395 33.6354Z" fill="url(#paint11_linear_2843_9101)"/>
<path d="M42.395 33.6354C42.6052 32.9437 42.292 32.2004 41.6502 31.8677L36.7235 29.3134C36.0621 28.9705 35.2514 29.3068 35.0269 30.0172L31.2612 41.9342C31.0356 42.6481 31.5116 43.3919 32.2543 43.4862L37.8805 44.2004C38.6059 44.2925 39.292 43.8481 39.5046 43.1484L42.395 33.6354Z" fill="url(#paint12_linear_2843_9101)"/>
<path d="M42.395 33.6354C42.6052 32.9437 42.292 32.2004 41.6502 31.8677L36.7235 29.3134C36.0621 28.9705 35.2514 29.3068 35.0269 30.0172L31.2612 41.9342C31.0356 42.6481 31.5116 43.3919 32.2543 43.4862L37.8805 44.2004C38.6059 44.2925 39.292 43.8481 39.5046 43.1484L42.395 33.6354Z" fill="url(#paint13_radial_2843_9101)"/>
<path d="M42.395 33.6354C42.6052 32.9437 42.292 32.2004 41.6502 31.8677L36.7235 29.3134C36.0621 28.9705 35.2514 29.3068 35.0269 30.0172L31.2612 41.9342C31.0356 42.6481 31.5116 43.3919 32.2543 43.4862L37.8805 44.2004C38.6059 44.2925 39.292 43.8481 39.5046 43.1484L42.395 33.6354Z" fill="url(#paint14_radial_2843_9101)"/>
</g>
<g id="Rectangle 429">
<path d="M9.70164 29.5527C9.51061 28.9181 9.8702 28.2488 10.5048 28.0578L14.0074 27.0034C14.642 26.8124 15.3113 27.172 15.5023 27.8066L19.8733 42.3268C20.0643 42.9614 19.7047 43.6307 19.0701 43.8218L15.5676 44.8761C14.9329 45.0671 14.2636 44.7076 14.0726 44.0729L9.70164 29.5527Z" fill="url(#paint15_linear_2843_9101)"/>
<path d="M9.70164 29.5527C9.51061 28.9181 9.8702 28.2488 10.5048 28.0578L14.0074 27.0034C14.642 26.8124 15.3113 27.172 15.5023 27.8066L19.8733 42.3268C20.0643 42.9614 19.7047 43.6307 19.0701 43.8218L15.5676 44.8761C14.9329 45.0671 14.2636 44.7076 14.0726 44.0729L9.70164 29.5527Z" fill="url(#paint16_radial_2843_9101)"/>
<path d="M9.70164 29.5527C9.51061 28.9181 9.8702 28.2488 10.5048 28.0578L14.0074 27.0034C14.642 26.8124 15.3113 27.172 15.5023 27.8066L19.8733 42.3268C20.0643 42.9614 19.7047 43.6307 19.0701 43.8218L15.5676 44.8761C14.9329 45.0671 14.2636 44.7076 14.0726 44.0729L9.70164 29.5527Z" fill="url(#paint17_radial_2843_9101)"/>
<path d="M9.70164 29.5527C9.51061 28.9181 9.8702 28.2488 10.5048 28.0578L14.0074 27.0034C14.642 26.8124 15.3113 27.172 15.5023 27.8066L19.8733 42.3268C20.0643 42.9614 19.7047 43.6307 19.0701 43.8218L15.5676 44.8761C14.9329 45.0671 14.2636 44.7076 14.0726 44.0729L9.70164 29.5527Z" fill="url(#paint18_linear_2843_9101)"/>
</g>
<g id="Rectangle 432">
<path d="M37.9927 29.5527C38.1837 28.9181 37.8241 28.2488 37.1895 28.0578L33.687 27.0034C33.0524 26.8124 32.383 27.172 32.192 27.8066L27.821 42.3268C27.63 42.9614 27.9896 43.6307 28.6242 43.8218L32.1268 44.8761C32.7614 45.0671 33.4307 44.7076 33.6217 44.0729L37.9927 29.5527Z" fill="url(#paint19_linear_2843_9101)"/>
<path d="M37.9927 29.5527C38.1837 28.9181 37.8241 28.2488 37.1895 28.0578L33.687 27.0034C33.0524 26.8124 32.383 27.172 32.192 27.8066L27.821 42.3268C27.63 42.9614 27.9896 43.6307 28.6242 43.8218L32.1268 44.8761C32.7614 45.0671 33.4307 44.7076 33.6217 44.0729L37.9927 29.5527Z" fill="url(#paint20_linear_2843_9101)"/>
<path d="M37.9927 29.5527C38.1837 28.9181 37.8241 28.2488 37.1895 28.0578L33.687 27.0034C33.0524 26.8124 32.383 27.172 32.192 27.8066L27.821 42.3268C27.63 42.9614 27.9896 43.6307 28.6242 43.8218L32.1268 44.8761C32.7614 45.0671 33.4307 44.7076 33.6217 44.0729L37.9927 29.5527Z" fill="url(#paint21_radial_2843_9101)"/>
<path d="M37.9927 29.5527C38.1837 28.9181 37.8241 28.2488 37.1895 28.0578L33.687 27.0034C33.0524 26.8124 32.383 27.172 32.192 27.8066L27.821 42.3268C27.63 42.9614 27.9896 43.6307 28.6242 43.8218L32.1268 44.8761C32.7614 45.0671 33.4307 44.7076 33.6217 44.0729L37.9927 29.5527Z" fill="url(#paint22_radial_2843_9101)"/>
</g>
<g id="Intersect">
<path d="M8.98077 19.4993C8.91328 17.3755 9.4429 13.9622 13.4562 10.8677C17.6717 7.61728 22.1164 7.35205 23.9328 7.35205C25.7492 7.35205 30.3283 7.61728 34.5438 10.8677C38.5571 13.9622 39.0867 17.3757 39.0192 19.4995C38.9103 21.4178 38.6695 22.7511 38.4788 23.8075L38.4588 23.9179C38.2792 24.914 38.5639 25.8895 39.1602 26.6324L40.1596 21.1087C40.1854 20.9789 40.2091 20.8482 40.2305 20.7173C40.3309 20.1024 40.3828 19.4745 40.3828 18.8364C40.3828 11.2511 33.048 5.10205 24 5.10205C14.952 5.10205 7.61719 11.2511 7.61719 18.8364C7.61719 19.4825 7.6704 20.1182 7.77337 20.7406L7.76953 20.7407L8.84537 26.6255C9.43786 25.8835 9.72021 24.9109 9.54116 23.9179L9.52123 23.8075C9.33046 22.751 9.08969 21.4176 8.98077 19.4993Z" fill="url(#paint23_linear_2843_9101)"/>
<path d="M8.98077 19.4993C8.91328 17.3755 9.4429 13.9622 13.4562 10.8677C17.6717 7.61728 22.1164 7.35205 23.9328 7.35205C25.7492 7.35205 30.3283 7.61728 34.5438 10.8677C38.5571 13.9622 39.0867 17.3757 39.0192 19.4995C38.9103 21.4178 38.6695 22.7511 38.4788 23.8075L38.4588 23.9179C38.2792 24.914 38.5639 25.8895 39.1602 26.6324L40.1596 21.1087C40.1854 20.9789 40.2091 20.8482 40.2305 20.7173C40.3309 20.1024 40.3828 19.4745 40.3828 18.8364C40.3828 11.2511 33.048 5.10205 24 5.10205C14.952 5.10205 7.61719 11.2511 7.61719 18.8364C7.61719 19.4825 7.6704 20.1182 7.77337 20.7406L7.76953 20.7407L8.84537 26.6255C9.43786 25.8835 9.72021 24.9109 9.54116 23.9179L9.52123 23.8075C9.33046 22.751 9.08969 21.4176 8.98077 19.4993Z" fill="url(#paint24_radial_2843_9101)"/>
<path d="M8.98077 19.4993C8.91328 17.3755 9.4429 13.9622 13.4562 10.8677C17.6717 7.61728 22.1164 7.35205 23.9328 7.35205C25.7492 7.35205 30.3283 7.61728 34.5438 10.8677C38.5571 13.9622 39.0867 17.3757 39.0192 19.4995C38.9103 21.4178 38.6695 22.7511 38.4788 23.8075L38.4588 23.9179C38.2792 24.914 38.5639 25.8895 39.1602 26.6324L40.1596 21.1087C40.1854 20.9789 40.2091 20.8482 40.2305 20.7173C40.3309 20.1024 40.3828 19.4745 40.3828 18.8364C40.3828 11.2511 33.048 5.10205 24 5.10205C14.952 5.10205 7.61719 11.2511 7.61719 18.8364C7.61719 19.4825 7.6704 20.1182 7.77337 20.7406L7.76953 20.7407L8.84537 26.6255C9.43786 25.8835 9.72021 24.9109 9.54116 23.9179L9.52123 23.8075C9.33046 22.751 9.08969 21.4176 8.98077 19.4993Z" fill="url(#paint25_linear_2843_9101)"/>
<path d="M8.98077 19.4993C8.91328 17.3755 9.4429 13.9622 13.4562 10.8677C17.6717 7.61728 22.1164 7.35205 23.9328 7.35205C25.7492 7.35205 30.3283 7.61728 34.5438 10.8677C38.5571 13.9622 39.0867 17.3757 39.0192 19.4995C38.9103 21.4178 38.6695 22.7511 38.4788 23.8075L38.4588 23.9179C38.2792 24.914 38.5639 25.8895 39.1602 26.6324L40.1596 21.1087C40.1854 20.9789 40.2091 20.8482 40.2305 20.7173C40.3309 20.1024 40.3828 19.4745 40.3828 18.8364C40.3828 11.2511 33.048 5.10205 24 5.10205C14.952 5.10205 7.61719 11.2511 7.61719 18.8364C7.61719 19.4825 7.6704 20.1182 7.77337 20.7406L7.76953 20.7407L8.84537 26.6255C9.43786 25.8835 9.72021 24.9109 9.54116 23.9179L9.52123 23.8075C9.33046 22.751 9.08969 21.4176 8.98077 19.4993Z" fill="url(#paint26_radial_2843_9101)"/>
</g>
<g id="Intersect_2" filter="url(#filter2_f_2843_9101)">
<path d="M39.2586 25.974C39.2844 25.8442 40.2091 20.8482 40.2305 20.7173C40.3309 20.1024 40.3828 19.4745 40.3828 18.8364C40.3828 11.2511 33.048 5.10205 24 5.10205C14.952 5.10205 7.61719 11.2511 7.61719 18.8364C7.61719 19.4825 7.6704 20.1182 7.77337 20.7406L7.76953 20.7407L8.74529 26.1021" stroke="url(#paint27_linear_2843_9101)" stroke-width="0.1"/>
</g>
<g id="Vector 1016" filter="url(#filter3_f_2843_9101)">
<path d="M40.5881 24.0021C40.4993 24.3395 40.4431 25.105 40.9282 25.4681C41.4133 25.8313 41.7099 26.0817 41.7976 26.1615C42.249 26.4625 43.0109 27.3854 42.4482 28.6688" stroke="#D1D1D3" stroke-width="0.3"/>
</g>
</g>
<defs>
<filter id="filter0_i_2843_9101" x="4.68457" y="2.87158" width="38.8809" height="30.2292" filterUnits="userSpaceOnUse" color-interpolation-filters="sRGB">
<feFlood flood-opacity="0" result="BackgroundImageFix"/>
<feBlend mode="normal" in="SourceGraphic" in2="BackgroundImageFix" result="shape"/>
<feColorMatrix in="SourceAlpha" type="matrix" values="0 0 0 0 0 0 0 0 0 0 0 0 0 0 0 0 0 0 127 0" result="hardAlpha"/>
<feOffset dx="0.25" dy="-0.25"/>
<feGaussianBlur stdDeviation="0.25"/>
<feComposite in2="hardAlpha" operator="arithmetic" k2="-1" k3="1"/>
<feColorMatrix type="matrix" values="0 0 0 0 0.52549 0 0 0 0 0.513726 0 0 0 0 0.541176 0 0 0 1 0"/>
<feBlend mode="normal" in2="shape" result="effect1_innerShadow_2843_9101"/>
</filter>
<filter id="filter1_i_2843_9101" x="31.0051" y="29.1782" width="11.4549" height="15.2342" filterUnits="userSpaceOnUse" color-interpolation-filters="sRGB">
<feFlood flood-opacity="0" result="BackgroundImageFix"/>
<feBlend mode="normal" in="SourceGraphic" in2="BackgroundImageFix" result="shape"/>
<feColorMatrix in="SourceAlpha" type="matrix" values="0 0 0 0 0 0 0 0 0 0 0 0 0 0 0 0 0 0 127 0" result="hardAlpha"/>
<feOffset dx="-0.2" dy="0.2"/>
<feGaussianBlur stdDeviation="0.2"/>
<feComposite in2="hardAlpha" operator="arithmetic" k2="-1" k3="1"/>
<feColorMatrix type="matrix" values="0 0 0 0 0.690196 0 0 0 0 0.686275 0 0 0 0 0.698039 0 0 0 1 0"/>
<feBlend mode="normal" in2="shape" result="effect1_innerShadow_2843_9101"/>
</filter>
<filter id="filter2_f_2843_9101" x="7.36738" y="4.852" width="33.2652" height="21.4591" filterUnits="userSpaceOnUse" color-interpolation-filters="sRGB">
<feFlood flood-opacity="0" result="BackgroundImageFix"/>
<feBlend mode="normal" in="SourceGraphic" in2="BackgroundImageFix" result="shape"/>
<feGaussianBlur stdDeviation="0.1" result="effect1_foregroundBlur_2843_9101"/>
</filter>
<filter id="filter3_f_2843_9101" x="40.0789" y="23.6639" width="3.01895" height="5.36514" filterUnits="userSpaceOnUse" color-interpolation-filters="sRGB">
<feFlood flood-opacity="0" result="BackgroundImageFix"/>
<feBlend mode="normal" in="SourceGraphic" in2="BackgroundImageFix" result="shape"/>
<feGaussianBlur stdDeviation="0.15" result="effect1_foregroundBlur_2843_9101"/>
</filter>
<radialGradient id="paint0_radial_2843_9101" cx="0" cy="0" r="1" gradientUnits="userSpaceOnUse" gradientTransform="translate(35.4282 6.72276) rotate(114.311) scale(25.403 35.1368)">
<stop stop-color="#DADADB"/>
<stop offset="1" stop-color="#B9B5BD"/>
</radialGradient>
<radialGradient id="paint1_radial_2843_9101" cx="0" cy="0" r="1" gradientUnits="userSpaceOnUse" gradientTransform="translate(4.68457 16.2102) rotate(19.2062) scale(14.4174 48.1173)">
<stop offset="0.095751" stop-color="#969499"/>
<stop offset="1" stop-color="#969499" stop-opacity="0"/>
</radialGradient>
<radialGradient id="paint2_radial_2843_9101" cx="0" cy="0" r="1" gradientUnits="userSpaceOnUse" gradientTransform="translate(8.93859 30.8445) rotate(-117.087) scale(4.59121 1.53556)">
<stop offset="0.256074" stop-color="#C6C4C9"/>
<stop offset="1" stop-color="#C6C4C9" stop-opacity="0"/>
</radialGradient>
<radialGradient id="paint3_radial_2843_9101" cx="0" cy="0" r="1" gradientUnits="userSpaceOnUse" gradientTransform="translate(8.75138 31.0941) rotate(-117.35) scale(3.05631 0.879238)">
<stop offset="0.166979" stop-color="#8D8D8F"/>
<stop offset="1" stop-color="#8D8D8F" stop-opacity="0"/>
</radialGradient>
<radialGradient id="paint4_radial_2843_9101" cx="0" cy="0" r="1" gradientUnits="userSpaceOnUse" gradientTransform="translate(33.5266 12.2162) rotate(-54.3815) scale(5.1435 10.0171)">
<stop offset="0.56676" stop-color="#EBEBED"/>
<stop offset="1" stop-color="#EBEBED" stop-opacity="0"/>
</radialGradient>
<linearGradient id="paint5_linear_2843_9101" x1="41.8266" y1="32.1238" x2="40.6409" y2="28.005" gradientUnits="userSpaceOnUse">
<stop offset="0.326903" stop-color="#B1B0B4"/>
<stop offset="1" stop-color="#B1B0B4" stop-opacity="0"/>
</linearGradient>
<linearGradient id="paint6_linear_2843_9101" x1="7.59686" y1="32.1489" x2="11.1432" y2="44.2124" gradientUnits="userSpaceOnUse">
<stop stop-color="#A6A0AA"/>
<stop offset="1" stop-color="#9D94A2"/>
</linearGradient>
<linearGradient id="paint7_linear_2843_9101" x1="12.2269" y1="44.2124" x2="11.1432" y2="40.4328" gradientUnits="userSpaceOnUse">
<stop stop-color="#998E9E"/>
<stop offset="1" stop-color="#998E9E" stop-opacity="0"/>
</linearGradient>
<radialGradient id="paint8_radial_2843_9101" cx="0" cy="0" r="1" gradientUnits="userSpaceOnUse" gradientTransform="translate(5.51563 33.0864) rotate(75.1074) scale(13.3872 1.59428)">
<stop stop-color="#817F83"/>
<stop offset="1" stop-color="#817F83" stop-opacity="0"/>
</radialGradient>
<linearGradient id="paint9_linear_2843_9101" x1="6.79998" y1="29.9926" x2="8.81561" y2="34.727" gradientUnits="userSpaceOnUse">
<stop stop-color="#7F7E80"/>
<stop offset="1" stop-color="#7F7E80" stop-opacity="0"/>
</linearGradient>
<linearGradient id="paint10_linear_2843_9101" x1="12.8361" y1="36.2191" x2="10.5008" y2="36.9806" gradientUnits="userSpaceOnUse">
<stop offset="0.181858" stop-color="#807D84"/>
<stop offset="1" stop-color="#807D84" stop-opacity="0"/>
</linearGradient>
<linearGradient id="paint11_linear_2843_9101" x1="40.7379" y1="31.2114" x2="36.8324" y2="44.2124" gradientUnits="userSpaceOnUse">
<stop stop-color="#BAB9BC"/>
<stop offset="1" stop-color="#9F96A4"/>
</linearGradient>
<linearGradient id="paint12_linear_2843_9101" x1="34.8786" y1="44.2124" x2="37.7379" y2="39.602" gradientUnits="userSpaceOnUse">
<stop stop-color="#9A8F9F"/>
<stop offset="1" stop-color="#9A8F9F" stop-opacity="0"/>
</linearGradient>
<radialGradient id="paint13_radial_2843_9101" cx="0" cy="0" r="1" gradientUnits="userSpaceOnUse" gradientTransform="translate(41.5114 34.0942) rotate(106.376) scale(5.5697 1.02196)">
<stop stop-color="#C7C6C8"/>
<stop offset="1" stop-color="#BAB8BC" stop-opacity="0"/>
</radialGradient>
<radialGradient id="paint14_radial_2843_9101" cx="0" cy="0" r="1" gradientUnits="userSpaceOnUse" gradientTransform="translate(35.5348 34.0239) rotate(19.7468) scale(5.82704 3.84051)">
<stop stop-color="#C1BFC3"/>
<stop offset="1" stop-color="#C1BFC3" stop-opacity="0"/>
</radialGradient>
<linearGradient id="paint15_linear_2843_9101" x1="11.9564" y1="27.6021" x2="17.5814" y2="46.3521" gradientUnits="userSpaceOnUse">
<stop stop-color="#B7B6B8"/>
<stop offset="0.321101" stop-color="#D9D5DD"/>
<stop offset="0.681651" stop-color="#D9D5DD"/>
<stop offset="1" stop-color="#CDC1D4"/>
</linearGradient>
<radialGradient id="paint16_radial_2843_9101" cx="0" cy="0" r="1" gradientUnits="userSpaceOnUse" gradientTransform="translate(9.28455 28.3053) rotate(72.755) scale(24.9824 2.06967)">
<stop stop-color="#A4A2A6"/>
<stop offset="1" stop-color="#C5BACF" stop-opacity="0"/>
</radialGradient>
<radialGradient id="paint17_radial_2843_9101" cx="0" cy="0" r="1" gradientUnits="userSpaceOnUse" gradientTransform="translate(17.3002 33.9303) rotate(162.646) scale(1.57154 14.4864)">
<stop offset="0.261566" stop-color="#F6F4F7"/>
<stop offset="1" stop-color="#E6E1EA" stop-opacity="0"/>
</radialGradient>
<linearGradient id="paint18_linear_2843_9101" x1="18.2142" y1="36.1803" x2="17.4174" y2="36.3912" gradientUnits="userSpaceOnUse">
<stop offset="0.133145" stop-color="#DBD9DE"/>
<stop offset="1" stop-color="#DBD9DE" stop-opacity="0"/>
</linearGradient>
<linearGradient id="paint19_linear_2843_9101" x1="36.5659" y1="27.4615" x2="30.144" y2="46.6803" gradientUnits="userSpaceOnUse">
<stop stop-color="#DAD9DB"/>
<stop offset="0.399322" stop-color="#DEDDE1"/>
<stop offset="0.961979" stop-color="#C7B9CF"/>
</linearGradient>
<linearGradient id="paint20_linear_2843_9101" x1="35.9096" y1="27.274" x2="34.9252" y2="30.4146" gradientUnits="userSpaceOnUse">
<stop offset="0.10868" stop-color="#C9C9CA"/>
<stop offset="1" stop-color="#C9C9CA" stop-opacity="0"/>
</linearGradient>
<radialGradient id="paint21_radial_2843_9101" cx="0" cy="0" r="1" gradientUnits="userSpaceOnUse" gradientTransform="translate(30.5659 32.4771) rotate(15.7807) scale(2.2407 23.9365)">
<stop offset="0.205252" stop-color="#A4A3A6"/>
<stop offset="1" stop-color="#CECAD3" stop-opacity="0"/>
</radialGradient>
<radialGradient id="paint22_radial_2843_9101" cx="0" cy="0" r="1" gradientUnits="userSpaceOnUse" gradientTransform="translate(36.3549 32.6646) rotate(105.977) scale(5.87538 0.936909)">
<stop offset="0.151268" stop-color="#F5F3F7"/>
<stop offset="1" stop-color="#E8E4EC" stop-opacity="0"/>
</radialGradient>
<linearGradient id="paint23_linear_2843_9101" x1="9.14373" y1="25.4927" x2="26.1125" y2="3.74267" gradientUnits="userSpaceOnUse">
<stop stop-color="#CDCBCF"/>
<stop offset="1" stop-color="#BEB5C7"/>
</linearGradient>
<radialGradient id="paint24_radial_2843_9101" cx="0" cy="0" r="1" gradientUnits="userSpaceOnUse" gradientTransform="translate(33.9406 12.8833) rotate(-88.0363) scale(8.20794 25.2521)">
<stop offset="0.172043" stop-color="#AFA7B6"/>
<stop offset="1" stop-color="#AFA7B6" stop-opacity="0"/>
</radialGradient>
<linearGradient id="paint25_linear_2843_9101" x1="39.4719" y1="26.6324" x2="34.3156" y2="14.0083" gradientUnits="userSpaceOnUse">
<stop stop-color="#9B99A0"/>
<stop offset="1" stop-color="#9B99A0" stop-opacity="0"/>
</linearGradient>
<radialGradient id="paint26_radial_2843_9101" cx="0" cy="0" r="1" gradientUnits="userSpaceOnUse" gradientTransform="translate(9.42498 27.7895) rotate(-88.9949) scale(5.34457 8.13356)">
<stop stop-color="#A5A2A9"/>
<stop offset="1" stop-color="#A5A2A9" stop-opacity="0"/>
</radialGradient>
<linearGradient id="paint27_linear_2843_9101" x1="15.0969" y1="10.6333" x2="37.6906" y2="10.7271" gradientUnits="userSpaceOnUse">
<stop stop-color="#CFC9D4"/>
<stop offset="1" stop-color="#DFDDE3"/>
</linearGradient>
</defs>
</svg>
