<svg width="48" height="48" viewBox="0 0 48 48" fill="none" xmlns="http://www.w3.org/2000/svg">
<g id="Mobile phone">
<g id="Rectangle 561">
<rect x="9.04688" y="3.05176" width="29.9062" height="41.8828" rx="2.6" fill="url(#paint0_linear_2843_2413)"/>
<rect x="9.04688" y="3.05176" width="29.9062" height="41.8828" rx="2.6" fill="url(#paint1_linear_2843_2413)"/>
</g>
<g id="Rectangle 562" filter="url(#filter0_ii_2843_2413)">
<path d="M13.8047 13.6197C13.8047 13.1227 14.2076 12.7197 14.7047 12.7197H17.8734C18.3705 12.7197 18.7734 13.1227 18.7734 13.6197V16.7885C18.7734 17.2855 18.3705 17.6885 17.8734 17.6885H14.7047C14.2076 17.6885 13.8047 17.2855 13.8047 16.7885V13.6197Z" fill="#FF9544"/>
<path d="M13.8047 13.6197C13.8047 13.1227 14.2076 12.7197 14.7047 12.7197H17.8734C18.3705 12.7197 18.7734 13.1227 18.7734 13.6197V16.7885C18.7734 17.2855 18.3705 17.6885 17.8734 17.6885H14.7047C14.2076 17.6885 13.8047 17.2855 13.8047 16.7885V13.6197Z" fill="url(#paint2_linear_2843_2413)"/>
</g>
<g id="Rectangle 563" filter="url(#filter1_ii_2843_2413)">
<path d="M21.5156 13.6197C21.5156 13.1227 21.9186 12.7197 22.4156 12.7197H25.5844C26.0814 12.7197 26.4844 13.1227 26.4844 13.6197V16.7885C26.4844 17.2855 26.0814 17.6885 25.5844 17.6885H22.4156C21.9186 17.6885 21.5156 17.2855 21.5156 16.7885V13.6197Z" fill="#38C6FF"/>
</g>
<g id="Rectangle 564" filter="url(#filter2_ii_2843_2413)">
<path d="M29.2266 13.6197C29.2266 13.1227 29.6295 12.7197 30.1266 12.7197H33.2953C33.7924 12.7197 34.1953 13.1227 34.1953 13.6197V16.7885C34.1953 17.2855 33.7924 17.6885 33.2953 17.6885H30.1266C29.6295 17.6885 29.2266 17.2855 29.2266 16.7885V13.6197Z" fill="#FFEC58"/>
</g>
<g id="Rectangle 565" filter="url(#filter3_ii_2843_2413)">
<path d="M13.8047 22.4088C13.8047 21.9117 14.2076 21.5088 14.7047 21.5088H17.8734C18.3705 21.5088 18.7734 21.9117 18.7734 22.4088V25.5775C18.7734 26.0746 18.3705 26.4775 17.8734 26.4775H14.7047C14.2076 26.4775 13.8047 26.0746 13.8047 25.5775V22.4088Z" fill="#38C6FF"/>
</g>
<g id="Rectangle 568" filter="url(#filter4_ii_2843_2413)">
<path d="M13.8047 31.1979C13.8047 30.7008 14.2076 30.2979 14.7047 30.2979H17.8734C18.3705 30.2979 18.7734 30.7008 18.7734 31.1979V34.3666C18.7734 34.8637 18.3705 35.2666 17.8734 35.2666H14.7047C14.2076 35.2666 13.8047 34.8637 13.8047 34.3666V31.1979Z" fill="#FF9544"/>
<path d="M13.8047 31.1979C13.8047 30.7008 14.2076 30.2979 14.7047 30.2979H17.8734C18.3705 30.2979 18.7734 30.7008 18.7734 31.1979V34.3666C18.7734 34.8637 18.3705 35.2666 17.8734 35.2666H14.7047C14.2076 35.2666 13.8047 34.8637 13.8047 34.3666V31.1979Z" fill="url(#paint3_linear_2843_2413)"/>
</g>
<g id="Rectangle 566" filter="url(#filter5_ii_2843_2413)">
<path d="M21.5156 22.4088C21.5156 21.9117 21.9186 21.5088 22.4156 21.5088H25.5844C26.0814 21.5088 26.4844 21.9117 26.4844 22.4088V25.5775C26.4844 26.0746 26.0814 26.4775 25.5844 26.4775H22.4156C21.9186 26.4775 21.5156 26.0746 21.5156 25.5775V22.4088Z" fill="#FFEC58"/>
</g>
<g id="Rectangle 569" filter="url(#filter6_ii_2843_2413)">
<path d="M21.5156 31.1979C21.5156 30.7008 21.9186 30.2979 22.4156 30.2979H25.5844C26.0814 30.2979 26.4844 30.7008 26.4844 31.1979V34.3666C26.4844 34.8637 26.0814 35.2666 25.5844 35.2666H22.4156C21.9186 35.2666 21.5156 34.8637 21.5156 34.3666V31.1979Z" fill="#38C6FF"/>
</g>
<g id="Rectangle 567" filter="url(#filter7_ii_2843_2413)">
<path d="M29.2266 22.4088C29.2266 21.9117 29.6295 21.5088 30.1266 21.5088H33.2953C33.7924 21.5088 34.1953 21.9117 34.1953 22.4088V25.5775C34.1953 26.0746 33.7924 26.4775 33.2953 26.4775H30.1266C29.6295 26.4775 29.2266 26.0746 29.2266 25.5775V22.4088Z" fill="#FF9544"/>
<path d="M29.2266 22.4088C29.2266 21.9117 29.6295 21.5088 30.1266 21.5088H33.2953C33.7924 21.5088 34.1953 21.9117 34.1953 22.4088V25.5775C34.1953 26.0746 33.7924 26.4775 33.2953 26.4775H30.1266C29.6295 26.4775 29.2266 26.0746 29.2266 25.5775V22.4088Z" fill="url(#paint4_linear_2843_2413)"/>
</g>
<g id="Rectangle 570" filter="url(#filter8_ii_2843_2413)">
<path d="M29.2266 31.1979C29.2266 30.7008 29.6295 30.2979 30.1266 30.2979H33.2953C33.7924 30.2979 34.1953 30.7008 34.1953 31.1979V34.3666C34.1953 34.8637 33.7924 35.2666 33.2953 35.2666H30.1266C29.6295 35.2666 29.2266 34.8637 29.2266 34.3666V31.1979Z" fill="#FFEC58"/>
</g>
<g id="Rectangle 571" filter="url(#filter9_f_2843_2413)">
<rect x="35.5312" y="8.39551" width="2.29688" height="32.7656" fill="url(#paint5_linear_2843_2413)"/>
</g>
<g id="Intersect" filter="url(#filter10_i_2843_2413)">
<path d="M38.9531 9.23926H9.04688V6.95177C9.04688 4.79785 10.793 3.05176 12.9469 3.05176H35.0531C37.207 3.05176 38.9531 4.79785 38.9531 6.95177V9.23926Z" fill="url(#paint6_linear_2843_2413)"/>
<path d="M38.9531 9.23926H9.04688V6.95177C9.04688 4.79785 10.793 3.05176 12.9469 3.05176H35.0531C37.207 3.05176 38.9531 4.79785 38.9531 6.95177V9.23926Z" fill="url(#paint7_linear_2843_2413)"/>
<path d="M38.9531 9.23926H9.04688V6.95177C9.04688 4.79785 10.793 3.05176 12.9469 3.05176H35.0531C37.207 3.05176 38.9531 4.79785 38.9531 6.95177V9.23926Z" fill="url(#paint8_linear_2843_2413)"/>
<path d="M38.9531 9.23926H9.04688V6.95177C9.04688 4.79785 10.793 3.05176 12.9469 3.05176H35.0531C37.207 3.05176 38.9531 4.79785 38.9531 6.95177V9.23926Z" fill="url(#paint9_linear_2843_2413)"/>
<path d="M38.9531 9.23926H9.04688V6.95177C9.04688 4.79785 10.793 3.05176 12.9469 3.05176H35.0531C37.207 3.05176 38.9531 4.79785 38.9531 6.95177V9.23926Z" fill="url(#paint10_radial_2843_2413)"/>
</g>
<g id="Intersect_2">
<path d="M38.9531 38.8174V41.0346C38.9531 43.1885 37.207 44.9346 35.0531 44.9346H12.9469C10.793 44.9346 9.04688 43.1885 9.04688 41.0346V38.8174H38.9531Z" fill="url(#paint11_linear_2843_2413)"/>
<path d="M38.9531 38.8174V41.0346C38.9531 43.1885 37.207 44.9346 35.0531 44.9346H12.9469C10.793 44.9346 9.04688 43.1885 9.04688 41.0346V38.8174H38.9531Z" fill="url(#paint12_linear_2843_2413)"/>
<path d="M38.9531 38.8174V41.0346C38.9531 43.1885 37.207 44.9346 35.0531 44.9346H12.9469C10.793 44.9346 9.04688 43.1885 9.04688 41.0346V38.8174H38.9531Z" fill="url(#paint13_radial_2843_2413)"/>
<path d="M38.9531 38.8174V41.0346C38.9531 43.1885 37.207 44.9346 35.0531 44.9346H12.9469C10.793 44.9346 9.04688 43.1885 9.04688 41.0346V38.8174H38.9531Z" fill="url(#paint14_linear_2843_2413)"/>
</g>
</g>
<defs>
<filter id="filter0_ii_2843_2413" x="13.5047" y="12.4197" width="5.56875" height="5.56875" filterUnits="userSpaceOnUse" color-interpolation-filters="sRGB">
<feFlood flood-opacity="0" result="BackgroundImageFix"/>
<feBlend mode="normal" in="SourceGraphic" in2="BackgroundImageFix" result="shape"/>
<feColorMatrix in="SourceAlpha" type="matrix" values="0 0 0 0 0 0 0 0 0 0 0 0 0 0 0 0 0 0 127 0" result="hardAlpha"/>
<feOffset dx="-0.3" dy="-0.3"/>
<feGaussianBlur stdDeviation="0.2"/>
<feComposite in2="hardAlpha" operator="arithmetic" k2="-1" k3="1"/>
<feColorMatrix type="matrix" values="0 0 0 0 0.913725 0 0 0 0 0.384314 0 0 0 0 0.129412 0 0 0 1 0"/>
<feBlend mode="normal" in2="shape" result="effect1_innerShadow_2843_2413"/>
<feColorMatrix in="SourceAlpha" type="matrix" values="0 0 0 0 0 0 0 0 0 0 0 0 0 0 0 0 0 0 127 0" result="hardAlpha"/>
<feOffset dx="0.3" dy="0.3"/>
<feGaussianBlur stdDeviation="0.2"/>
<feComposite in2="hardAlpha" operator="arithmetic" k2="-1" k3="1"/>
<feColorMatrix type="matrix" values="0 0 0 0 1 0 0 0 0 0.498039 0 0 0 0 0.160784 0 0 0 1 0"/>
<feBlend mode="normal" in2="effect1_innerShadow_2843_2413" result="effect2_innerShadow_2843_2413"/>
</filter>
<filter id="filter1_ii_2843_2413" x="21.2156" y="12.4197" width="5.56875" height="5.56875" filterUnits="userSpaceOnUse" color-interpolation-filters="sRGB">
<feFlood flood-opacity="0" result="BackgroundImageFix"/>
<feBlend mode="normal" in="SourceGraphic" in2="BackgroundImageFix" result="shape"/>
<feColorMatrix in="SourceAlpha" type="matrix" values="0 0 0 0 0 0 0 0 0 0 0 0 0 0 0 0 0 0 127 0" result="hardAlpha"/>
<feOffset dx="-0.3" dy="-0.3"/>
<feGaussianBlur stdDeviation="0.25"/>
<feComposite in2="hardAlpha" operator="arithmetic" k2="-1" k3="1"/>
<feColorMatrix type="matrix" values="0 0 0 0 0.0980392 0 0 0 0 0.572549 0 0 0 0 0.866667 0 0 0 1 0"/>
<feBlend mode="normal" in2="shape" result="effect1_innerShadow_2843_2413"/>
<feColorMatrix in="SourceAlpha" type="matrix" values="0 0 0 0 0 0 0 0 0 0 0 0 0 0 0 0 0 0 127 0" result="hardAlpha"/>
<feOffset dx="0.3" dy="0.3"/>
<feGaussianBlur stdDeviation="0.2"/>
<feComposite in2="hardAlpha" operator="arithmetic" k2="-1" k3="1"/>
<feColorMatrix type="matrix" values="0 0 0 0 0.0745098 0 0 0 0 0.709804 0 0 0 0 1 0 0 0 1 0"/>
<feBlend mode="normal" in2="effect1_innerShadow_2843_2413" result="effect2_innerShadow_2843_2413"/>
</filter>
<filter id="filter2_ii_2843_2413" x="28.9266" y="12.4197" width="5.56875" height="5.56875" filterUnits="userSpaceOnUse" color-interpolation-filters="sRGB">
<feFlood flood-opacity="0" result="BackgroundImageFix"/>
<feBlend mode="normal" in="SourceGraphic" in2="BackgroundImageFix" result="shape"/>
<feColorMatrix in="SourceAlpha" type="matrix" values="0 0 0 0 0 0 0 0 0 0 0 0 0 0 0 0 0 0 127 0" result="hardAlpha"/>
<feOffset dx="-0.3" dy="-0.3"/>
<feGaussianBlur stdDeviation="0.25"/>
<feComposite in2="hardAlpha" operator="arithmetic" k2="-1" k3="1"/>
<feColorMatrix type="matrix" values="0 0 0 0 0.858824 0 0 0 0 0.752941 0 0 0 0 0.188235 0 0 0 1 0"/>
<feBlend mode="normal" in2="shape" result="effect1_innerShadow_2843_2413"/>
<feColorMatrix in="SourceAlpha" type="matrix" values="0 0 0 0 0 0 0 0 0 0 0 0 0 0 0 0 0 0 127 0" result="hardAlpha"/>
<feOffset dx="0.3" dy="0.3"/>
<feGaussianBlur stdDeviation="0.2"/>
<feComposite in2="hardAlpha" operator="arithmetic" k2="-1" k3="1"/>
<feColorMatrix type="matrix" values="0 0 0 0 0.968627 0 0 0 0 0.858824 0 0 0 0 0.223529 0 0 0 1 0"/>
<feBlend mode="normal" in2="effect1_innerShadow_2843_2413" result="effect2_innerShadow_2843_2413"/>
</filter>
<filter id="filter3_ii_2843_2413" x="13.5047" y="21.2088" width="5.56875" height="5.56875" filterUnits="userSpaceOnUse" color-interpolation-filters="sRGB">
<feFlood flood-opacity="0" result="BackgroundImageFix"/>
<feBlend mode="normal" in="SourceGraphic" in2="BackgroundImageFix" result="shape"/>
<feColorMatrix in="SourceAlpha" type="matrix" values="0 0 0 0 0 0 0 0 0 0 0 0 0 0 0 0 0 0 127 0" result="hardAlpha"/>
<feOffset dx="-0.3" dy="-0.3"/>
<feGaussianBlur stdDeviation="0.25"/>
<feComposite in2="hardAlpha" operator="arithmetic" k2="-1" k3="1"/>
<feColorMatrix type="matrix" values="0 0 0 0 0.0980392 0 0 0 0 0.572549 0 0 0 0 0.866667 0 0 0 1 0"/>
<feBlend mode="normal" in2="shape" result="effect1_innerShadow_2843_2413"/>
<feColorMatrix in="SourceAlpha" type="matrix" values="0 0 0 0 0 0 0 0 0 0 0 0 0 0 0 0 0 0 127 0" result="hardAlpha"/>
<feOffset dx="0.3" dy="0.3"/>
<feGaussianBlur stdDeviation="0.2"/>
<feComposite in2="hardAlpha" operator="arithmetic" k2="-1" k3="1"/>
<feColorMatrix type="matrix" values="0 0 0 0 0.0745098 0 0 0 0 0.709804 0 0 0 0 1 0 0 0 1 0"/>
<feBlend mode="normal" in2="effect1_innerShadow_2843_2413" result="effect2_innerShadow_2843_2413"/>
</filter>
<filter id="filter4_ii_2843_2413" x="13.5047" y="29.9979" width="5.56875" height="5.56875" filterUnits="userSpaceOnUse" color-interpolation-filters="sRGB">
<feFlood flood-opacity="0" result="BackgroundImageFix"/>
<feBlend mode="normal" in="SourceGraphic" in2="BackgroundImageFix" result="shape"/>
<feColorMatrix in="SourceAlpha" type="matrix" values="0 0 0 0 0 0 0 0 0 0 0 0 0 0 0 0 0 0 127 0" result="hardAlpha"/>
<feOffset dx="-0.3" dy="-0.3"/>
<feGaussianBlur stdDeviation="0.2"/>
<feComposite in2="hardAlpha" operator="arithmetic" k2="-1" k3="1"/>
<feColorMatrix type="matrix" values="0 0 0 0 0.913725 0 0 0 0 0.384314 0 0 0 0 0.129412 0 0 0 1 0"/>
<feBlend mode="normal" in2="shape" result="effect1_innerShadow_2843_2413"/>
<feColorMatrix in="SourceAlpha" type="matrix" values="0 0 0 0 0 0 0 0 0 0 0 0 0 0 0 0 0 0 127 0" result="hardAlpha"/>
<feOffset dx="0.3" dy="0.3"/>
<feGaussianBlur stdDeviation="0.2"/>
<feComposite in2="hardAlpha" operator="arithmetic" k2="-1" k3="1"/>
<feColorMatrix type="matrix" values="0 0 0 0 1 0 0 0 0 0.498039 0 0 0 0 0.160784 0 0 0 1 0"/>
<feBlend mode="normal" in2="effect1_innerShadow_2843_2413" result="effect2_innerShadow_2843_2413"/>
</filter>
<filter id="filter5_ii_2843_2413" x="21.2156" y="21.2088" width="5.56875" height="5.56875" filterUnits="userSpaceOnUse" color-interpolation-filters="sRGB">
<feFlood flood-opacity="0" result="BackgroundImageFix"/>
<feBlend mode="normal" in="SourceGraphic" in2="BackgroundImageFix" result="shape"/>
<feColorMatrix in="SourceAlpha" type="matrix" values="0 0 0 0 0 0 0 0 0 0 0 0 0 0 0 0 0 0 127 0" result="hardAlpha"/>
<feOffset dx="-0.3" dy="-0.3"/>
<feGaussianBlur stdDeviation="0.25"/>
<feComposite in2="hardAlpha" operator="arithmetic" k2="-1" k3="1"/>
<feColorMatrix type="matrix" values="0 0 0 0 0.858824 0 0 0 0 0.752941 0 0 0 0 0.188235 0 0 0 1 0"/>
<feBlend mode="normal" in2="shape" result="effect1_innerShadow_2843_2413"/>
<feColorMatrix in="SourceAlpha" type="matrix" values="0 0 0 0 0 0 0 0 0 0 0 0 0 0 0 0 0 0 127 0" result="hardAlpha"/>
<feOffset dx="0.3" dy="0.3"/>
<feGaussianBlur stdDeviation="0.2"/>
<feComposite in2="hardAlpha" operator="arithmetic" k2="-1" k3="1"/>
<feColorMatrix type="matrix" values="0 0 0 0 0.968627 0 0 0 0 0.858824 0 0 0 0 0.223529 0 0 0 1 0"/>
<feBlend mode="normal" in2="effect1_innerShadow_2843_2413" result="effect2_innerShadow_2843_2413"/>
</filter>
<filter id="filter6_ii_2843_2413" x="21.2156" y="29.9979" width="5.56875" height="5.56875" filterUnits="userSpaceOnUse" color-interpolation-filters="sRGB">
<feFlood flood-opacity="0" result="BackgroundImageFix"/>
<feBlend mode="normal" in="SourceGraphic" in2="BackgroundImageFix" result="shape"/>
<feColorMatrix in="SourceAlpha" type="matrix" values="0 0 0 0 0 0 0 0 0 0 0 0 0 0 0 0 0 0 127 0" result="hardAlpha"/>
<feOffset dx="-0.3" dy="-0.3"/>
<feGaussianBlur stdDeviation="0.25"/>
<feComposite in2="hardAlpha" operator="arithmetic" k2="-1" k3="1"/>
<feColorMatrix type="matrix" values="0 0 0 0 0.0980392 0 0 0 0 0.572549 0 0 0 0 0.866667 0 0 0 1 0"/>
<feBlend mode="normal" in2="shape" result="effect1_innerShadow_2843_2413"/>
<feColorMatrix in="SourceAlpha" type="matrix" values="0 0 0 0 0 0 0 0 0 0 0 0 0 0 0 0 0 0 127 0" result="hardAlpha"/>
<feOffset dx="0.3" dy="0.3"/>
<feGaussianBlur stdDeviation="0.2"/>
<feComposite in2="hardAlpha" operator="arithmetic" k2="-1" k3="1"/>
<feColorMatrix type="matrix" values="0 0 0 0 0.0745098 0 0 0 0 0.709804 0 0 0 0 1 0 0 0 1 0"/>
<feBlend mode="normal" in2="effect1_innerShadow_2843_2413" result="effect2_innerShadow_2843_2413"/>
</filter>
<filter id="filter7_ii_2843_2413" x="28.9266" y="21.2088" width="5.56875" height="5.56875" filterUnits="userSpaceOnUse" color-interpolation-filters="sRGB">
<feFlood flood-opacity="0" result="BackgroundImageFix"/>
<feBlend mode="normal" in="SourceGraphic" in2="BackgroundImageFix" result="shape"/>
<feColorMatrix in="SourceAlpha" type="matrix" values="0 0 0 0 0 0 0 0 0 0 0 0 0 0 0 0 0 0 127 0" result="hardAlpha"/>
<feOffset dx="-0.3" dy="-0.3"/>
<feGaussianBlur stdDeviation="0.2"/>
<feComposite in2="hardAlpha" operator="arithmetic" k2="-1" k3="1"/>
<feColorMatrix type="matrix" values="0 0 0 0 0.913725 0 0 0 0 0.384314 0 0 0 0 0.129412 0 0 0 1 0"/>
<feBlend mode="normal" in2="shape" result="effect1_innerShadow_2843_2413"/>
<feColorMatrix in="SourceAlpha" type="matrix" values="0 0 0 0 0 0 0 0 0 0 0 0 0 0 0 0 0 0 127 0" result="hardAlpha"/>
<feOffset dx="0.3" dy="0.3"/>
<feGaussianBlur stdDeviation="0.2"/>
<feComposite in2="hardAlpha" operator="arithmetic" k2="-1" k3="1"/>
<feColorMatrix type="matrix" values="0 0 0 0 1 0 0 0 0 0.498039 0 0 0 0 0.160784 0 0 0 1 0"/>
<feBlend mode="normal" in2="effect1_innerShadow_2843_2413" result="effect2_innerShadow_2843_2413"/>
</filter>
<filter id="filter8_ii_2843_2413" x="28.9266" y="29.9979" width="5.56875" height="5.56875" filterUnits="userSpaceOnUse" color-interpolation-filters="sRGB">
<feFlood flood-opacity="0" result="BackgroundImageFix"/>
<feBlend mode="normal" in="SourceGraphic" in2="BackgroundImageFix" result="shape"/>
<feColorMatrix in="SourceAlpha" type="matrix" values="0 0 0 0 0 0 0 0 0 0 0 0 0 0 0 0 0 0 127 0" result="hardAlpha"/>
<feOffset dx="-0.3" dy="-0.3"/>
<feGaussianBlur stdDeviation="0.25"/>
<feComposite in2="hardAlpha" operator="arithmetic" k2="-1" k3="1"/>
<feColorMatrix type="matrix" values="0 0 0 0 0.858824 0 0 0 0 0.752941 0 0 0 0 0.188235 0 0 0 1 0"/>
<feBlend mode="normal" in2="shape" result="effect1_innerShadow_2843_2413"/>
<feColorMatrix in="SourceAlpha" type="matrix" values="0 0 0 0 0 0 0 0 0 0 0 0 0 0 0 0 0 0 127 0" result="hardAlpha"/>
<feOffset dx="0.3" dy="0.3"/>
<feGaussianBlur stdDeviation="0.2"/>
<feComposite in2="hardAlpha" operator="arithmetic" k2="-1" k3="1"/>
<feColorMatrix type="matrix" values="0 0 0 0 0.968627 0 0 0 0 0.858824 0 0 0 0 0.223529 0 0 0 1 0"/>
<feBlend mode="normal" in2="effect1_innerShadow_2843_2413" result="effect2_innerShadow_2843_2413"/>
</filter>
<filter id="filter9_f_2843_2413" x="34.5312" y="7.39551" width="4.29688" height="34.7656" filterUnits="userSpaceOnUse" color-interpolation-filters="sRGB">
<feFlood flood-opacity="0" result="BackgroundImageFix"/>
<feBlend mode="normal" in="SourceGraphic" in2="BackgroundImageFix" result="shape"/>
<feGaussianBlur stdDeviation="0.5" result="effect1_foregroundBlur_2843_2413"/>
</filter>
<filter id="filter10_i_2843_2413" x="9.04688" y="3.05176" width="29.9062" height="6.2875" filterUnits="userSpaceOnUse" color-interpolation-filters="sRGB">
<feFlood flood-opacity="0" result="BackgroundImageFix"/>
<feBlend mode="normal" in="SourceGraphic" in2="BackgroundImageFix" result="shape"/>
<feColorMatrix in="SourceAlpha" type="matrix" values="0 0 0 0 0 0 0 0 0 0 0 0 0 0 0 0 0 0 127 0" result="hardAlpha"/>
<feOffset dy="0.1"/>
<feGaussianBlur stdDeviation="0.375"/>
<feComposite in2="hardAlpha" operator="arithmetic" k2="-1" k3="1"/>
<feColorMatrix type="matrix" values="0 0 0 0 0.380392 0 0 0 0 0.407843 0 0 0 0 0.666667 0 0 0 1 0"/>
<feBlend mode="normal" in2="shape" result="effect1_innerShadow_2843_2413"/>
</filter>
<linearGradient id="paint0_linear_2843_2413" x1="24" y1="11.1611" x2="24" y2="39.0049" gradientUnits="userSpaceOnUse">
<stop stop-color="#62326D"/>
<stop offset="1" stop-color="#434486"/>
</linearGradient>
<linearGradient id="paint1_linear_2843_2413" x1="9.04687" y1="32.7236" x2="12.5156" y2="32.8174" gradientUnits="userSpaceOnUse">
<stop offset="0.03125" stop-color="#412C4C"/>
<stop offset="1" stop-color="#412C4C" stop-opacity="0"/>
</linearGradient>
<linearGradient id="paint2_linear_2843_2413" x1="14.0391" y1="16.4346" x2="15.6094" y2="16.4346" gradientUnits="userSpaceOnUse">
<stop offset="0.333333" stop-color="#FF945C"/>
<stop offset="1" stop-color="#FF945C" stop-opacity="0"/>
</linearGradient>
<linearGradient id="paint3_linear_2843_2413" x1="14.0391" y1="34.0127" x2="15.6094" y2="34.0127" gradientUnits="userSpaceOnUse">
<stop offset="0.333333" stop-color="#FF945C"/>
<stop offset="1" stop-color="#FF945C" stop-opacity="0"/>
</linearGradient>
<linearGradient id="paint4_linear_2843_2413" x1="29.4609" y1="25.2236" x2="31.0312" y2="25.2236" gradientUnits="userSpaceOnUse">
<stop offset="0.333333" stop-color="#FF945C"/>
<stop offset="1" stop-color="#FF945C" stop-opacity="0"/>
</linearGradient>
<linearGradient id="paint5_linear_2843_2413" x1="36.6797" y1="8.39551" x2="36.6797" y2="41.1611" gradientUnits="userSpaceOnUse">
<stop stop-color="#674876"/>
<stop offset="1" stop-color="#555187"/>
</linearGradient>
<linearGradient id="paint6_linear_2843_2413" x1="24" y1="3.05176" x2="24" y2="9.23926" gradientUnits="userSpaceOnUse">
<stop stop-color="#636AB6"/>
<stop offset="1" stop-color="#6C6EBE"/>
</linearGradient>
<linearGradient id="paint7_linear_2843_2413" x1="25.7344" y1="9.47363" x2="25.7344" y2="8.44238" gradientUnits="userSpaceOnUse">
<stop stop-color="#6062B1"/>
<stop offset="1" stop-color="#6062B1" stop-opacity="0"/>
</linearGradient>
<linearGradient id="paint8_linear_2843_2413" x1="9.04688" y1="9.23926" x2="13.875" y2="9.23926" gradientUnits="userSpaceOnUse">
<stop offset="0.135922" stop-color="#484B86"/>
<stop offset="1" stop-color="#5E61AD" stop-opacity="0"/>
</linearGradient>
<linearGradient id="paint9_linear_2843_2413" x1="38.9531" y1="9.23926" x2="34.5469" y2="9.23926" gradientUnits="userSpaceOnUse">
<stop offset="0.12766" stop-color="#7277C8"/>
<stop offset="1" stop-color="#7277C8" stop-opacity="0"/>
</linearGradient>
<radialGradient id="paint10_radial_2843_2413" cx="0" cy="0" r="1" gradientUnits="userSpaceOnUse" gradientTransform="translate(38.9531 8.81738) rotate(-180) scale(0.984374 4.75781)">
<stop stop-color="#6C6FB4"/>
<stop offset="1" stop-color="#6C6FB4" stop-opacity="0"/>
</radialGradient>
<linearGradient id="paint11_linear_2843_2413" x1="24" y1="38.8174" x2="24" y2="44.9346" gradientUnits="userSpaceOnUse">
<stop stop-color="#6B4390"/>
<stop offset="1" stop-color="#76509E"/>
</linearGradient>
<linearGradient id="paint12_linear_2843_2413" x1="9.04688" y1="40.6924" x2="12.6563" y2="40.6924" gradientUnits="userSpaceOnUse">
<stop offset="0.164179" stop-color="#4F3D6C"/>
<stop offset="1" stop-color="#6E4693" stop-opacity="0"/>
</linearGradient>
<radialGradient id="paint13_radial_2843_2413" cx="0" cy="0" r="1" gradientUnits="userSpaceOnUse" gradientTransform="translate(36.4688 38.3018) rotate(90) scale(4.64063 2.4375)">
<stop stop-color="#6B5094"/>
<stop offset="1" stop-color="#6B5094" stop-opacity="0"/>
</radialGradient>
<linearGradient id="paint14_linear_2843_2413" x1="23.5312" y1="38.3955" x2="23.5312" y2="39.2861" gradientUnits="userSpaceOnUse">
<stop offset="0.157895" stop-color="#5E3D7F"/>
<stop offset="1" stop-color="#5E3D7F" stop-opacity="0"/>
</linearGradient>
</defs>
</svg>
