<svg width="48" height="48" viewBox="0 0 48 48" fill="none" xmlns="http://www.w3.org/2000/svg">
<g id="Ring">
<g id="Union" filter="url(#filter0_iii_2843_8182)">
<path fill-rule="evenodd" clip-rule="evenodd" d="M17.7656 12.3516C17.918 13.6672 17.4141 14.4023 16.7754 14.6719H16.7853C11.2953 17.1608 7.47656 22.6891 7.47656 29.1094C7.47656 37.8596 14.5701 44.9531 23.3203 44.9531C32.0706 44.9531 39.1641 37.8596 39.1641 29.1094C39.1641 22.6615 35.3123 17.1132 29.7842 14.6399C29.2125 14.3841 28.6997 13.6127 28.8457 12.3516H17.7656ZM34.1391 29.1094C34.1391 35.0844 29.2953 39.9281 23.3203 39.9281C17.3453 39.9281 12.5016 35.0844 12.5016 29.1094C12.5016 23.1343 17.3453 18.2906 23.3203 18.2906C29.2953 18.2906 34.1391 23.1343 34.1391 29.1094Z" fill="#C4AFD9"/>
</g>
<path id="Union_2" fill-rule="evenodd" clip-rule="evenodd" d="M17.7656 12.3516C17.918 13.6672 17.4141 14.4023 16.7754 14.6719H16.7853C11.2953 17.1608 7.47656 22.6891 7.47656 29.1094C7.47656 37.8596 14.5701 44.9531 23.3203 44.9531C32.0706 44.9531 39.1641 37.8596 39.1641 29.1094C39.1641 22.6615 35.3123 17.1132 29.7842 14.6399C29.2125 14.3841 28.6997 13.6127 28.8457 12.3516H17.7656ZM34.1391 29.1094C34.1391 35.0844 29.2953 39.9281 23.3203 39.9281C17.3453 39.9281 12.5016 35.0844 12.5016 29.1094C12.5016 23.1343 17.3453 18.2906 23.3203 18.2906C29.2953 18.2906 34.1391 23.1343 34.1391 29.1094Z" fill="url(#paint0_radial_2843_8182)"/>
<g id="Union_3">
<path d="M17.7895 12.4688L15.6809 7.73794C15.5873 7.52791 15.6219 7.28286 15.7701 7.10703L18.9311 3.35601C19.0023 3.27145 19.1073 3.22266 19.2178 3.22266H27.4472C27.5578 3.22266 27.6627 3.27145 27.7339 3.35601L30.8949 7.10703C31.0431 7.28286 31.0777 7.52791 30.9841 7.73794L28.8755 12.4688H17.7895Z" fill="url(#paint1_linear_2843_8182)"/>
<path d="M17.7895 12.4688L15.6809 7.73794C15.5873 7.52791 15.6219 7.28286 15.7701 7.10703L18.9311 3.35601C19.0023 3.27145 19.1073 3.22266 19.2178 3.22266H27.4472C27.5578 3.22266 27.6627 3.27145 27.7339 3.35601L30.8949 7.10703C31.0431 7.28286 31.0777 7.52791 30.9841 7.73794L28.8755 12.4688H17.7895Z" fill="url(#paint2_linear_2843_8182)"/>
<path d="M17.7895 12.4688L15.6809 7.73794C15.5873 7.52791 15.6219 7.28286 15.7701 7.10703L18.9311 3.35601C19.0023 3.27145 19.1073 3.22266 19.2178 3.22266H27.4472C27.5578 3.22266 27.6627 3.27145 27.7339 3.35601L30.8949 7.10703C31.0431 7.28286 31.0777 7.52791 30.9841 7.73794L28.8755 12.4688H17.7895Z" fill="url(#paint3_linear_2843_8182)"/>
</g>
<g id="Intersect">
<path d="M15.6809 7.73795L17.7896 12.4688H28.8755L30.9841 7.73795C31.0485 7.59357 31.0522 7.43266 31.0002 7.28906H15.6649C15.6128 7.43266 15.6165 7.59357 15.6809 7.73795Z" fill="url(#paint4_linear_2843_8182)"/>
<path d="M15.6809 7.73795L17.7896 12.4688H28.8755L30.9841 7.73795C31.0485 7.59357 31.0522 7.43266 31.0002 7.28906H15.6649C15.6128 7.43266 15.6165 7.59357 15.6809 7.73795Z" fill="url(#paint5_linear_2843_8182)"/>
<path d="M15.6809 7.73795L17.7896 12.4688H28.8755L30.9841 7.73795C31.0485 7.59357 31.0522 7.43266 31.0002 7.28906H15.6649C15.6128 7.43266 15.6165 7.59357 15.6809 7.73795Z" fill="url(#paint6_radial_2843_8182)"/>
</g>
<g id="Ellipse 105" filter="url(#filter1_f_2843_8182)">
<circle cx="24" cy="28.6523" r="13.3359" stroke="url(#paint7_radial_2843_8182)"/>
<circle cx="24" cy="28.6523" r="13.3359" stroke="url(#paint8_linear_2843_8182)"/>
</g>
</g>
<defs>
<filter id="filter0_iii_2843_8182" x="6.47656" y="11.6016" width="33.6875" height="33.5016" filterUnits="userSpaceOnUse" color-interpolation-filters="sRGB">
<feFlood flood-opacity="0" result="BackgroundImageFix"/>
<feBlend mode="normal" in="SourceGraphic" in2="BackgroundImageFix" result="shape"/>
<feColorMatrix in="SourceAlpha" type="matrix" values="0 0 0 0 0 0 0 0 0 0 0 0 0 0 0 0 0 0 127 0" result="hardAlpha"/>
<feOffset dx="-1" dy="0.15"/>
<feGaussianBlur stdDeviation="0.5"/>
<feComposite in2="hardAlpha" operator="arithmetic" k2="-1" k3="1"/>
<feColorMatrix type="matrix" values="0 0 0 0 0.87451 0 0 0 0 0.858824 0 0 0 0 0.905882 0 0 0 1 0"/>
<feBlend mode="normal" in2="shape" result="effect1_innerShadow_2843_8182"/>
<feColorMatrix in="SourceAlpha" type="matrix" values="0 0 0 0 0 0 0 0 0 0 0 0 0 0 0 0 0 0 127 0" result="hardAlpha"/>
<feOffset dx="1" dy="0.15"/>
<feGaussianBlur stdDeviation="0.625"/>
<feComposite in2="hardAlpha" operator="arithmetic" k2="-1" k3="1"/>
<feColorMatrix type="matrix" values="0 0 0 0 0.615686 0 0 0 0 0.603922 0 0 0 0 0.631373 0 0 0 1 0"/>
<feBlend mode="normal" in2="effect1_innerShadow_2843_8182" result="effect2_innerShadow_2843_8182"/>
<feColorMatrix in="SourceAlpha" type="matrix" values="0 0 0 0 0 0 0 0 0 0 0 0 0 0 0 0 0 0 127 0" result="hardAlpha"/>
<feOffset dy="-0.75"/>
<feGaussianBlur stdDeviation="0.75"/>
<feComposite in2="hardAlpha" operator="arithmetic" k2="-1" k3="1"/>
<feColorMatrix type="matrix" values="0 0 0 0 0.756863 0 0 0 0 0.611765 0 0 0 0 0.878431 0 0 0 1 0"/>
<feBlend mode="normal" in2="effect2_innerShadow_2843_8182" result="effect3_innerShadow_2843_8182"/>
</filter>
<filter id="filter1_f_2843_8182" x="9.16406" y="13.8164" width="29.6719" height="29.6719" filterUnits="userSpaceOnUse" color-interpolation-filters="sRGB">
<feFlood flood-opacity="0" result="BackgroundImageFix"/>
<feBlend mode="normal" in="SourceGraphic" in2="BackgroundImageFix" result="shape"/>
<feGaussianBlur stdDeviation="0.5" result="effect1_foregroundBlur_2843_8182"/>
</filter>
<radialGradient id="paint0_radial_2843_8182" cx="0" cy="0" r="1" gradientUnits="userSpaceOnUse" gradientTransform="translate(23.3203 11.5312) rotate(90) scale(3.375 6.1875)">
<stop offset="0.250001" stop-color="#C0A4D9"/>
<stop offset="1" stop-color="#C0A4D9" stop-opacity="0"/>
</radialGradient>
<linearGradient id="paint1_linear_2843_8182" x1="20.6958" y1="6.42188" x2="29.8364" y2="6.42188" gradientUnits="userSpaceOnUse">
<stop stop-color="#47CCFF"/>
<stop offset="0.641026" stop-color="#2695DD"/>
<stop offset="1" stop-color="#3576A8"/>
</linearGradient>
<linearGradient id="paint2_linear_2843_8182" x1="23.3325" y1="7.45313" x2="23.3325" y2="7.00781" gradientUnits="userSpaceOnUse">
<stop offset="0.368421" stop-color="#32A5F6"/>
<stop offset="1" stop-color="#32A5F6" stop-opacity="0"/>
</linearGradient>
<linearGradient id="paint3_linear_2843_8182" x1="23.3325" y1="2.90625" x2="23.3325" y2="3.46875" gradientUnits="userSpaceOnUse">
<stop stop-color="#2B9FD9"/>
<stop offset="1" stop-color="#2B9FD9" stop-opacity="0"/>
</linearGradient>
<linearGradient id="paint4_linear_2843_8182" x1="17.3208" y1="11.7656" x2="25.4302" y2="9.87891" gradientUnits="userSpaceOnUse">
<stop stop-color="#2C67CA"/>
<stop offset="1" stop-color="#2CB2FF"/>
</linearGradient>
<linearGradient id="paint5_linear_2843_8182" x1="23.3325" y1="7.28906" x2="23.3325" y2="7.52344" gradientUnits="userSpaceOnUse">
<stop stop-color="#32A5F6"/>
<stop offset="1" stop-color="#32A5F6" stop-opacity="0"/>
</linearGradient>
<radialGradient id="paint6_radial_2843_8182" cx="0" cy="0" r="1" gradientUnits="userSpaceOnUse" gradientTransform="translate(27.8911 7.42969) rotate(180) scale(4.82812 0.375)">
<stop offset="0.286408" stop-color="#51BBFD"/>
<stop offset="1" stop-color="#52B9FC" stop-opacity="0"/>
</radialGradient>
<radialGradient id="paint7_radial_2843_8182" cx="0" cy="0" r="1" gradientUnits="userSpaceOnUse" gradientTransform="translate(36.5391 20.4375) rotate(145.384) scale(12.2743 13.3497)">
<stop offset="0.359737" stop-color="#E3DFE9"/>
<stop offset="1" stop-color="#E3DFE9" stop-opacity="0"/>
</radialGradient>
<linearGradient id="paint8_linear_2843_8182" x1="11.4141" y1="38.5312" x2="15.5391" y2="34.875" gradientUnits="userSpaceOnUse">
<stop offset="0.20685" stop-color="#E3DFE9"/>
<stop offset="1" stop-color="#E3DFE9" stop-opacity="0"/>
</linearGradient>
</defs>
</svg>
