<svg width="32" height="32" viewBox="0 0 32 32" fill="none" xmlns="http://www.w3.org/2000/svg">
<g id="Shopping bags">
<g id="Rectangle 55" filter="url(#filter0_i_2639_45176)">
<path d="M14.7656 14.7813C14.7656 14.229 15.2133 13.7812 15.7656 13.7812H28.7969C29.3492 13.7812 29.7969 14.229 29.7969 14.7812V28.9062C29.7969 29.4585 29.3492 29.9062 28.7969 29.9062H15.7656C15.2133 29.9062 14.7656 29.4585 14.7656 28.9062V14.7813Z" fill="url(#paint0_linear_2639_45176)"/>
<path d="M14.7656 14.7813C14.7656 14.229 15.2133 13.7812 15.7656 13.7812H28.7969C29.3492 13.7812 29.7969 14.229 29.7969 14.7812V28.9062C29.7969 29.4585 29.3492 29.9062 28.7969 29.9062H15.7656C15.2133 29.9062 14.7656 29.4585 14.7656 28.9062V14.7813Z" fill="url(#paint1_radial_2639_45176)"/>
</g>
<g id="Rectangle 59" filter="url(#filter1_f_2639_45176)">
<path d="M16.9841 16.7656L16.9841 18.9062C16.9841 21.6677 19.0997 23.9062 21.656 23.9062C24.2122 23.9062 26.3278 21.6677 26.3278 18.9062L26.3281 16.0625" stroke="#F19A39" stroke-linecap="round"/>
</g>
<g id="Rectangle 54" filter="url(#filter2_i_2639_45176)">
<path d="M17.5156 16.1406L17.5156 18.2812C17.5156 21.0427 19.6312 23.2812 22.1875 23.2812C24.7437 23.2812 26.8594 21.0427 26.8594 18.2812L26.8594 16.1406" stroke="#E45A3B" stroke-linecap="round"/>
</g>
<g id="Rectangle 58" filter="url(#filter3_f_2639_45176)">
<path d="M17.6875 16.1406L17.6875 18.2812C17.6875 21.0427 19.8031 23.2812 22.3594 23.2812C24.9156 23.2812 27.0313 21.0427 27.0313 18.2812L27.0312 16.1406" stroke="url(#paint2_linear_2639_45176)" stroke-width="0.25" stroke-linecap="round"/>
<path d="M17.6875 16.1406L17.6875 18.2812C17.6875 21.0427 19.8031 23.2812 22.3594 23.2812C24.9156 23.2812 27.0313 21.0427 27.0313 18.2812L27.0312 16.1406" stroke="url(#paint3_linear_2639_45176)" stroke-width="0.25" stroke-linecap="round"/>
</g>
<g id="Rectangle 53">
<rect x="2.01562" y="7.6875" width="17.875" height="20.0938" rx="1" fill="url(#paint4_linear_2639_45176)"/>
<rect x="2.01562" y="7.6875" width="17.875" height="20.0938" rx="1" fill="url(#paint5_linear_2639_45176)"/>
<rect x="2.01562" y="7.6875" width="17.875" height="20.0938" rx="1" fill="url(#paint6_linear_2639_45176)"/>
<rect x="2.01562" y="7.6875" width="17.875" height="20.0938" rx="1" fill="url(#paint7_linear_2639_45176)"/>
</g>
<g id="Vector 40" filter="url(#filter4_f_2639_45176)">
<path d="M18.9219 8.65625L18.9219 26.1563" stroke="url(#paint8_linear_2639_45176)" stroke-width="0.75" stroke-linecap="round"/>
</g>
<g id="Intersect">
<path d="M2.01562 16.1875V13.9688H19.8906V16.1875H2.01562Z" fill="#3A92EA"/>
<path d="M2.01562 16.1875V13.9688H19.8906V16.1875H2.01562Z" fill="url(#paint9_linear_2639_45176)"/>
<path d="M2.01562 16.1875V13.9688H19.8906V16.1875H2.01562Z" fill="url(#paint10_linear_2639_45176)"/>
<path d="M2.01562 16.1875V13.9688H19.8906V16.1875H2.01562Z" fill="url(#paint11_linear_2639_45176)"/>
</g>
<g id="Intersect_2">
<path d="M2.01562 20.8438V18.625H19.8906V20.8438H2.01562Z" fill="#3A91ED"/>
<path d="M2.01562 20.8438V18.625H19.8906V20.8438H2.01562Z" fill="url(#paint12_linear_2639_45176)"/>
<path d="M2.01562 20.8438V18.625H19.8906V20.8438H2.01562Z" fill="url(#paint13_linear_2639_45176)"/>
<path d="M2.01562 20.8438V18.625H19.8906V20.8438H2.01562Z" fill="url(#paint14_linear_2639_45176)"/>
</g>
<g id="Intersect_3">
<path d="M2.01562 25.5V23.2812H19.8906V25.5H2.01562Z" fill="#3A8FF0"/>
<path d="M2.01562 25.5V23.2812H19.8906V25.5H2.01562Z" fill="url(#paint15_linear_2639_45176)"/>
<path d="M2.01562 25.5V23.2812H19.8906V25.5H2.01562Z" fill="url(#paint16_linear_2639_45176)"/>
<path d="M2.01562 25.5V23.2812H19.8906V25.5H2.01562Z" fill="url(#paint17_linear_2639_45176)"/>
</g>
<g id="Vector 41" filter="url(#filter5_f_2639_45176)">
<path d="M29.0089 14.6968L29.0088 28.9816" stroke="url(#paint18_linear_2639_45176)" stroke-width="0.75" stroke-linecap="round"/>
</g>
<g id="Vector 42" filter="url(#filter6_f_2639_45176)">
<path d="M15.4844 8.25V11.375" stroke="#4EB7F5" stroke-width="0.75" stroke-linecap="round"/>
</g>
<g id="Vector 43" filter="url(#filter7_f_2639_45176)">
<path d="M5.42188 8.25V11.375" stroke="#4EB7F5" stroke-width="0.75" stroke-linecap="round"/>
</g>
<g id="Rectangle 56" filter="url(#filter8_i_2639_45176)">
<path d="M16 10.8438V7.28125C16 4.51983 13.7145 2.28125 10.9531 2.28125C8.1917 2.28125 5.90625 4.51983 5.90625 7.28125V10.8438" stroke="url(#paint19_radial_2639_45176)" stroke-linecap="round"/>
</g>
<g id="Rectangle 57" filter="url(#filter9_f_2639_45176)">
<path d="M16.1719 10.8438V7.28125C16.1719 4.51983 13.8475 2.28125 11.0391 2.28125C8.23062 2.28125 5.90625 4.51983 5.90625 7.28125V10.8438" stroke="url(#paint20_linear_2639_45176)" stroke-width="0.25" stroke-linecap="round"/>
<path d="M16.1719 10.8438V7.28125C16.1719 4.51983 13.8475 2.28125 11.0391 2.28125C8.23062 2.28125 5.90625 4.51983 5.90625 7.28125V10.8438" stroke="url(#paint21_linear_2639_45176)" stroke-width="0.25" stroke-linecap="round"/>
</g>
</g>
<defs>
<filter id="filter0_i_2639_45176" x="14.7656" y="13.2812" width="15.5312" height="16.625" filterUnits="userSpaceOnUse" color-interpolation-filters="sRGB">
<feFlood flood-opacity="0" result="BackgroundImageFix"/>
<feBlend mode="normal" in="SourceGraphic" in2="BackgroundImageFix" result="shape"/>
<feColorMatrix in="SourceAlpha" type="matrix" values="0 0 0 0 0 0 0 0 0 0 0 0 0 0 0 0 0 0 127 0" result="hardAlpha"/>
<feOffset dx="0.5" dy="-0.5"/>
<feGaussianBlur stdDeviation="0.5"/>
<feComposite in2="hardAlpha" operator="arithmetic" k2="-1" k3="1"/>
<feColorMatrix type="matrix" values="0 0 0 0 0.905882 0 0 0 0 0.556863 0 0 0 0 0.329412 0 0 0 1 0"/>
<feBlend mode="normal" in2="shape" result="effect1_innerShadow_2639_45176"/>
</filter>
<filter id="filter1_f_2639_45176" x="15.4844" y="14.5625" width="12.3438" height="10.8438" filterUnits="userSpaceOnUse" color-interpolation-filters="sRGB">
<feFlood flood-opacity="0" result="BackgroundImageFix"/>
<feBlend mode="normal" in="SourceGraphic" in2="BackgroundImageFix" result="shape"/>
<feGaussianBlur stdDeviation="0.5" result="effect1_foregroundBlur_2639_45176"/>
</filter>
<filter id="filter2_i_2639_45176" x="17.0156" y="15.6406" width="10.5438" height="8.14062" filterUnits="userSpaceOnUse" color-interpolation-filters="sRGB">
<feFlood flood-opacity="0" result="BackgroundImageFix"/>
<feBlend mode="normal" in="SourceGraphic" in2="BackgroundImageFix" result="shape"/>
<feColorMatrix in="SourceAlpha" type="matrix" values="0 0 0 0 0 0 0 0 0 0 0 0 0 0 0 0 0 0 127 0" result="hardAlpha"/>
<feOffset dx="0.2"/>
<feGaussianBlur stdDeviation="0.2"/>
<feComposite in2="hardAlpha" operator="arithmetic" k2="-1" k3="1"/>
<feColorMatrix type="matrix" values="0 0 0 0 0.862745 0 0 0 0 0.321569 0 0 0 0 0.109804 0 0 0 1 0"/>
<feBlend mode="normal" in2="shape" result="effect1_innerShadow_2639_45176"/>
</filter>
<filter id="filter3_f_2639_45176" x="17.4125" y="15.8656" width="9.89375" height="7.69063" filterUnits="userSpaceOnUse" color-interpolation-filters="sRGB">
<feFlood flood-opacity="0" result="BackgroundImageFix"/>
<feBlend mode="normal" in="SourceGraphic" in2="BackgroundImageFix" result="shape"/>
<feGaussianBlur stdDeviation="0.075" result="effect1_foregroundBlur_2639_45176"/>
</filter>
<filter id="filter4_f_2639_45176" x="17.7969" y="7.53125" width="2.25" height="19.75" filterUnits="userSpaceOnUse" color-interpolation-filters="sRGB">
<feFlood flood-opacity="0" result="BackgroundImageFix"/>
<feBlend mode="normal" in="SourceGraphic" in2="BackgroundImageFix" result="shape"/>
<feGaussianBlur stdDeviation="0.375" result="effect1_foregroundBlur_2639_45176"/>
</filter>
<filter id="filter5_f_2639_45176" x="28.1338" y="13.8218" width="1.75" height="16.0349" filterUnits="userSpaceOnUse" color-interpolation-filters="sRGB">
<feFlood flood-opacity="0" result="BackgroundImageFix"/>
<feBlend mode="normal" in="SourceGraphic" in2="BackgroundImageFix" result="shape"/>
<feGaussianBlur stdDeviation="0.25" result="effect1_foregroundBlur_2639_45176"/>
</filter>
<filter id="filter6_f_2639_45176" x="14.1094" y="6.875" width="2.75" height="5.875" filterUnits="userSpaceOnUse" color-interpolation-filters="sRGB">
<feFlood flood-opacity="0" result="BackgroundImageFix"/>
<feBlend mode="normal" in="SourceGraphic" in2="BackgroundImageFix" result="shape"/>
<feGaussianBlur stdDeviation="0.5" result="effect1_foregroundBlur_2639_45176"/>
</filter>
<filter id="filter7_f_2639_45176" x="4.04688" y="6.875" width="2.75" height="5.875" filterUnits="userSpaceOnUse" color-interpolation-filters="sRGB">
<feFlood flood-opacity="0" result="BackgroundImageFix"/>
<feBlend mode="normal" in="SourceGraphic" in2="BackgroundImageFix" result="shape"/>
<feGaussianBlur stdDeviation="0.5" result="effect1_foregroundBlur_2639_45176"/>
</filter>
<filter id="filter8_i_2639_45176" x="5.40625" y="1.68125" width="11.0938" height="9.6625" filterUnits="userSpaceOnUse" color-interpolation-filters="sRGB">
<feFlood flood-opacity="0" result="BackgroundImageFix"/>
<feBlend mode="normal" in="SourceGraphic" in2="BackgroundImageFix" result="shape"/>
<feColorMatrix in="SourceAlpha" type="matrix" values="0 0 0 0 0 0 0 0 0 0 0 0 0 0 0 0 0 0 127 0" result="hardAlpha"/>
<feOffset dy="-0.1"/>
<feGaussianBlur stdDeviation="0.2"/>
<feComposite in2="hardAlpha" operator="arithmetic" k2="-1" k3="1"/>
<feColorMatrix type="matrix" values="0 0 0 0 0.164706 0 0 0 0 0.560784 0 0 0 0 0.886275 0 0 0 1 0"/>
<feBlend mode="normal" in2="shape" result="effect1_innerShadow_2639_45176"/>
</filter>
<filter id="filter9_f_2639_45176" x="5.53125" y="1.90625" width="11.0156" height="9.3125" filterUnits="userSpaceOnUse" color-interpolation-filters="sRGB">
<feFlood flood-opacity="0" result="BackgroundImageFix"/>
<feBlend mode="normal" in="SourceGraphic" in2="BackgroundImageFix" result="shape"/>
<feGaussianBlur stdDeviation="0.125" result="effect1_foregroundBlur_2639_45176"/>
</filter>
<linearGradient id="paint0_linear_2639_45176" x1="18.5469" y1="17.0625" x2="23.6094" y2="25.8125" gradientUnits="userSpaceOnUse">
<stop stop-color="#FEC243"/>
<stop offset="1" stop-color="#FDB046"/>
</linearGradient>
<radialGradient id="paint1_radial_2639_45176" cx="0" cy="0" r="1" gradientUnits="userSpaceOnUse" gradientTransform="translate(15.6661 27.1429) rotate(52.0795) scale(3.50299 4.76486)">
<stop offset="0.224669" stop-color="#D38D3C"/>
<stop offset="1" stop-color="#D38D3C" stop-opacity="0"/>
</radialGradient>
<linearGradient id="paint2_linear_2639_45176" x1="26.0861" y1="15.7813" x2="26.0861" y2="22.0469" gradientUnits="userSpaceOnUse">
<stop stop-color="#F38362"/>
<stop offset="1" stop-color="#F38362" stop-opacity="0"/>
</linearGradient>
<linearGradient id="paint3_linear_2639_45176" x1="18.8908" y1="22.0469" x2="25.2033" y2="22.0469" gradientUnits="userSpaceOnUse">
<stop stop-color="#F38362"/>
<stop offset="1" stop-color="#F38362" stop-opacity="0"/>
</linearGradient>
<linearGradient id="paint4_linear_2639_45176" x1="10.9531" y1="7.6875" x2="10.9531" y2="27.7812" gradientUnits="userSpaceOnUse">
<stop stop-color="#59C1FA"/>
<stop offset="1" stop-color="#49A8FF"/>
</linearGradient>
<linearGradient id="paint5_linear_2639_45176" x1="2.01563" y1="25.4688" x2="3.76562" y2="25.4688" gradientUnits="userSpaceOnUse">
<stop stop-color="#419CE0"/>
<stop offset="1" stop-color="#449FEE" stop-opacity="0"/>
</linearGradient>
<linearGradient id="paint6_linear_2639_45176" x1="10.6094" y1="28.25" x2="10.6094" y2="23.875" gradientUnits="userSpaceOnUse">
<stop stop-color="#4676F8"/>
<stop offset="1" stop-color="#439AFF" stop-opacity="0"/>
</linearGradient>
<linearGradient id="paint7_linear_2639_45176" x1="10.9531" y1="7.6875" x2="10.9531" y2="9.84375" gradientUnits="userSpaceOnUse">
<stop offset="0.15942" stop-color="#61C9E8"/>
<stop offset="1" stop-color="#61C9E8" stop-opacity="0"/>
</linearGradient>
<linearGradient id="paint8_linear_2639_45176" x1="653657" y1="8.68482" x2="653657" y2="25.7161" gradientUnits="userSpaceOnUse">
<stop stop-color="#80E8FF"/>
<stop offset="0.73945" stop-color="#5BB8FF"/>
<stop offset="1" stop-color="#54AFFF"/>
</linearGradient>
<linearGradient id="paint9_linear_2639_45176" x1="2.01562" y1="15.5" x2="3.85938" y2="15.5" gradientUnits="userSpaceOnUse">
<stop offset="0.196078" stop-color="#2A81CD"/>
<stop offset="1" stop-color="#2A81CD" stop-opacity="0"/>
</linearGradient>
<linearGradient id="paint10_linear_2639_45176" x1="19.8906" y1="15.5" x2="18.1406" y2="15.5" gradientUnits="userSpaceOnUse">
<stop stop-color="#51A9F3"/>
<stop offset="1" stop-color="#51A9F3" stop-opacity="0"/>
</linearGradient>
<linearGradient id="paint11_linear_2639_45176" x1="19.8906" y1="16.1875" x2="19.0781" y2="16.1875" gradientUnits="userSpaceOnUse">
<stop stop-color="#3C97EE"/>
<stop offset="1" stop-color="#3C97EE" stop-opacity="0"/>
</linearGradient>
<linearGradient id="paint12_linear_2639_45176" x1="2.01562" y1="20.1563" x2="3.85938" y2="20.1563" gradientUnits="userSpaceOnUse">
<stop offset="0.196078" stop-color="#2A81CD"/>
<stop offset="1" stop-color="#2A81CD" stop-opacity="0"/>
</linearGradient>
<linearGradient id="paint13_linear_2639_45176" x1="19.8906" y1="20.1563" x2="18.1406" y2="20.1563" gradientUnits="userSpaceOnUse">
<stop stop-color="#51A9F3"/>
<stop offset="1" stop-color="#51A9F3" stop-opacity="0"/>
</linearGradient>
<linearGradient id="paint14_linear_2639_45176" x1="19.8906" y1="20.8438" x2="19.0781" y2="20.8438" gradientUnits="userSpaceOnUse">
<stop stop-color="#3C97EE"/>
<stop offset="1" stop-color="#3C97EE" stop-opacity="0"/>
</linearGradient>
<linearGradient id="paint15_linear_2639_45176" x1="2.01562" y1="24.8125" x2="3.85938" y2="24.8125" gradientUnits="userSpaceOnUse">
<stop offset="0.196078" stop-color="#2A81CD"/>
<stop offset="1" stop-color="#2A81CD" stop-opacity="0"/>
</linearGradient>
<linearGradient id="paint16_linear_2639_45176" x1="19.8906" y1="24.8125" x2="18.1406" y2="24.8125" gradientUnits="userSpaceOnUse">
<stop stop-color="#51A9F3"/>
<stop offset="1" stop-color="#51A9F3" stop-opacity="0"/>
</linearGradient>
<linearGradient id="paint17_linear_2639_45176" x1="19.8906" y1="25.5" x2="19.0781" y2="25.5" gradientUnits="userSpaceOnUse">
<stop stop-color="#3C97EE"/>
<stop offset="1" stop-color="#3C97EE" stop-opacity="0"/>
</linearGradient>
<linearGradient id="paint18_linear_2639_45176" x1="653667" y1="14.4226" x2="653667" y2="27.43" gradientUnits="userSpaceOnUse">
<stop stop-color="#FFD262"/>
<stop offset="1" stop-color="#FFB84A"/>
</linearGradient>
<radialGradient id="paint19_radial_2639_45176" cx="0" cy="0" r="1" gradientUnits="userSpaceOnUse" gradientTransform="translate(8.48437 2.78125) rotate(72.9753) scale(8.432 9.93991)">
<stop stop-color="#2C94E3"/>
<stop offset="1" stop-color="#2C9CEB"/>
</radialGradient>
<linearGradient id="paint20_linear_2639_45176" x1="12.4375" y1="11.3437" x2="12.4375" y2="6.09375" gradientUnits="userSpaceOnUse">
<stop stop-color="#53A9F2"/>
<stop offset="1" stop-color="#53A9F2" stop-opacity="0"/>
</linearGradient>
<linearGradient id="paint21_linear_2639_45176" x1="15.7969" y1="4.1875" x2="13.8281" y2="6.5625" gradientUnits="userSpaceOnUse">
<stop stop-color="#61B2F2"/>
<stop offset="1" stop-color="#61B2F2" stop-opacity="0"/>
</linearGradient>
</defs>
</svg>
