<svg width="48" height="48" viewBox="0 0 48 48" fill="none" xmlns="http://www.w3.org/2000/svg">
<g id="Soccer ball">
<circle id="Ellipse 172" cx="24.0706" cy="24.0001" r="19.1663" fill="#00041D"/>
<g id="Vector 793" filter="url(#filter0_i_2843_1929)">
<path d="M22.1787 4.50618C21.5693 4.56243 21.292 4.73274 21.2295 4.81087C21.4545 4.97024 21.4404 5.2679 21.4053 5.39681L28.3193 7.03744L34.6475 8.18587C34.7061 7.93978 34.6592 7.61166 34.167 7.3304C28.542 4.23665 22.9404 4.43587 22.1787 4.50618Z" fill="url(#paint0_linear_2843_1929)"/>
</g>
<path id="Vector 799" d="M22.1787 4.50618C21.5693 4.56243 21.292 4.73274 21.2295 4.81087C21.4545 4.97024 21.4404 5.2679 21.4053 5.39681L28.3193 7.03744L34.6475 8.18587C34.7061 7.93978 34.6592 7.61166 34.167 7.3304C28.542 4.23665 22.9404 4.43587 22.1787 4.50618Z" fill="url(#paint1_radial_2843_1929)"/>
<g id="Vector 797" filter="url(#filter1_i_2843_1929)">
<path d="M5.06302 29.9475C4.96727 29.5956 5.0845 29.3538 5.12747 29.2854L5.97123 29.092C7.17826 30.7131 9.65795 34.0069 9.92045 34.2131C10.1829 34.4194 10.3267 34.7756 10.3658 34.928L13.7642 39.9788C13.6939 40.1975 13.3611 40.5295 12.5923 40.1077C9.0767 38.092 5.60795 31.9514 5.06302 29.9475Z" fill="url(#paint2_linear_2843_1929)"/>
</g>
<path id="Vector 800" d="M5.06302 29.9475C4.96727 29.5956 5.0845 29.3538 5.12747 29.2854L5.97123 29.092C7.17826 30.7131 9.65795 34.0069 9.92045 34.2131C10.1829 34.4194 10.3267 34.7756 10.3658 34.928L13.7642 39.9788C13.6939 40.1975 13.3611 40.5295 12.5923 40.1077C9.0767 38.092 5.60795 31.9514 5.06302 29.9475Z" fill="url(#paint3_radial_2843_1929)"/>
<g id="Vector 782">
<path d="M10.5416 9.62154C10.3166 9.94029 10.3423 10.1157 10.354 10.1665L15.0064 8.65472L21.4283 5.34418C21.5783 4.88481 21.2037 4.71528 21.0591 4.69965C20.1041 4.56488 17.772 5.01019 15.2173 6.2641C12.0181 7.99259 10.8228 9.2231 10.5416 9.62154Z" fill="url(#paint4_linear_2843_1929)"/>
<path d="M10.5416 9.62154C10.3166 9.94029 10.3423 10.1157 10.354 10.1665L15.0064 8.65472L21.4283 5.34418C21.5783 4.88481 21.2037 4.71528 21.0591 4.69965C20.1041 4.56488 17.772 5.01019 15.2173 6.2641C12.0181 7.99259 10.8228 9.2231 10.5416 9.62154Z" fill="url(#paint5_radial_2843_1929)"/>
<path d="M10.5416 9.62154C10.3166 9.94029 10.3423 10.1157 10.354 10.1665L15.0064 8.65472L21.4283 5.34418C21.5783 4.88481 21.2037 4.71528 21.0591 4.69965C20.1041 4.56488 17.772 5.01019 15.2173 6.2641C12.0181 7.99259 10.8228 9.2231 10.5416 9.62154Z" fill="url(#paint6_radial_2843_1929)"/>
</g>
<path id="Vector 795" d="M26.6085 43.471L26.8662 43.0081L37.2256 37.9163C37.3936 38.0608 37.5303 38.3381 37.2256 38.7952C33.6514 42.3108 28.6709 43.4475 27.8037 43.5764C27.2523 43.6584 26.8668 43.6372 26.667 43.6035C26.6052 43.5931 26.578 43.5258 26.6085 43.471Z" fill="url(#paint7_radial_2843_1929)"/>
<path id="Vector 798" d="M43.0732 19.3303C42.9326 19.0256 42.7314 18.9084 42.6338 18.885L42.3701 26.0334V31.0022C44.4912 27.0999 43.6475 20.3499 43.0732 19.3303Z" fill="url(#paint8_linear_2843_1929)"/>
<g id="Vector 796">
<path d="M35.0693 7.92801C34.7131 7.74051 34.4111 7.88113 34.2783 7.92801L38.3154 13.1428L42.4639 19.4241C42.8014 19.0678 42.7842 18.6702 42.7451 18.4983C41.0811 10.6936 35.5146 8.16239 35.0693 7.92801Z" fill="#EDEDEE"/>
<path d="M35.0693 7.92801C34.7131 7.74051 34.4111 7.88113 34.2783 7.92801L38.3154 13.1428L42.4639 19.4241C42.8014 19.0678 42.7842 18.6702 42.7451 18.4983C41.0811 10.6936 35.5146 8.16239 35.0693 7.92801Z" fill="url(#paint9_radial_2843_1929)"/>
</g>
<g id="Vector 784" filter="url(#filter2_i_2843_1929)">
<path d="M4.79811 29.1597C3.34601 24.5793 4.28622 19.8274 5.30814 17.5541C5.39078 17.3703 5.55772 17.242 5.75429 17.1975L6.40069 21.4235C6.4345 21.6445 6.44349 21.8687 6.42749 22.0917L5.92422 29.1096L5.34286 29.3899C5.12794 29.4935 4.87022 29.3871 4.79811 29.1597Z" fill="#3D5CBC"/>
</g>
<g id="Vector 786" filter="url(#filter3_ii_2843_1929)">
<path d="M21.2017 5.29895C18.5677 6.0793 16.4057 7.37324 15.3299 8.1675C15.0904 8.34429 14.959 8.62747 14.9641 8.92508C14.9886 10.3639 15.1186 11.8919 15.2359 12.7322C15.2775 13.0298 15.536 13.2353 15.8364 13.2438C18.5879 13.3215 20.6679 14.0095 21.7671 14.5379C22.1072 14.7014 22.5101 14.7062 22.8372 14.5181C24.6497 13.4757 26.8844 12.4368 28.1903 11.8998C28.517 11.7655 28.7162 11.4282 28.6691 11.078C28.4639 9.55106 28.3662 8.34648 28.3465 7.19849C28.342 6.93155 28.1799 6.69075 27.9291 6.59921C25.6906 5.78217 23.2512 5.39067 21.9246 5.23702C21.6817 5.20889 21.4362 5.2295 21.2017 5.29895Z" fill="url(#paint10_radial_2843_1929)"/>
</g>
<g id="Vector 788" filter="url(#filter4_i_2843_1929)">
<path d="M5.87109 16.4742C7.69476 12.9683 9.05522 11.3258 9.78014 10.6233C10.8234 9.51811 13.3596 8.68606 14.5082 8.60052C14.7336 8.58374 14.9042 8.76405 14.9253 8.98908L15.2873 12.8476C15.3172 13.1657 15.1911 13.4771 14.9613 13.699C12.938 15.6537 11.7344 18.2106 11.2739 19.3234C11.1288 19.674 10.8496 19.9556 10.4924 20.0835L6.69929 21.442C6.422 21.5413 6.11963 21.381 6.05999 21.0926C5.81836 19.9239 5.6456 18.39 5.61371 17.5108C5.60058 17.1486 5.70382 16.7957 5.87109 16.4742Z" fill="url(#paint11_linear_2843_1929)"/>
</g>
<path id="Vector 803" d="M5.87109 16.4742C7.69476 12.9683 9.05522 11.3258 9.78014 10.6233C10.8234 9.51811 13.3596 8.68606 14.5082 8.60052C14.7336 8.58374 14.9042 8.76405 14.9253 8.98908L15.2873 12.8476C15.3172 13.1657 15.1911 13.4771 14.9613 13.699C12.938 15.6537 11.7344 18.2106 11.2739 19.3234C11.1288 19.674 10.8496 19.9556 10.4924 20.0835L6.69929 21.442C6.422 21.5413 6.11963 21.381 6.05999 21.0926C5.81836 19.9239 5.6456 18.39 5.61371 17.5108C5.60058 17.1486 5.70382 16.7957 5.87109 16.4742Z" fill="url(#paint12_linear_2843_1929)"/>
<g id="Vector 791" filter="url(#filter5_i_2843_1929)">
<path d="M26.0224 43.7639C19.2841 43.9397 15.12 41.8694 13.4247 40.6819C13.2372 40.5558 13.1942 40.3715 13.202 40.3069C13.4645 40.2975 13.6317 40.1838 13.6708 40.137L20.9247 41.5022L26.8075 42.967C26.8661 43.1858 26.763 43.6795 26.0224 43.7639Z" fill="#867CFF"/>
</g>
<path id="Vector 801" d="M26.0224 43.7639C19.2841 43.9397 15.12 41.8694 13.4247 40.6819C13.2372 40.5558 13.1942 40.3715 13.202 40.3069C13.4645 40.2975 13.6317 40.1838 13.6708 40.137L20.9247 41.5022L26.8075 42.967C26.8661 43.1858 26.763 43.6795 26.0224 43.7639Z" fill="url(#paint13_radial_2843_1929)"/>
<g id="Vector 789" filter="url(#filter6_i_2843_1929)">
<path d="M35.2712 22.9278L35.3077 16.2845C35.3088 16.0759 35.4404 15.8903 35.6348 15.8149C37.3045 15.1679 38.229 14.5459 38.7112 14.1124C38.8821 13.9588 39.1483 13.9426 39.3086 14.1073C40.5522 15.3846 41.7757 17.3092 42.4845 18.5822C42.7778 19.109 42.9418 19.6964 42.9789 20.2982C43.1306 22.7617 42.9809 25.0522 42.8417 26.3247C42.8069 26.6432 42.6131 26.9199 42.3307 27.0712L39.342 28.6726C39.1748 28.7622 38.9676 28.6756 38.9066 28.496C38.0908 26.0967 36.5626 24.5243 35.6366 23.7173C35.4076 23.5177 35.2695 23.2316 35.2712 22.9278Z" fill="url(#paint14_radial_2843_1929)"/>
</g>
<g id="Vector 790" filter="url(#filter7_i_2843_1929)">
<path d="M20.9432 41.2745C21.3803 40.0904 21.4763 38.6758 21.4431 37.7321C21.4317 37.4077 21.6052 37.0987 21.9006 36.9642L27.9763 34.1979C28.2916 34.0544 28.6558 34.0893 28.9616 34.2519C30.7191 35.1864 33.1699 35.3982 34.2504 35.3327C34.4394 35.3212 34.6124 35.4687 34.6099 35.658C34.5832 37.6544 34.3391 38.8979 34.0617 39.7016C33.9714 39.9632 33.7901 40.1815 33.5597 40.3349C31.2795 41.8528 28.649 42.8318 27.2573 43.1152C27.0685 43.1536 26.8747 43.1531 26.6841 43.1247C24.1477 42.7472 22.1665 42.1645 21.174 41.8085C20.9597 41.7316 20.8643 41.4881 20.9432 41.2745Z" fill="url(#paint15_radial_2843_1929)"/>
</g>
<g id="Vector 792" filter="url(#filter8_i_2843_1929)">
<path d="M10.3963 19.9013L6.69791 21.4231C6.43651 21.5307 6.23029 21.7427 6.16233 22.017C5.82767 23.3682 5.59585 26.0993 5.73207 28.2512C5.75813 28.6628 5.84859 29.0679 6.03183 29.4373C6.80632 30.9987 8.55054 33.2376 9.66526 34.2864C9.95475 34.5587 10.3835 34.5678 10.7292 34.3715C11.8488 33.7358 12.7624 33.4018 14.4427 32.8981C14.745 32.8075 14.9605 32.5386 14.98 32.2236L15.3704 25.9177C15.3916 25.5741 15.2325 25.2462 14.9629 25.032C13.0114 23.482 11.8664 21.5249 11.2507 20.2386C11.0977 19.919 10.724 19.7665 10.3963 19.9013Z" fill="url(#paint16_linear_2843_1929)"/>
</g>
<g id="Vector 794" filter="url(#filter9_i_2843_1929)">
<path d="M38.733 29.0962C37.4886 31.7863 35.7044 34.1347 34.7646 35.2076C34.6216 35.3709 34.5301 35.5721 34.5081 35.7881L34.1276 39.5204C34.1159 39.6357 34.1714 39.7524 34.2846 39.7774C34.6801 39.8649 35.5188 39.7077 37.3311 38.5491C39.3584 36.803 41.5732 32.9709 42.3232 31.2366C42.8264 29.9219 42.8507 28.1934 42.7518 27.2002C42.7318 26.9985 42.5149 26.8902 42.3349 26.9835L39.1903 28.6137C38.9881 28.7185 38.8286 28.8896 38.733 29.0962Z" fill="url(#paint17_radial_2843_1929)"/>
</g>
<path id="Vector 802" d="M38.733 29.0962C37.4886 31.7863 35.7044 34.1347 34.7646 35.2076C34.6216 35.3709 34.5301 35.5721 34.5081 35.7881L34.1276 39.5204C34.1159 39.6357 34.1714 39.7524 34.2846 39.7774C34.6801 39.8649 35.5188 39.7077 37.3311 38.5491C39.3584 36.803 41.5732 32.9709 42.3232 31.2366C42.8264 29.9219 42.8507 28.1934 42.7518 27.2002C42.7318 26.9985 42.5149 26.8902 42.3349 26.9835L39.1903 28.6137C38.9881 28.7185 38.8286 28.8896 38.733 29.0962Z" fill="url(#paint18_radial_2843_1929)"/>
<g id="Vector 780" filter="url(#filter10_ii_2843_1929)">
<path d="M34.8301 23.506C33.0476 24.2192 30.3564 25.6003 29.1519 26.3023C28.9022 26.4478 28.7402 26.7015 28.702 26.9879C28.3758 29.4324 28.2513 31.9677 28.3083 33.4312C28.3216 33.7733 28.5268 34.0755 28.8369 34.2203C31.0427 35.2501 32.8459 35.4519 34.0112 35.4499C34.3892 35.4493 34.7559 35.3202 35.0417 35.0728C36.7914 33.558 38.2494 30.8383 38.8231 29.3965C38.9644 29.0415 38.9672 28.6491 38.8375 28.2898C38.0715 26.1672 36.5597 24.3341 35.6215 23.5961C35.3965 23.4191 35.0959 23.3996 34.8301 23.506Z" fill="url(#paint19_radial_2843_1929)"/>
</g>
<g id="Blue 3" filter="url(#filter11_i_2843_1929)">
<path d="M14.4915 32.8475C13.0045 33.3151 11.4535 33.982 10.5494 34.4123C10.2964 34.5327 10.168 34.8164 10.2562 35.0823C10.7776 36.6531 12.1583 39.2995 14.0342 40.4124C16.3866 41.5698 18.9155 41.7962 20.2583 41.7502C20.4821 41.7425 20.6999 41.6525 20.8196 41.4632C21.3686 40.5955 21.4911 38.7387 21.4389 37.4381C21.429 37.1921 21.2974 36.969 21.0927 36.8321L15.323 32.9717C15.078 32.8078 14.7728 32.759 14.4915 32.8475Z" fill="url(#paint20_radial_2843_1929)"/>
</g>
<path id="Blue 4" d="M14.4915 32.8475C13.0045 33.3151 11.4535 33.982 10.5494 34.4123C10.2964 34.5327 10.168 34.8164 10.2562 35.0823C10.7776 36.6531 12.1583 39.2995 14.0342 40.4124C16.3866 41.5698 18.9155 41.7962 20.2583 41.7502C20.4821 41.7425 20.6999 41.6525 20.8196 41.4632C21.3686 40.5955 21.4911 38.7387 21.4389 37.4381C21.429 37.1921 21.2974 36.969 21.0927 36.8321L15.323 32.9717C15.078 32.8078 14.7728 32.759 14.4915 32.8475Z" fill="url(#paint21_radial_2843_1929)"/>
<g id="Vector 787" filter="url(#filter12_ii_2843_1929)">
<path d="M21.6256 22.6067C19.9679 23.6298 17.4868 24.6193 15.9155 25.1739C15.5535 25.3017 15.2902 25.619 15.2472 26.0004C14.9749 28.4143 14.91 30.9655 14.9344 32.31C14.9396 32.5969 15.075 32.8638 15.3016 33.0398C16.9699 34.3351 19.4142 35.9286 20.948 36.7834C21.3179 36.9895 21.7593 37.0103 22.1518 36.8515C23.9339 36.131 26.2538 35.0695 27.7847 34.2916C28.1275 34.1174 28.3308 33.7579 28.3224 33.3735C28.2644 30.7485 28.5169 28.3491 28.6664 27.1249C28.7107 26.7623 28.5577 26.4044 28.256 26.1985C26.9901 25.3346 24.4066 23.6751 22.778 22.6055C22.4302 22.377 21.9797 22.3881 21.6256 22.6067Z" fill="url(#paint22_linear_2843_1929)"/>
</g>
<g id="Blue 2" filter="url(#filter13_ii_2843_1929)">
<path d="M11.1422 19.3533C12.2024 16.547 13.9204 14.478 15.14 13.4319C15.3096 13.2864 15.5277 13.2124 15.7511 13.2167C18.6411 13.2723 20.6665 14.0174 21.7857 14.5239C22.099 14.6657 22.3066 14.9692 22.3385 15.3116C22.6378 18.5218 22.4963 20.3092 22.3384 21.6759C22.3067 21.9507 22.1616 22.2006 21.9328 22.3561C20.1169 23.5898 17.8301 24.4784 16.0162 25.1423C15.6866 25.2629 15.3181 25.2439 15.0292 25.0448C13.4745 23.9738 11.9334 21.7133 11.189 20.2596C11.0449 19.9781 11.0305 19.6492 11.1422 19.3533Z" fill="url(#paint23_radial_2843_1929)"/>
</g>
<g id="Blue 1" filter="url(#filter14_i_2843_1929)">
<path d="M28.689 11.2233C28.3763 9.37616 28.376 7.8699 28.4106 7.19121C28.4234 6.94028 28.585 6.77473 28.8356 6.75623C30.2312 6.65318 33.1893 6.99296 35.0458 8.31488C37.006 9.80085 38.3597 12.0735 38.8766 13.3769C38.9744 13.6235 38.9225 13.9037 38.7319 14.0882C37.8865 14.9069 36.5567 15.4528 35.7143 15.7872C35.4863 15.8777 35.2279 15.8522 35.0223 15.7183L29.1214 11.8754C28.8934 11.7269 28.7345 11.4916 28.689 11.2233Z" fill="url(#paint24_radial_2843_1929)"/>
</g>
<g id="Vector 785" filter="url(#filter15_ii_2843_1929)">
<path d="M22.3664 21.754C22.5531 19.0961 22.4365 16.7101 22.3566 15.3711C22.3342 14.9954 22.5226 14.6403 22.8534 14.4607C24.2662 13.6939 26.7994 12.4614 28.2858 11.7534C28.5724 11.6169 28.9063 11.6248 29.1819 11.7822C30.9456 12.7897 33.2279 14.3924 34.822 15.4394C35.1202 15.6353 35.3269 15.945 35.3642 16.2999C35.5571 18.1343 35.4674 20.9155 35.39 22.6421C35.3737 23.0068 35.1583 23.332 34.83 23.4918L29.2016 26.2318C28.8868 26.3851 28.5147 26.3625 28.2207 26.1723L22.8244 22.6805C22.5136 22.4795 22.3405 22.1232 22.3664 21.754Z" fill="url(#paint25_radial_2843_1929)"/>
</g>
</g>
<defs>
<filter id="filter0_i_2843_1929" x="21.2295" y="4.27559" width="13.6875" height="3.91021" filterUnits="userSpaceOnUse" color-interpolation-filters="sRGB">
<feFlood flood-opacity="0" result="BackgroundImageFix"/>
<feBlend mode="normal" in="SourceGraphic" in2="BackgroundImageFix" result="shape"/>
<feColorMatrix in="SourceAlpha" type="matrix" values="0 0 0 0 0 0 0 0 0 0 0 0 0 0 0 0 0 0 127 0" result="hardAlpha"/>
<feOffset dx="0.25" dy="-0.2"/>
<feGaussianBlur stdDeviation="0.125"/>
<feComposite in2="hardAlpha" operator="arithmetic" k2="-1" k3="1"/>
<feColorMatrix type="matrix" values="0 0 0 0 0.65098 0 0 0 0 0.65098 0 0 0 0 0.670588 0 0 0 1 0"/>
<feBlend mode="normal" in2="shape" result="effect1_innerShadow_2843_1929"/>
</filter>
<filter id="filter1_i_2843_1929" x="4.87637" y="29.092" width="8.88828" height="11.2188" filterUnits="userSpaceOnUse" color-interpolation-filters="sRGB">
<feFlood flood-opacity="0" result="BackgroundImageFix"/>
<feBlend mode="normal" in="SourceGraphic" in2="BackgroundImageFix" result="shape"/>
<feColorMatrix in="SourceAlpha" type="matrix" values="0 0 0 0 0 0 0 0 0 0 0 0 0 0 0 0 0 0 127 0" result="hardAlpha"/>
<feOffset dx="-0.5"/>
<feGaussianBlur stdDeviation="0.075"/>
<feComposite in2="hardAlpha" operator="arithmetic" k2="-1" k3="1"/>
<feColorMatrix type="matrix" values="0 0 0 0 0.54902 0 0 0 0 0.505882 0 0 0 0 0.768627 0 0 0 1 0"/>
<feBlend mode="normal" in2="shape" result="effect1_innerShadow_2843_1929"/>
</filter>
<filter id="filter2_i_2843_1929" x="3.75176" y="17.1975" width="2.68379" height="12.2322" filterUnits="userSpaceOnUse" color-interpolation-filters="sRGB">
<feFlood flood-opacity="0" result="BackgroundImageFix"/>
<feBlend mode="normal" in="SourceGraphic" in2="BackgroundImageFix" result="shape"/>
<feColorMatrix in="SourceAlpha" type="matrix" values="0 0 0 0 0 0 0 0 0 0 0 0 0 0 0 0 0 0 127 0" result="hardAlpha"/>
<feOffset dx="-0.3"/>
<feGaussianBlur stdDeviation="0.15"/>
<feComposite in2="hardAlpha" operator="arithmetic" k2="-1" k3="1"/>
<feColorMatrix type="matrix" values="0 0 0 0 0.175833 0 0 0 0 0.4336 0 0 0 0 0.879167 0 0 0 1 0"/>
<feBlend mode="normal" in2="shape" result="effect1_innerShadow_2843_1929"/>
</filter>
<filter id="filter3_ii_2843_1929" x="14.7139" y="5.02485" width="14.0619" height="9.78506" filterUnits="userSpaceOnUse" color-interpolation-filters="sRGB">
<feFlood flood-opacity="0" result="BackgroundImageFix"/>
<feBlend mode="normal" in="SourceGraphic" in2="BackgroundImageFix" result="shape"/>
<feColorMatrix in="SourceAlpha" type="matrix" values="0 0 0 0 0 0 0 0 0 0 0 0 0 0 0 0 0 0 127 0" result="hardAlpha"/>
<feOffset dx="-0.25" dy="0.15"/>
<feGaussianBlur stdDeviation="0.25"/>
<feComposite in2="hardAlpha" operator="arithmetic" k2="-1" k3="1"/>
<feColorMatrix type="matrix" values="0 0 0 0 0.92549 0 0 0 0 0.921569 0 0 0 0 0.929412 0 0 0 1 0"/>
<feBlend mode="normal" in2="shape" result="effect1_innerShadow_2843_1929"/>
<feColorMatrix in="SourceAlpha" type="matrix" values="0 0 0 0 0 0 0 0 0 0 0 0 0 0 0 0 0 0 127 0" result="hardAlpha"/>
<feOffset dx="0.1" dy="-0.2"/>
<feGaussianBlur stdDeviation="0.15"/>
<feComposite in2="hardAlpha" operator="arithmetic" k2="-1" k3="1"/>
<feColorMatrix type="matrix" values="0 0 0 0 0.580392 0 0 0 0 0.572549 0 0 0 0 0.6 0 0 0 1 0"/>
<feBlend mode="normal" in2="effect1_innerShadow_2843_1929" result="effect2_innerShadow_2843_1929"/>
</filter>
<filter id="filter4_i_2843_1929" x="5.3123" y="8.59937" width="9.97969" height="12.9721" filterUnits="userSpaceOnUse" color-interpolation-filters="sRGB">
<feFlood flood-opacity="0" result="BackgroundImageFix"/>
<feBlend mode="normal" in="SourceGraphic" in2="BackgroundImageFix" result="shape"/>
<feColorMatrix in="SourceAlpha" type="matrix" values="0 0 0 0 0 0 0 0 0 0 0 0 0 0 0 0 0 0 127 0" result="hardAlpha"/>
<feOffset dx="-0.3" dy="0.1"/>
<feGaussianBlur stdDeviation="0.225"/>
<feComposite in2="hardAlpha" operator="arithmetic" k2="-1" k3="1"/>
<feColorMatrix type="matrix" values="0 0 0 0 0.796078 0 0 0 0 0.788235 0 0 0 0 0.858824 0 0 0 1 0"/>
<feBlend mode="normal" in2="shape" result="effect1_innerShadow_2843_1929"/>
</filter>
<filter id="filter5_i_2843_1929" x="13.2012" y="40.137" width="13.6201" height="3.88745" filterUnits="userSpaceOnUse" color-interpolation-filters="sRGB">
<feFlood flood-opacity="0" result="BackgroundImageFix"/>
<feBlend mode="normal" in="SourceGraphic" in2="BackgroundImageFix" result="shape"/>
<feColorMatrix in="SourceAlpha" type="matrix" values="0 0 0 0 0 0 0 0 0 0 0 0 0 0 0 0 0 0 127 0" result="hardAlpha"/>
<feOffset dy="0.25"/>
<feGaussianBlur stdDeviation="0.125"/>
<feComposite in2="hardAlpha" operator="arithmetic" k2="-1" k3="1"/>
<feColorMatrix type="matrix" values="0 0 0 0 0.576471 0 0 0 0 0.513726 0 0 0 0 0.909804 0 0 0 1 0"/>
<feBlend mode="normal" in2="shape" result="effect1_innerShadow_2843_1929"/>
</filter>
<filter id="filter6_i_2843_1929" x="35.2715" y="13.8405" width="7.92051" height="14.8678" filterUnits="userSpaceOnUse" color-interpolation-filters="sRGB">
<feFlood flood-opacity="0" result="BackgroundImageFix"/>
<feBlend mode="normal" in="SourceGraphic" in2="BackgroundImageFix" result="shape"/>
<feColorMatrix in="SourceAlpha" type="matrix" values="0 0 0 0 0 0 0 0 0 0 0 0 0 0 0 0 0 0 127 0" result="hardAlpha"/>
<feOffset dx="0.15" dy="-0.15"/>
<feGaussianBlur stdDeviation="0.15"/>
<feComposite in2="hardAlpha" operator="arithmetic" k2="-1" k3="1"/>
<feColorMatrix type="matrix" values="0 0 0 0 0.564706 0 0 0 0 0.541176 0 0 0 0 0.682353 0 0 0 1 0"/>
<feBlend mode="normal" in2="shape" result="effect1_innerShadow_2843_1929"/>
</filter>
<filter id="filter7_i_2843_1929" x="20.766" y="34.1077" width="13.8443" height="9.28735" filterUnits="userSpaceOnUse" color-interpolation-filters="sRGB">
<feFlood flood-opacity="0" result="BackgroundImageFix"/>
<feBlend mode="normal" in="SourceGraphic" in2="BackgroundImageFix" result="shape"/>
<feColorMatrix in="SourceAlpha" type="matrix" values="0 0 0 0 0 0 0 0 0 0 0 0 0 0 0 0 0 0 127 0" result="hardAlpha"/>
<feOffset dx="-0.15" dy="0.25"/>
<feGaussianBlur stdDeviation="0.2"/>
<feComposite in2="hardAlpha" operator="arithmetic" k2="-1" k3="1"/>
<feColorMatrix type="matrix" values="0 0 0 0 0.8 0 0 0 0 0.772549 0 0 0 0 0.92549 0 0 0 1 0"/>
<feBlend mode="normal" in2="shape" result="effect1_innerShadow_2843_1929"/>
</filter>
<filter id="filter8_i_2843_1929" x="5.39238" y="19.8523" width="9.97969" height="14.7541" filterUnits="userSpaceOnUse" color-interpolation-filters="sRGB">
<feFlood flood-opacity="0" result="BackgroundImageFix"/>
<feBlend mode="normal" in="SourceGraphic" in2="BackgroundImageFix" result="shape"/>
<feColorMatrix in="SourceAlpha" type="matrix" values="0 0 0 0 0 0 0 0 0 0 0 0 0 0 0 0 0 0 127 0" result="hardAlpha"/>
<feOffset dx="-0.3" dy="0.1"/>
<feGaussianBlur stdDeviation="0.2"/>
<feComposite in2="hardAlpha" operator="arithmetic" k2="-1" k3="1"/>
<feColorMatrix type="matrix" values="0 0 0 0 0.72549 0 0 0 0 0.690196 0 0 0 0 0.878431 0 0 0 1 0"/>
<feBlend mode="normal" in2="shape" result="effect1_innerShadow_2843_1929"/>
</filter>
<filter id="filter9_i_2843_1929" x="34.126" y="26.9497" width="8.92188" height="12.8481" filterUnits="userSpaceOnUse" color-interpolation-filters="sRGB">
<feFlood flood-opacity="0" result="BackgroundImageFix"/>
<feBlend mode="normal" in="SourceGraphic" in2="BackgroundImageFix" result="shape"/>
<feColorMatrix in="SourceAlpha" type="matrix" values="0 0 0 0 0 0 0 0 0 0 0 0 0 0 0 0 0 0 127 0" result="hardAlpha"/>
<feOffset dx="0.25"/>
<feGaussianBlur stdDeviation="0.2"/>
<feComposite in2="hardAlpha" operator="arithmetic" k2="-1" k3="1"/>
<feColorMatrix type="matrix" values="0 0 0 0 0.564706 0 0 0 0 0.505882 0 0 0 0 0.898039 0 0 0 1 0"/>
<feBlend mode="normal" in2="shape" result="effect1_innerShadow_2843_1929"/>
</filter>
<filter id="filter10_ii_2843_1929" x="28.2949" y="23.3407" width="10.8367" height="12.3093" filterUnits="userSpaceOnUse" color-interpolation-filters="sRGB">
<feFlood flood-opacity="0" result="BackgroundImageFix"/>
<feBlend mode="normal" in="SourceGraphic" in2="BackgroundImageFix" result="shape"/>
<feColorMatrix in="SourceAlpha" type="matrix" values="0 0 0 0 0 0 0 0 0 0 0 0 0 0 0 0 0 0 127 0" result="hardAlpha"/>
<feOffset dy="0.2"/>
<feGaussianBlur stdDeviation="0.15"/>
<feComposite in2="hardAlpha" operator="arithmetic" k2="-1" k3="1"/>
<feColorMatrix type="matrix" values="0 0 0 0 0.270588 0 0 0 0 0.596078 0 0 0 0 1 0 0 0 1 0"/>
<feBlend mode="normal" in2="shape" result="effect1_innerShadow_2843_1929"/>
<feColorMatrix in="SourceAlpha" type="matrix" values="0 0 0 0 0 0 0 0 0 0 0 0 0 0 0 0 0 0 127 0" result="hardAlpha"/>
<feOffset dx="0.2" dy="-0.1"/>
<feGaussianBlur stdDeviation="0.2"/>
<feComposite in2="hardAlpha" operator="arithmetic" k2="-1" k3="1"/>
<feColorMatrix type="matrix" values="0 0 0 0 0.00392157 0 0 0 0 0.266667 0 0 0 0 0.666667 0 0 0 1 0"/>
<feBlend mode="normal" in2="effect1_innerShadow_2843_1929" result="effect2_innerShadow_2843_1929"/>
</filter>
<filter id="filter11_i_2843_1929" x="10.0785" y="32.804" width="11.3717" height="9.05166" filterUnits="userSpaceOnUse" color-interpolation-filters="sRGB">
<feFlood flood-opacity="0" result="BackgroundImageFix"/>
<feBlend mode="normal" in="SourceGraphic" in2="BackgroundImageFix" result="shape"/>
<feColorMatrix in="SourceAlpha" type="matrix" values="0 0 0 0 0 0 0 0 0 0 0 0 0 0 0 0 0 0 127 0" result="hardAlpha"/>
<feOffset dx="-0.15" dy="0.1"/>
<feGaussianBlur stdDeviation="0.15"/>
<feComposite in2="hardAlpha" operator="arithmetic" k2="-1" k3="1"/>
<feColorMatrix type="matrix" values="0 0 0 0 0.15 0 0 0 0 0.478913 0 0 0 0 1 0 0 0 1 0"/>
<feBlend mode="normal" in2="shape" result="effect1_innerShadow_2843_1929"/>
</filter>
<filter id="filter12_ii_2843_1929" x="14.7297" y="22.3385" width="14.0441" height="14.8178" filterUnits="userSpaceOnUse" color-interpolation-filters="sRGB">
<feFlood flood-opacity="0" result="BackgroundImageFix"/>
<feBlend mode="normal" in="SourceGraphic" in2="BackgroundImageFix" result="shape"/>
<feColorMatrix in="SourceAlpha" type="matrix" values="0 0 0 0 0 0 0 0 0 0 0 0 0 0 0 0 0 0 127 0" result="hardAlpha"/>
<feOffset dx="0.1" dy="-0.1"/>
<feGaussianBlur stdDeviation="0.2"/>
<feComposite in2="hardAlpha" operator="arithmetic" k2="-1" k3="1"/>
<feColorMatrix type="matrix" values="0 0 0 0 0.521569 0 0 0 0 0.490196 0 0 0 0 0.662745 0 0 0 1 0"/>
<feBlend mode="normal" in2="shape" result="effect1_innerShadow_2843_1929"/>
<feColorMatrix in="SourceAlpha" type="matrix" values="0 0 0 0 0 0 0 0 0 0 0 0 0 0 0 0 0 0 127 0" result="hardAlpha"/>
<feOffset dx="-0.2" dy="0.2"/>
<feGaussianBlur stdDeviation="0.15"/>
<feComposite in2="hardAlpha" operator="arithmetic" k2="-1" k3="1"/>
<feColorMatrix type="matrix" values="0 0 0 0 0.886275 0 0 0 0 0.870588 0 0 0 0 0.929412 0 0 0 1 0"/>
<feBlend mode="normal" in2="effect1_innerShadow_2843_1929" result="effect2_innerShadow_2843_1929"/>
</filter>
<filter id="filter13_ii_2843_1929" x="10.9184" y="13.0666" width="11.7453" height="12.251" filterUnits="userSpaceOnUse" color-interpolation-filters="sRGB">
<feFlood flood-opacity="0" result="BackgroundImageFix"/>
<feBlend mode="normal" in="SourceGraphic" in2="BackgroundImageFix" result="shape"/>
<feColorMatrix in="SourceAlpha" type="matrix" values="0 0 0 0 0 0 0 0 0 0 0 0 0 0 0 0 0 0 127 0" result="hardAlpha"/>
<feOffset dx="0.15" dy="-0.15"/>
<feGaussianBlur stdDeviation="0.25"/>
<feComposite in2="hardAlpha" operator="arithmetic" k2="-1" k3="1"/>
<feColorMatrix type="matrix" values="0 0 0 0 0.129412 0 0 0 0 0.313726 0 0 0 0 0.854902 0 0 0 1 0"/>
<feBlend mode="normal" in2="shape" result="effect1_innerShadow_2843_1929"/>
<feColorMatrix in="SourceAlpha" type="matrix" values="0 0 0 0 0 0 0 0 0 0 0 0 0 0 0 0 0 0 127 0" result="hardAlpha"/>
<feOffset dx="-0.15" dy="0.1"/>
<feGaussianBlur stdDeviation="0.1"/>
<feComposite in2="hardAlpha" operator="arithmetic" k2="-1" k3="1"/>
<feColorMatrix type="matrix" values="0 0 0 0 0.219608 0 0 0 0 0.580392 0 0 0 0 1 0 0 0 1 0"/>
<feBlend mode="normal" in2="effect1_innerShadow_2843_1929" result="effect2_innerShadow_2843_1929"/>
</filter>
<filter id="filter14_i_2843_1929" x="28.3955" y="6.58901" width="10.6793" height="9.25156" filterUnits="userSpaceOnUse" color-interpolation-filters="sRGB">
<feFlood flood-opacity="0" result="BackgroundImageFix"/>
<feBlend mode="normal" in="SourceGraphic" in2="BackgroundImageFix" result="shape"/>
<feColorMatrix in="SourceAlpha" type="matrix" values="0 0 0 0 0 0 0 0 0 0 0 0 0 0 0 0 0 0 127 0" result="hardAlpha"/>
<feOffset dx="0.15" dy="-0.15"/>
<feGaussianBlur stdDeviation="0.125"/>
<feComposite in2="hardAlpha" operator="arithmetic" k2="-1" k3="1"/>
<feColorMatrix type="matrix" values="0 0 0 0 0.231373 0 0 0 0 0.435294 0 0 0 0 0.866667 0 0 0 1 0"/>
<feBlend mode="normal" in2="shape" result="effect1_innerShadow_2843_1929"/>
</filter>
<filter id="filter15_ii_2843_1929" x="22.1045" y="11.5072" width="13.525" height="14.9755" filterUnits="userSpaceOnUse" color-interpolation-filters="sRGB">
<feFlood flood-opacity="0" result="BackgroundImageFix"/>
<feBlend mode="normal" in="SourceGraphic" in2="BackgroundImageFix" result="shape"/>
<feColorMatrix in="SourceAlpha" type="matrix" values="0 0 0 0 0 0 0 0 0 0 0 0 0 0 0 0 0 0 127 0" result="hardAlpha"/>
<feOffset dx="0.15" dy="-0.15"/>
<feGaussianBlur stdDeviation="0.2"/>
<feComposite in2="hardAlpha" operator="arithmetic" k2="-1" k3="1"/>
<feColorMatrix type="matrix" values="0 0 0 0 0.611765 0 0 0 0 0.568627 0 0 0 0 0.776471 0 0 0 1 0"/>
<feBlend mode="normal" in2="shape" result="effect1_innerShadow_2843_1929"/>
<feColorMatrix in="SourceAlpha" type="matrix" values="0 0 0 0 0 0 0 0 0 0 0 0 0 0 0 0 0 0 127 0" result="hardAlpha"/>
<feOffset dx="-0.25" dy="0.15"/>
<feGaussianBlur stdDeviation="0.15"/>
<feComposite in2="hardAlpha" operator="arithmetic" k2="-1" k3="1"/>
<feColorMatrix type="matrix" values="0 0 0 0 0.94902 0 0 0 0 0.941176 0 0 0 0 0.964706 0 0 0 1 0"/>
<feBlend mode="normal" in2="effect1_innerShadow_2843_1929" result="effect2_innerShadow_2843_1929"/>
</filter>
<linearGradient id="paint0_linear_2843_1929" x1="32.1982" y1="7.26009" x2="23.3389" y2="5.10384" gradientUnits="userSpaceOnUse">
<stop stop-color="#E6E6E6"/>
<stop offset="1" stop-color="#D9D9D9"/>
</linearGradient>
<radialGradient id="paint1_radial_2843_1929" cx="0" cy="0" r="1" gradientUnits="userSpaceOnUse" gradientTransform="translate(34.4951 7.49447) rotate(-165.401) scale(5.20719 18.8592)">
<stop stop-color="#EDEDED"/>
<stop offset="1" stop-color="#EDEDED" stop-opacity="0"/>
</radialGradient>
<linearGradient id="paint2_linear_2843_1929" x1="12.5247" y1="39.4522" x2="6.09672" y2="29.092" gradientUnits="userSpaceOnUse">
<stop stop-color="#8078D1"/>
<stop offset="1" stop-color="#807AB0"/>
</linearGradient>
<radialGradient id="paint3_radial_2843_1929" cx="0" cy="0" r="1" gradientUnits="userSpaceOnUse" gradientTransform="translate(5.85984 28.9749) rotate(140.326) scale(0.982035 0.376558)">
<stop offset="0.267371" stop-color="#07216D"/>
<stop offset="1" stop-color="#07216D" stop-opacity="0"/>
</radialGradient>
<linearGradient id="paint4_linear_2843_1929" x1="13.3363" y1="8.91564" x2="20.3998" y2="6.19892" gradientUnits="userSpaceOnUse">
<stop stop-color="#4876CD"/>
<stop offset="1" stop-color="#4386F5"/>
</linearGradient>
<radialGradient id="paint5_radial_2843_1929" cx="0" cy="0" r="1" gradientUnits="userSpaceOnUse" gradientTransform="translate(19.565 6.41645) rotate(-113.199) scale(1.07097 6.26929)">
<stop offset="0.287356" stop-color="#3496FF"/>
<stop offset="1" stop-color="#3496FF" stop-opacity="0"/>
</radialGradient>
<radialGradient id="paint6_radial_2843_1929" cx="0" cy="0" r="1" gradientUnits="userSpaceOnUse" gradientTransform="translate(12.9517 9.72717) rotate(-10.5278) scale(3.51387 1.31378)">
<stop offset="0.21374" stop-color="#084AA0"/>
<stop offset="1" stop-color="#084AA0" stop-opacity="0"/>
</radialGradient>
<radialGradient id="paint7_radial_2843_1929" cx="0" cy="0" r="1" gradientUnits="userSpaceOnUse" gradientTransform="translate(32.795 40.7748) rotate(58.3629) scale(0.790169 4.56929)">
<stop stop-color="#2C77FF"/>
<stop offset="1" stop-color="#4A67FF"/>
</radialGradient>
<linearGradient id="paint8_linear_2843_1929" x1="44.2451" y1="24.9436" x2="42.3701" y2="24.9436" gradientUnits="userSpaceOnUse">
<stop offset="0.775" stop-color="#5193FF"/>
<stop offset="1" stop-color="#125DCE"/>
</linearGradient>
<radialGradient id="paint9_radial_2843_1929" cx="0" cy="0" r="1" gradientUnits="userSpaceOnUse" gradientTransform="translate(38.9343 14.1829) rotate(-36.4309) scale(0.787872 8.13083)">
<stop stop-color="#A2A4B1"/>
<stop offset="1" stop-color="#A2A4B1" stop-opacity="0"/>
</radialGradient>
<radialGradient id="paint10_radial_2843_1929" cx="0" cy="0" r="1" gradientUnits="userSpaceOnUse" gradientTransform="translate(25.0732 11.9944) rotate(-155.98) scale(9.44272 13.5208)">
<stop stop-color="#DFDFE1"/>
<stop offset="1" stop-color="#BFBEC0"/>
</radialGradient>
<linearGradient id="paint11_linear_2843_1929" x1="7.64897" y1="13.0974" x2="14.5789" y2="16.3168" gradientUnits="userSpaceOnUse">
<stop stop-color="#A09FA2"/>
<stop offset="1" stop-color="#B7B6BA"/>
</linearGradient>
<linearGradient id="paint12_linear_2843_1929" x1="8.99498" y1="20.8538" x2="8.64342" y2="19.9632" gradientUnits="userSpaceOnUse">
<stop stop-color="#847D9D"/>
<stop offset="1" stop-color="#847D9D" stop-opacity="0"/>
</linearGradient>
<radialGradient id="paint13_radial_2843_1929" cx="0" cy="0" r="1" gradientUnits="userSpaceOnUse" gradientTransform="translate(24.1122 42.0881) rotate(103.671) scale(0.892473 4.86613)">
<stop offset="0.417241" stop-color="#6C5DBB"/>
<stop offset="1" stop-color="#6C5DBB" stop-opacity="0"/>
</radialGradient>
<radialGradient id="paint14_radial_2843_1929" cx="0" cy="0" r="1" gradientUnits="userSpaceOnUse" gradientTransform="translate(41.0845 15.1163) rotate(97.9975) scale(13.8645 7.1686)">
<stop stop-color="#F0EFF3"/>
<stop offset="1" stop-color="#E0DEF0"/>
</radialGradient>
<radialGradient id="paint15_radial_2843_1929" cx="0" cy="0" r="1" gradientUnits="userSpaceOnUse" gradientTransform="translate(28.2857 34.8133) rotate(90.9002) scale(7.55703 16.6412)">
<stop stop-color="#B4A6F7"/>
<stop stop-color="#B2A8F8"/>
<stop offset="0.0001" stop-color="#B2A8F8"/>
<stop offset="1" stop-color="#8D7FFE"/>
</radialGradient>
<linearGradient id="paint16_linear_2843_1929" x1="15.4045" y1="25.5881" x2="5.6941" y2="28.9163" gradientUnits="userSpaceOnUse">
<stop stop-color="#A39AC6"/>
<stop offset="1" stop-color="#8A82B2"/>
</linearGradient>
<radialGradient id="paint17_radial_2843_1929" cx="0" cy="0" r="1" gradientUnits="userSpaceOnUse" gradientTransform="translate(37.045 38.7289) rotate(-70.0169) scale(11.3055 37.8345)">
<stop offset="0.340844" stop-color="#B3ADEB"/>
<stop offset="1" stop-color="#DBD8F2"/>
</radialGradient>
<radialGradient id="paint18_radial_2843_1929" cx="0" cy="0" r="1" gradientUnits="userSpaceOnUse" gradientTransform="translate(40.9873 27.6272) rotate(64.0934) scale(0.911957 7.77364)">
<stop offset="0.208079" stop-color="#E8E7EE"/>
<stop offset="1" stop-color="#E8E7EE" stop-opacity="0"/>
</radialGradient>
<radialGradient id="paint19_radial_2843_1929" cx="0" cy="0" r="1" gradientUnits="userSpaceOnUse" gradientTransform="translate(32.9258 24.7267) rotate(86.1004) scale(10.7481 9.60928)">
<stop stop-color="#2987FF"/>
<stop offset="1" stop-color="#1473FF"/>
</radialGradient>
<radialGradient id="paint20_radial_2843_1929" cx="0" cy="0" r="1" gradientUnits="userSpaceOnUse" gradientTransform="translate(18.417 34.6819) rotate(136.032) scale(7.35952 6.71341)">
<stop stop-color="#1153FF"/>
<stop offset="1" stop-color="#254DFF"/>
</radialGradient>
<radialGradient id="paint21_radial_2843_1929" cx="0" cy="0" r="1" gradientUnits="userSpaceOnUse" gradientTransform="translate(18.2295 34.969) rotate(124.472) scale(0.476198 4.72187)">
<stop offset="0.276805" stop-color="#0D44E2"/>
<stop offset="1" stop-color="#0D44E2" stop-opacity="0"/>
</radialGradient>
<linearGradient id="paint22_linear_2843_1929" x1="25.1665" y1="26.7131" x2="18.6977" y2="37.0959" gradientUnits="userSpaceOnUse">
<stop stop-color="#CCC5EB"/>
<stop offset="1" stop-color="#AB9EEA"/>
</linearGradient>
<radialGradient id="paint23_radial_2843_1929" cx="0" cy="0" r="1" gradientUnits="userSpaceOnUse" gradientTransform="translate(21.6045 14.807) rotate(143.771) scale(11.7382 12.0103)">
<stop stop-color="#197AFF"/>
<stop offset="1" stop-color="#1462E6"/>
</radialGradient>
<radialGradient id="paint24_radial_2843_1929" cx="0" cy="0" r="1" gradientUnits="userSpaceOnUse" gradientTransform="translate(36.2294 7.4008) rotate(117.699) scale(8.47077 9.78831)">
<stop stop-color="#3697FF"/>
<stop offset="1" stop-color="#2890FF"/>
</radialGradient>
<radialGradient id="paint25_radial_2843_1929" cx="0" cy="0" r="1" gradientUnits="userSpaceOnUse" gradientTransform="translate(35.4798 15.4419) rotate(155.871) scale(8.72371 11.632)">
<stop stop-color="#ECEAF2"/>
<stop offset="1" stop-color="#D5CEEA"/>
</radialGradient>
</defs>
</svg>
