<svg width="48" height="48" viewBox="0 0 48 48" fill="none" xmlns="http://www.w3.org/2000/svg">
<g id="Stethoscope">
<g id="Subtract" filter="url(#filter0_i_2843_5326)">
<path d="M9.54468 4.32104H7.07422C5.10675 4.32104 3.51172 5.91603 3.51172 7.88354V16.5937L6.88672 18.9375V7.88354C6.88672 7.78 6.97058 7.69604 7.07422 7.69604H9.54468V4.32104Z" fill="url(#paint0_linear_2843_5326)"/>
<path d="M9.54468 4.32104H7.07422C5.10675 4.32104 3.51172 5.91603 3.51172 7.88354V16.5937L6.88672 18.9375V7.88354C6.88672 7.78 6.97058 7.69604 7.07422 7.69604H9.54468V4.32104Z" fill="url(#paint1_radial_2843_5326)"/>
</g>
<g id="Subtract_2" filter="url(#filter1_i_2843_5326)">
<path d="M19.0605 7.64604C19.0605 7.67366 19.0829 7.69604 19.1105 7.69604H22.1217C22.2253 7.69604 22.3092 7.78 22.3092 7.88354V17.3906H25.6842V7.88354C25.6842 5.91603 24.0894 4.32104 22.1217 4.32104H19.1105C19.0829 4.32104 19.0605 4.34343 19.0605 4.37104V7.64604Z" fill="url(#paint2_linear_2843_5326)"/>
</g>
<g id="Union" filter="url(#filter2_i_2843_5326)">
<path d="M3.51172 16.0078V17.0418C3.51172 22.4975 7.45256 27.0327 12.6429 27.9561C12.7514 28.0054 12.9021 28.133 12.9021 28.377H14.0564V28.115C14.2358 28.1236 14.4163 28.128 14.5979 28.128C14.7739 28.128 14.949 28.1239 15.123 28.1158V28.377H16.2773C16.2773 28.1403 16.4191 28.0131 16.5266 27.9608C21.7299 27.0479 25.684 22.5066 25.684 17.0418V16.0078H22.309V17.0418C22.309 21.3006 18.8566 24.753 14.5979 24.753C10.3391 24.753 6.88672 21.3006 6.88672 17.0418V16.0078H3.51172Z" fill="url(#paint3_linear_2843_5326)"/>
</g>
<g id="Union_2" filter="url(#filter3_i_2843_5326)">
<path d="M31.1661 30.0287C31.1661 27.7377 33.0234 25.8804 35.3145 25.8804C37.6056 25.8804 39.4629 27.7377 39.4629 30.0287H42.8379C42.8379 25.8737 39.4696 22.5054 35.3145 22.5054C31.1595 22.5054 27.7911 25.8737 27.7911 30.0287L27.7912 35.2133C27.7912 38.393 25.2135 40.9707 22.0338 40.9707C18.854 40.9707 16.2764 38.393 16.2764 35.2133V27.8885C16.2764 27.6737 16.1843 27.4692 16.0234 27.3268L15.0859 26.4972C14.8021 26.246 14.3756 26.246 14.0918 26.4972L13.1543 27.3268C12.9935 27.4692 12.9014 27.6737 12.9014 27.8885V35.2133C12.9014 40.257 16.9901 44.3457 22.0338 44.3457C27.0775 44.3457 31.1662 40.257 31.1662 35.2133L31.1661 30.0287Z" fill="#5E209E"/>
</g>
<g id="Rectangle 1421" filter="url(#filter4_f_2843_5326)">
<path d="M15.1699 27.5156V37.3281C15.1699 40.0895 17.4085 42.3281 20.1699 42.3281H24.7623C27.5237 42.3281 29.7623 40.0895 29.7623 37.3281V29.3366C29.7623 26.7 31.8997 24.5625 34.5364 24.5625V24.5625H39.3105" stroke="url(#paint4_radial_2843_5326)" stroke-width="0.75"/>
<path d="M15.1699 27.5156V37.3281C15.1699 40.0895 17.4085 42.3281 20.1699 42.3281H24.7623C27.5237 42.3281 29.7623 40.0895 29.7623 37.3281V29.3366C29.7623 26.7 31.8997 24.5625 34.5364 24.5625V24.5625H39.3105" stroke="url(#paint5_radial_2843_5326)" stroke-width="0.75"/>
</g>
<g id="Vector 1187" filter="url(#filter5_f_2843_5326)">
<path d="M37.6699 24C39.0449 24.4688 41.7949 26.2031 41.7949 29.3906" stroke="url(#paint6_linear_2843_5326)" stroke-width="0.75"/>
</g>
<g id="Ellipse 344" filter="url(#filter6_iii_2843_5326)">
<circle cx="40.9204" cy="32.7681" r="4.84619" fill="url(#paint7_linear_2843_5326)"/>
<circle cx="40.9204" cy="32.7681" r="4.84619" fill="url(#paint8_radial_2843_5326)"/>
</g>
<g id="Ellipse 345" filter="url(#filter7_diii_2843_5326)">
<circle cx="40.9206" cy="32.768" r="2.10712" fill="url(#paint9_linear_2843_5326)"/>
</g>
<g id="Rectangle 1422" filter="url(#filter8_f_2843_5326)">
<path d="M5.53809 16.4531V16.9208C5.53809 22.1484 9.77593 26.3863 15.0036 26.3863V26.3863C20.2312 26.3863 24.4691 22.1484 24.4691 16.9208V16.4531" stroke="url(#paint10_radial_2843_5326)" stroke-width="0.65"/>
<path d="M5.53809 16.4531V16.9208C5.53809 22.1484 9.77593 26.3863 15.0036 26.3863V26.3863C20.2312 26.3863 24.4691 22.1484 24.4691 16.9208V16.4531" stroke="url(#paint11_radial_2843_5326)" stroke-width="0.65"/>
</g>
<g id="Intersect">
<path d="M8.34142 7.69604L8.34142 4.32104L9.86816 4.32104C10.8001 4.32104 11.5557 5.07656 11.5557 6.00854C11.5557 6.94053 10.8001 7.69604 9.86816 7.69604L8.34142 7.69604Z" fill="#53208D"/>
<path d="M8.34142 7.69604L8.34142 4.32104L9.86816 4.32104C10.8001 4.32104 11.5557 5.07656 11.5557 6.00854C11.5557 6.94053 10.8001 7.69604 9.86816 7.69604L8.34142 7.69604Z" fill="url(#paint12_linear_2843_5326)"/>
<path d="M8.34142 7.69604L8.34142 4.32104L9.86816 4.32104C10.8001 4.32104 11.5557 5.07656 11.5557 6.00854C11.5557 6.94053 10.8001 7.69604 9.86816 7.69604L8.34142 7.69604Z" fill="url(#paint13_radial_2843_5326)"/>
</g>
<g id="Vector 1188" filter="url(#filter9_f_2843_5326)">
<path d="M22.2012 5.36719C23.0137 5.39062 24.6387 5.925 24.6387 7.875C24.6387 9.825 24.6387 13.3125 24.6387 14.8125" stroke="url(#paint14_radial_2843_5326)" stroke-width="0.75"/>
</g>
<g id="Intersect_2">
<path d="M20.8265 4.32104V7.69604H19.2998C18.3678 7.69604 17.6123 6.94053 17.6123 6.00854C17.6123 5.07656 18.3678 4.32104 19.2998 4.32104H20.8265Z" fill="#541B8D"/>
<path d="M20.8265 4.32104V7.69604H19.2998C18.3678 7.69604 17.6123 6.94053 17.6123 6.00854C17.6123 5.07656 18.3678 4.32104 19.2998 4.32104H20.8265Z" fill="url(#paint15_radial_2843_5326)"/>
<path d="M20.8265 4.32104V7.69604H19.2998C18.3678 7.69604 17.6123 6.94053 17.6123 6.00854C17.6123 5.07656 18.3678 4.32104 19.2998 4.32104H20.8265Z" fill="url(#paint16_radial_2843_5326)"/>
</g>
<g id="Vector 1189" filter="url(#filter10_f_2843_5326)">
<path d="M6.31055 6.1875C6.0293 6.35938 5.4668 6.91875 5.4668 7.78125C5.4668 8.64375 5.4668 13.1719 5.4668 15.3281" stroke="url(#paint17_linear_2843_5326)" stroke-width="0.75"/>
</g>
</g>
<defs>
<filter id="filter0_i_2843_5326" x="3.51172" y="3.82104" width="6.5332" height="15.1165" filterUnits="userSpaceOnUse" color-interpolation-filters="sRGB">
<feFlood flood-opacity="0" result="BackgroundImageFix"/>
<feBlend mode="normal" in="SourceGraphic" in2="BackgroundImageFix" result="shape"/>
<feColorMatrix in="SourceAlpha" type="matrix" values="0 0 0 0 0 0 0 0 0 0 0 0 0 0 0 0 0 0 127 0" result="hardAlpha"/>
<feOffset dx="0.5" dy="-0.5"/>
<feGaussianBlur stdDeviation="0.5"/>
<feComposite in2="hardAlpha" operator="arithmetic" k2="-1" k3="1"/>
<feColorMatrix type="matrix" values="0 0 0 0 0.227451 0 0 0 0 0.490196 0 0 0 0 0.823529 0 0 0 1 0"/>
<feBlend mode="normal" in2="shape" result="effect1_innerShadow_2843_5326"/>
</filter>
<filter id="filter1_i_2843_5326" x="19.0605" y="3.82104" width="7.37402" height="13.5696" filterUnits="userSpaceOnUse" color-interpolation-filters="sRGB">
<feFlood flood-opacity="0" result="BackgroundImageFix"/>
<feBlend mode="normal" in="SourceGraphic" in2="BackgroundImageFix" result="shape"/>
<feColorMatrix in="SourceAlpha" type="matrix" values="0 0 0 0 0 0 0 0 0 0 0 0 0 0 0 0 0 0 127 0" result="hardAlpha"/>
<feOffset dx="0.75" dy="-0.5"/>
<feGaussianBlur stdDeviation="0.375"/>
<feComposite in2="hardAlpha" operator="arithmetic" k2="-1" k3="1"/>
<feColorMatrix type="matrix" values="0 0 0 0 0.192157 0 0 0 0 0.494118 0 0 0 0 0.980392 0 0 0 1 0"/>
<feBlend mode="normal" in2="shape" result="effect1_innerShadow_2843_5326"/>
</filter>
<filter id="filter2_i_2843_5326" x="3.51172" y="16.0078" width="22.9219" height="12.3691" filterUnits="userSpaceOnUse" color-interpolation-filters="sRGB">
<feFlood flood-opacity="0" result="BackgroundImageFix"/>
<feBlend mode="normal" in="SourceGraphic" in2="BackgroundImageFix" result="shape"/>
<feColorMatrix in="SourceAlpha" type="matrix" values="0 0 0 0 0 0 0 0 0 0 0 0 0 0 0 0 0 0 127 0" result="hardAlpha"/>
<feOffset dx="0.75"/>
<feGaussianBlur stdDeviation="0.375"/>
<feComposite in2="hardAlpha" operator="arithmetic" k2="-1" k3="1"/>
<feColorMatrix type="matrix" values="0 0 0 0 0.266667 0 0 0 0 0.172549 0 0 0 0 0.415686 0 0 0 1 0"/>
<feBlend mode="normal" in2="shape" result="effect1_innerShadow_2843_5326"/>
</filter>
<filter id="filter3_i_2843_5326" x="12.9014" y="22.5054" width="30.6865" height="22.2403" filterUnits="userSpaceOnUse" color-interpolation-filters="sRGB">
<feFlood flood-opacity="0" result="BackgroundImageFix"/>
<feBlend mode="normal" in="SourceGraphic" in2="BackgroundImageFix" result="shape"/>
<feColorMatrix in="SourceAlpha" type="matrix" values="0 0 0 0 0 0 0 0 0 0 0 0 0 0 0 0 0 0 127 0" result="hardAlpha"/>
<feOffset dx="0.75" dy="0.4"/>
<feGaussianBlur stdDeviation="0.375"/>
<feComposite in2="hardAlpha" operator="arithmetic" k2="-1" k3="1"/>
<feColorMatrix type="matrix" values="0 0 0 0 0.27451 0 0 0 0 0.168627 0 0 0 0 0.443137 0 0 0 1 0"/>
<feBlend mode="normal" in2="shape" result="effect1_innerShadow_2843_5326"/>
</filter>
<filter id="filter4_f_2843_5326" x="14.2949" y="23.6875" width="25.5156" height="19.5156" filterUnits="userSpaceOnUse" color-interpolation-filters="sRGB">
<feFlood flood-opacity="0" result="BackgroundImageFix"/>
<feBlend mode="normal" in="SourceGraphic" in2="BackgroundImageFix" result="shape"/>
<feGaussianBlur stdDeviation="0.25" result="effect1_foregroundBlur_2843_5326"/>
</filter>
<filter id="filter5_f_2843_5326" x="37.0488" y="23.145" width="5.62109" height="6.74561" filterUnits="userSpaceOnUse" color-interpolation-filters="sRGB">
<feFlood flood-opacity="0" result="BackgroundImageFix"/>
<feBlend mode="normal" in="SourceGraphic" in2="BackgroundImageFix" result="shape"/>
<feGaussianBlur stdDeviation="0.25" result="effect1_foregroundBlur_2843_5326"/>
</filter>
<filter id="filter6_iii_2843_5326" x="35.9742" y="27.8219" width="9.89238" height="9.89238" filterUnits="userSpaceOnUse" color-interpolation-filters="sRGB">
<feFlood flood-opacity="0" result="BackgroundImageFix"/>
<feBlend mode="normal" in="SourceGraphic" in2="BackgroundImageFix" result="shape"/>
<feColorMatrix in="SourceAlpha" type="matrix" values="0 0 0 0 0 0 0 0 0 0 0 0 0 0 0 0 0 0 127 0" result="hardAlpha"/>
<feOffset dx="-0.1" dy="0.1"/>
<feGaussianBlur stdDeviation="0.05"/>
<feComposite in2="hardAlpha" operator="arithmetic" k2="-1" k3="1"/>
<feColorMatrix type="matrix" values="0 0 0 0 0.32549 0 0 0 0 0.74902 0 0 0 0 1 0 0 0 1 0"/>
<feBlend mode="normal" in2="shape" result="effect1_innerShadow_2843_5326"/>
<feColorMatrix in="SourceAlpha" type="matrix" values="0 0 0 0 0 0 0 0 0 0 0 0 0 0 0 0 0 0 127 0" result="hardAlpha"/>
<feOffset dx="0.1"/>
<feGaussianBlur stdDeviation="0.05"/>
<feComposite in2="hardAlpha" operator="arithmetic" k2="-1" k3="1"/>
<feColorMatrix type="matrix" values="0 0 0 0 0.25098 0 0 0 0 0.384314 0 0 0 0 1 0 0 0 1 0"/>
<feBlend mode="normal" in2="effect1_innerShadow_2843_5326" result="effect2_innerShadow_2843_5326"/>
<feColorMatrix in="SourceAlpha" type="matrix" values="0 0 0 0 0 0 0 0 0 0 0 0 0 0 0 0 0 0 127 0" result="hardAlpha"/>
<feOffset dy="-0.1"/>
<feGaussianBlur stdDeviation="0.05"/>
<feComposite in2="hardAlpha" operator="arithmetic" k2="-1" k3="1"/>
<feColorMatrix type="matrix" values="0 0 0 0 0.301961 0 0 0 0 0.427451 0 0 0 0 0.807843 0 0 0 1 0"/>
<feBlend mode="normal" in2="effect2_innerShadow_2843_5326" result="effect3_innerShadow_2843_5326"/>
</filter>
<filter id="filter7_diii_2843_5326" x="38.5635" y="30.5109" width="4.61387" height="4.61436" filterUnits="userSpaceOnUse" color-interpolation-filters="sRGB">
<feFlood flood-opacity="0" result="BackgroundImageFix"/>
<feColorMatrix in="SourceAlpha" type="matrix" values="0 0 0 0 0 0 0 0 0 0 0 0 0 0 0 0 0 0 127 0" result="hardAlpha"/>
<feOffset dx="-0.05" dy="0.05"/>
<feGaussianBlur stdDeviation="0.1"/>
<feComposite in2="hardAlpha" operator="out"/>
<feColorMatrix type="matrix" values="0 0 0 0 0.180392 0 0 0 0 0.392157 0 0 0 0 1 0 0 0 1 0"/>
<feBlend mode="normal" in2="BackgroundImageFix" result="effect1_dropShadow_2843_5326"/>
<feBlend mode="normal" in="SourceGraphic" in2="effect1_dropShadow_2843_5326" result="shape"/>
<feColorMatrix in="SourceAlpha" type="matrix" values="0 0 0 0 0 0 0 0 0 0 0 0 0 0 0 0 0 0 127 0" result="hardAlpha"/>
<feOffset dx="-0.05" dy="0.05"/>
<feGaussianBlur stdDeviation="0.05"/>
<feComposite in2="hardAlpha" operator="arithmetic" k2="-1" k3="1"/>
<feColorMatrix type="matrix" values="0 0 0 0 0.329412 0 0 0 0 0.592157 0 0 0 0 0.960784 0 0 0 1 0"/>
<feBlend mode="normal" in2="shape" result="effect2_innerShadow_2843_5326"/>
<feColorMatrix in="SourceAlpha" type="matrix" values="0 0 0 0 0 0 0 0 0 0 0 0 0 0 0 0 0 0 127 0" result="hardAlpha"/>
<feOffset dx="0.05" dy="-0.05"/>
<feGaussianBlur stdDeviation="0.05"/>
<feComposite in2="hardAlpha" operator="arithmetic" k2="-1" k3="1"/>
<feColorMatrix type="matrix" values="0 0 0 0 0.117647 0 0 0 0 0.290196 0 0 0 0 0.941176 0 0 0 1 0"/>
<feBlend mode="normal" in2="effect2_innerShadow_2843_5326" result="effect3_innerShadow_2843_5326"/>
<feColorMatrix in="SourceAlpha" type="matrix" values="0 0 0 0 0 0 0 0 0 0 0 0 0 0 0 0 0 0 127 0" result="hardAlpha"/>
<feOffset dx="0.05"/>
<feGaussianBlur stdDeviation="0.05"/>
<feComposite in2="hardAlpha" operator="arithmetic" k2="-1" k3="1"/>
<feColorMatrix type="matrix" values="0 0 0 0 0.117647 0 0 0 0 0.290196 0 0 0 0 0.941176 0 0 0 1 0"/>
<feBlend mode="normal" in2="effect3_innerShadow_2843_5326" result="effect4_innerShadow_2843_5326"/>
</filter>
<filter id="filter8_f_2843_5326" x="4.71289" y="15.9531" width="20.5811" height="11.2581" filterUnits="userSpaceOnUse" color-interpolation-filters="sRGB">
<feFlood flood-opacity="0" result="BackgroundImageFix"/>
<feBlend mode="normal" in="SourceGraphic" in2="BackgroundImageFix" result="shape"/>
<feGaussianBlur stdDeviation="0.25" result="effect1_foregroundBlur_2843_5326"/>
</filter>
<filter id="filter9_f_2843_5326" x="21.6904" y="4.49243" width="3.82324" height="10.8201" filterUnits="userSpaceOnUse" color-interpolation-filters="sRGB">
<feFlood flood-opacity="0" result="BackgroundImageFix"/>
<feBlend mode="normal" in="SourceGraphic" in2="BackgroundImageFix" result="shape"/>
<feGaussianBlur stdDeviation="0.25" result="effect1_foregroundBlur_2843_5326"/>
</filter>
<filter id="filter10_f_2843_5326" x="4.5918" y="5.36743" width="2.41406" height="10.4607" filterUnits="userSpaceOnUse" color-interpolation-filters="sRGB">
<feFlood flood-opacity="0" result="BackgroundImageFix"/>
<feBlend mode="normal" in="SourceGraphic" in2="BackgroundImageFix" result="shape"/>
<feGaussianBlur stdDeviation="0.25" result="effect1_foregroundBlur_2843_5326"/>
</filter>
<linearGradient id="paint0_linear_2843_5326" x1="6.5697" y1="8.50491" x2="6.5697" y2="14.7713" gradientUnits="userSpaceOnUse">
<stop stop-color="#42C5FF"/>
<stop offset="1" stop-color="#58B3FF"/>
</linearGradient>
<radialGradient id="paint1_radial_2843_5326" cx="0" cy="0" r="1" gradientUnits="userSpaceOnUse" gradientTransform="translate(8.32593 7.92184) rotate(-143.807) scale(2.38142 1.40615)">
<stop stop-color="#4984FF"/>
<stop offset="1" stop-color="#4984FF" stop-opacity="0"/>
</radialGradient>
<linearGradient id="paint2_linear_2843_5326" x1="23.2551" y1="8.99996" x2="23.2551" y2="16.0078" gradientUnits="userSpaceOnUse">
<stop stop-color="#4BDCFF"/>
<stop offset="1" stop-color="#54A4FF"/>
</linearGradient>
<linearGradient id="paint3_linear_2843_5326" x1="9.72131" y1="22.8238" x2="25.684" y2="22.6581" gradientUnits="userSpaceOnUse">
<stop stop-color="#5728A8"/>
<stop offset="1" stop-color="#592793"/>
</linearGradient>
<radialGradient id="paint4_radial_2843_5326" cx="0" cy="0" r="1" gradientUnits="userSpaceOnUse" gradientTransform="translate(12.732 29.1094) rotate(50.3792) scale(16.4915 15.9923)">
<stop offset="0.72927" stop-color="#6F52A9"/>
<stop offset="1" stop-color="#6F52A9" stop-opacity="0"/>
</radialGradient>
<radialGradient id="paint5_radial_2843_5326" cx="0" cy="0" r="1" gradientUnits="userSpaceOnUse" gradientTransform="translate(30.4191 29.4375) rotate(114.627) scale(10.2099 9.991)">
<stop offset="0.195586" stop-color="#6F52A9"/>
<stop offset="1" stop-color="#6F52A9" stop-opacity="0"/>
</radialGradient>
<linearGradient id="paint6_linear_2843_5326" x1="42.2168" y1="28.7344" x2="34.6699" y2="23.3437" gradientUnits="userSpaceOnUse">
<stop offset="0.306694" stop-color="#7A62A0"/>
<stop offset="1" stop-color="#7A62A0" stop-opacity="0"/>
</linearGradient>
<linearGradient id="paint7_linear_2843_5326" x1="45.7665" y1="29.7657" x2="37.2948" y2="36.797" gradientUnits="userSpaceOnUse">
<stop stop-color="#3595FF"/>
<stop offset="1" stop-color="#3690FF"/>
</linearGradient>
<radialGradient id="paint8_radial_2843_5326" cx="0" cy="0" r="1" gradientUnits="userSpaceOnUse" gradientTransform="translate(42.1464 32.2032) rotate(135) scale(5.83363)">
<stop offset="0.8125" stop-color="#3386FF" stop-opacity="0"/>
<stop offset="0.995789" stop-color="#3386FF"/>
</radialGradient>
<linearGradient id="paint9_linear_2843_5326" x1="43.295" y1="32.768" x2="38.8135" y2="32.768" gradientUnits="userSpaceOnUse">
<stop stop-color="#3677EF"/>
<stop offset="0.89953" stop-color="#3571E6"/>
</linearGradient>
<radialGradient id="paint10_radial_2843_5326" cx="0" cy="0" r="1" gradientUnits="userSpaceOnUse" gradientTransform="translate(5.53808 15.6159) rotate(46.4737) scale(17.0826 10.1764)">
<stop offset="0.49896" stop-color="#7567B7"/>
<stop offset="1" stop-color="#7567B7" stop-opacity="0"/>
</radialGradient>
<radialGradient id="paint11_radial_2843_5326" cx="0" cy="0" r="1" gradientUnits="userSpaceOnUse" gradientTransform="translate(25.0112 15.9473) rotate(113.604) scale(11.6633 7.29325)">
<stop stop-color="#6D4D9B"/>
<stop offset="1" stop-color="#6D4D9B" stop-opacity="0"/>
</radialGradient>
<linearGradient id="paint12_linear_2843_5326" x1="9.31116" y1="4.1484" x2="9.31116" y2="6.67965" gradientUnits="userSpaceOnUse">
<stop stop-color="#483264"/>
<stop offset="1" stop-color="#483264" stop-opacity="0"/>
</linearGradient>
<radialGradient id="paint13_radial_2843_5326" cx="0" cy="0" r="1" gradientUnits="userSpaceOnUse" gradientTransform="translate(10.8815 5.71871) rotate(165.579) scale(1.694 1.20078)">
<stop stop-color="#705D91"/>
<stop offset="1" stop-color="#705D91" stop-opacity="0"/>
</radialGradient>
<radialGradient id="paint14_radial_2843_5326" cx="0" cy="0" r="1" gradientUnits="userSpaceOnUse" gradientTransform="translate(24.9199 5.76563) rotate(90.3559) scale(7.54702 4.7141)">
<stop stop-color="#65E8FF"/>
<stop offset="1" stop-color="#65E8FF" stop-opacity="0"/>
</radialGradient>
<radialGradient id="paint15_radial_2843_5326" cx="0" cy="0" r="1" gradientUnits="userSpaceOnUse" gradientTransform="translate(20.4095 7.69605) rotate(-134.071) scale(3.27559 4.00961)">
<stop offset="0.335476" stop-color="#3C2B5C" stop-opacity="0"/>
<stop offset="0.967777" stop-color="#3C2B5C"/>
</radialGradient>
<radialGradient id="paint16_radial_2843_5326" cx="0" cy="0" r="1" gradientUnits="userSpaceOnUse" gradientTransform="translate(20.8265 5.54974) rotate(179.45) scale(2.15691 1.22875)">
<stop stop-color="#4F3276"/>
<stop offset="1" stop-color="#4F3276" stop-opacity="0"/>
</radialGradient>
<linearGradient id="paint17_linear_2843_5326" x1="6.31055" y1="0.890625" x2="9.78088" y2="1.87025" gradientUnits="userSpaceOnUse">
<stop stop-color="#65E8FF"/>
<stop offset="1" stop-color="#65E8FF" stop-opacity="0"/>
</linearGradient>
</defs>
</svg>
