<svg width="48" height="48" viewBox="0 0 48 48" fill="none" xmlns="http://www.w3.org/2000/svg">
<g id="T-shirt">
<g id="Back">
<path d="M24.0029 19.8302C27.3814 19.8302 30.1201 17.0914 30.1201 13.713C30.1201 13.6739 30.1198 13.6348 30.119 13.5958H17.8868C17.8861 13.6348 17.8857 13.6739 17.8857 13.713C17.8857 17.0914 20.6245 19.8302 24.0029 19.8302Z" fill="url(#paint0_linear_2316_55760)"/>
<path d="M24.0029 19.8302C27.3814 19.8302 30.1201 17.0914 30.1201 13.713C30.1201 13.6739 30.1198 13.6348 30.119 13.5958H17.8868C17.8861 13.6348 17.8857 13.6739 17.8857 13.713C17.8857 17.0914 20.6245 19.8302 24.0029 19.8302Z" fill="url(#paint1_radial_2316_55760)"/>
</g>
<g id="Neck" filter="url(#filter0_f_2316_55760)">
<path d="M17.4355 15.4693C17.2717 15.4693 17.1357 15.5978 17.1357 15.7616C17.1357 18.908 20.5487 20.557 23.6997 20.557C26.8507 20.557 29.4081 18.0094 29.4081 14.8629C29.4081 14.6991 29.2722 14.5707 29.1083 14.5707H28.4442C28.2858 14.5707 28.1612 14.7046 28.1612 14.8629C28.1612 17.3174 26.1654 19.3102 23.6997 19.3102C21.234 19.3102 18.3826 18.216 18.3826 15.7616C18.3826 15.6032 18.258 15.4693 18.0997 15.4693H17.4355Z" fill="#4B892A"/>
</g>
<g id="L-Sleeve">
<path d="M3.71162 20.6099C3.30327 19.9029 3.53327 19.0005 4.23194 18.5782C6.40302 17.2658 10.6699 14.6902 11.1037 14.457C11.8755 14.0421 12.2462 13.9471 12.2462 13.9471L17.5608 22.0891L9.11467 26.9655C8.39733 27.3796 7.48008 27.134 7.06578 26.4167L3.71162 20.6099Z" fill="url(#paint2_linear_2316_55760)"/>
<path d="M3.71162 20.6099C3.30327 19.9029 3.53327 19.0005 4.23194 18.5782C6.40302 17.2658 10.6699 14.6902 11.1037 14.457C11.8755 14.0421 12.2462 13.9471 12.2462 13.9471L17.5608 22.0891L9.11467 26.9655C8.39733 27.3796 7.48008 27.134 7.06578 26.4167L3.71162 20.6099Z" fill="url(#paint3_linear_2316_55760)"/>
<path d="M3.71162 20.6099C3.30327 19.9029 3.53327 19.0005 4.23194 18.5782C6.40302 17.2658 10.6699 14.6902 11.1037 14.457C11.8755 14.0421 12.2462 13.9471 12.2462 13.9471L17.5608 22.0891L9.11467 26.9655C8.39733 27.3796 7.48008 27.134 7.06578 26.4167L3.71162 20.6099Z" fill="url(#paint4_radial_2316_55760)"/>
<path d="M3.71162 20.6099C3.30327 19.9029 3.53327 19.0005 4.23194 18.5782C6.40302 17.2658 10.6699 14.6902 11.1037 14.457C11.8755 14.0421 12.2462 13.9471 12.2462 13.9471L17.5608 22.0891L9.11467 26.9655C8.39733 27.3796 7.48008 27.134 7.06578 26.4167L3.71162 20.6099Z" fill="url(#paint5_linear_2316_55760)"/>
<path d="M3.71162 20.6099C3.30327 19.9029 3.53327 19.0005 4.23194 18.5782C6.40302 17.2658 10.6699 14.6902 11.1037 14.457C11.8755 14.0421 12.2462 13.9471 12.2462 13.9471L17.5608 22.0891L9.11467 26.9655C8.39733 27.3796 7.48008 27.134 7.06578 26.4167L3.71162 20.6099Z" fill="url(#paint6_radial_2316_55760)"/>
</g>
<g id="R-Sleeve">
<path d="M44.294 20.6099C44.7024 19.9029 44.4724 19.0005 43.7737 18.5782C41.6026 17.2658 37.5928 14.8284 36.902 14.457C36.2111 14.0857 35.7594 13.9471 35.7594 13.9471L30.4448 22.0891L38.891 26.9655C39.6083 27.3796 40.5256 27.134 40.9399 26.4167L44.294 20.6099Z" fill="url(#paint7_linear_2316_55760)"/>
<path d="M44.294 20.6099C44.7024 19.9029 44.4724 19.0005 43.7737 18.5782C41.6026 17.2658 37.5928 14.8284 36.902 14.457C36.2111 14.0857 35.7594 13.9471 35.7594 13.9471L30.4448 22.0891L38.891 26.9655C39.6083 27.3796 40.5256 27.134 40.9399 26.4167L44.294 20.6099Z" fill="url(#paint8_linear_2316_55760)"/>
<path d="M44.294 20.6099C44.7024 19.9029 44.4724 19.0005 43.7737 18.5782C41.6026 17.2658 37.5928 14.8284 36.902 14.457C36.2111 14.0857 35.7594 13.9471 35.7594 13.9471L30.4448 22.0891L38.891 26.9655C39.6083 27.3796 40.5256 27.134 40.9399 26.4167L44.294 20.6099Z" fill="url(#paint9_radial_2316_55760)"/>
<path d="M44.294 20.6099C44.7024 19.9029 44.4724 19.0005 43.7737 18.5782C41.6026 17.2658 37.5928 14.8284 36.902 14.457C36.2111 14.0857 35.7594 13.9471 35.7594 13.9471L30.4448 22.0891L38.891 26.9655C39.6083 27.3796 40.5256 27.134 40.9399 26.4167L44.294 20.6099Z" fill="url(#paint10_linear_2316_55760)"/>
<path d="M44.294 20.6099C44.7024 19.9029 44.4724 19.0005 43.7737 18.5782C41.6026 17.2658 37.5928 14.8284 36.902 14.457C36.2111 14.0857 35.7594 13.9471 35.7594 13.9471L30.4448 22.0891L38.891 26.9655C39.6083 27.3796 40.5256 27.134 40.9399 26.4167L44.294 20.6099Z" fill="url(#paint11_linear_2316_55760)"/>
</g>
<g id="Torso">
<path d="M14.9518 13.5958C14.0346 13.5958 13.1213 13.714 12.2344 13.9474V44.0646C12.2344 44.4788 12.5701 44.8146 12.9844 44.8146H35.0156C35.4299 44.8146 35.7656 44.4788 35.7656 44.0646V13.9474L35.7033 13.9323C34.7794 13.7088 33.8321 13.5958 32.8815 13.5958H30.1189C30.1196 13.6348 30.12 13.6739 30.12 13.713C30.12 17.0914 27.3812 19.8302 24.0028 19.8302C20.6244 19.8302 17.8856 17.0914 17.8856 13.713C17.8856 13.6739 17.886 13.6348 17.8867 13.5958H14.9518Z" fill="url(#paint12_linear_2316_55760)"/>
<path d="M14.9518 13.5958C14.0346 13.5958 13.1213 13.714 12.2344 13.9474V44.0646C12.2344 44.4788 12.5701 44.8146 12.9844 44.8146H35.0156C35.4299 44.8146 35.7656 44.4788 35.7656 44.0646V13.9474L35.7033 13.9323C34.7794 13.7088 33.8321 13.5958 32.8815 13.5958H30.1189C30.1196 13.6348 30.12 13.6739 30.12 13.713C30.12 17.0914 27.3812 19.8302 24.0028 19.8302C20.6244 19.8302 17.8856 17.0914 17.8856 13.713C17.8856 13.6739 17.886 13.6348 17.8867 13.5958H14.9518Z" fill="url(#paint13_linear_2316_55760)"/>
<path d="M14.9518 13.5958C14.0346 13.5958 13.1213 13.714 12.2344 13.9474V44.0646C12.2344 44.4788 12.5701 44.8146 12.9844 44.8146H35.0156C35.4299 44.8146 35.7656 44.4788 35.7656 44.0646V13.9474L35.7033 13.9323C34.7794 13.7088 33.8321 13.5958 32.8815 13.5958H30.1189C30.1196 13.6348 30.12 13.6739 30.12 13.713C30.12 17.0914 27.3812 19.8302 24.0028 19.8302C20.6244 19.8302 17.8856 17.0914 17.8856 13.713C17.8856 13.6739 17.886 13.6348 17.8867 13.5958H14.9518Z" fill="url(#paint14_linear_2316_55760)"/>
<path d="M14.9518 13.5958C14.0346 13.5958 13.1213 13.714 12.2344 13.9474V44.0646C12.2344 44.4788 12.5701 44.8146 12.9844 44.8146H35.0156C35.4299 44.8146 35.7656 44.4788 35.7656 44.0646V13.9474L35.7033 13.9323C34.7794 13.7088 33.8321 13.5958 32.8815 13.5958H30.1189C30.1196 13.6348 30.12 13.6739 30.12 13.713C30.12 17.0914 27.3812 19.8302 24.0028 19.8302C20.6244 19.8302 17.8856 17.0914 17.8856 13.713C17.8856 13.6739 17.886 13.6348 17.8867 13.5958H14.9518Z" fill="url(#paint15_linear_2316_55760)"/>
<path d="M14.9518 13.5958C14.0346 13.5958 13.1213 13.714 12.2344 13.9474V44.0646C12.2344 44.4788 12.5701 44.8146 12.9844 44.8146H35.0156C35.4299 44.8146 35.7656 44.4788 35.7656 44.0646V13.9474L35.7033 13.9323C34.7794 13.7088 33.8321 13.5958 32.8815 13.5958H30.1189C30.1196 13.6348 30.12 13.6739 30.12 13.713C30.12 17.0914 27.3812 19.8302 24.0028 19.8302C20.6244 19.8302 17.8856 17.0914 17.8856 13.713C17.8856 13.6739 17.886 13.6348 17.8867 13.5958H14.9518Z" fill="url(#paint16_radial_2316_55760)"/>
</g>
<path id="Graphic" d="M12.2344 28.0802V23.1583H35.7656V28.0802H12.2344Z" fill="url(#paint17_linear_2316_55760)"/>
<g id="Neck_2" filter="url(#filter1_ii_2316_55760)">
<path d="M17.4964 13.3787C17.2993 13.3787 17.1357 13.5332 17.1357 13.7303C17.1357 17.5154 20.2123 20.5802 24.0029 20.5802C27.7936 20.5802 30.8701 17.5154 30.8701 13.7303C30.8701 13.5332 30.7066 13.3787 30.5095 13.3787H29.7105C29.52 13.3787 29.3701 13.5397 29.3701 13.7303C29.3701 16.683 26.9691 19.0802 24.0029 19.0802C21.0367 19.0802 18.6357 16.683 18.6357 13.7303C18.6357 13.5397 18.4858 13.3787 18.2953 13.3787H17.4964Z" fill="url(#paint18_linear_2316_55760)"/>
</g>
</g>
<defs>
<filter id="filter0_f_2316_55760" x="16.1357" y="13.5707" width="14.2725" height="7.98633" filterUnits="userSpaceOnUse" color-interpolation-filters="sRGB">
<feFlood flood-opacity="0" result="BackgroundImageFix"/>
<feBlend mode="normal" in="SourceGraphic" in2="BackgroundImageFix" result="shape"/>
<feGaussianBlur stdDeviation="0.5" result="effect1_foregroundBlur_2316_55760"/>
</filter>
<filter id="filter1_ii_2316_55760" x="16.9357" y="13.1787" width="14.0344" height="7.50154" filterUnits="userSpaceOnUse" color-interpolation-filters="sRGB">
<feFlood flood-opacity="0" result="BackgroundImageFix"/>
<feBlend mode="normal" in="SourceGraphic" in2="BackgroundImageFix" result="shape"/>
<feColorMatrix in="SourceAlpha" type="matrix" values="0 0 0 0 0 0 0 0 0 0 0 0 0 0 0 0 0 0 127 0" result="hardAlpha"/>
<feOffset dx="0.1" dy="-0.2"/>
<feGaussianBlur stdDeviation="0.1"/>
<feComposite in2="hardAlpha" operator="arithmetic" k2="-1" k3="1"/>
<feColorMatrix type="matrix" values="0 0 0 0 0.164706 0 0 0 0 0.705882 0 0 0 0 0.368627 0 0 0 1 0"/>
<feBlend mode="normal" in2="shape" result="effect1_innerShadow_2316_55760"/>
<feColorMatrix in="SourceAlpha" type="matrix" values="0 0 0 0 0 0 0 0 0 0 0 0 0 0 0 0 0 0 127 0" result="hardAlpha"/>
<feOffset dx="-0.2" dy="0.1"/>
<feGaussianBlur stdDeviation="0.1"/>
<feComposite in2="hardAlpha" operator="arithmetic" k2="-1" k3="1"/>
<feColorMatrix type="matrix" values="0 0 0 0 0.286275 0 0 0 0 0.843137 0 0 0 0 0.486275 0 0 0 1 0"/>
<feBlend mode="normal" in2="effect1_innerShadow_2316_55760" result="effect2_innerShadow_2316_55760"/>
</filter>
<linearGradient id="paint0_linear_2316_55760" x1="24.0029" y1="13.5958" x2="24.0029" y2="18.3302" gradientUnits="userSpaceOnUse">
<stop stop-color="#A4D047"/>
<stop offset="1" stop-color="#66A749"/>
</linearGradient>
<radialGradient id="paint1_radial_2316_55760" cx="0" cy="0" r="1" gradientUnits="userSpaceOnUse" gradientTransform="translate(24.0029 13.5958) rotate(90) scale(5.90625 8.88422)">
<stop offset="0.484127" stop-color="#7FB84A" stop-opacity="0"/>
<stop offset="0.944444" stop-color="#4C8A3B"/>
</radialGradient>
<linearGradient id="paint2_linear_2316_55760" x1="13.2658" y1="19.9238" x2="6.04706" y2="24.4238" gradientUnits="userSpaceOnUse">
<stop stop-color="#90CC68"/>
<stop offset="1" stop-color="#98D766"/>
</linearGradient>
<linearGradient id="paint3_linear_2316_55760" x1="7.87518" y1="16.0332" x2="9.18768" y2="18.3301" gradientUnits="userSpaceOnUse">
<stop stop-color="#A6E36C"/>
<stop offset="1" stop-color="#A6E36C" stop-opacity="0"/>
</linearGradient>
<radialGradient id="paint4_radial_2316_55760" cx="0" cy="0" r="1" gradientUnits="userSpaceOnUse" gradientTransform="translate(4.54706 23.0645) rotate(-32.3998) scale(2.88691 15.1751)">
<stop offset="0.293699" stop-color="#7AB25C"/>
<stop offset="1" stop-color="#93D263" stop-opacity="0"/>
</radialGradient>
<linearGradient id="paint5_linear_2316_55760" x1="12.3283" y1="25.877" x2="10.2189" y2="23.2051" gradientUnits="userSpaceOnUse">
<stop offset="0.130238" stop-color="#619B51"/>
<stop offset="1" stop-color="#85C26C" stop-opacity="0"/>
</linearGradient>
<radialGradient id="paint6_radial_2316_55760" cx="0" cy="0" r="1" gradientUnits="userSpaceOnUse" gradientTransform="translate(12.7971 23.5332) rotate(180) scale(1.59375 8.10938)">
<stop offset="0.125001" stop-color="#72B25A"/>
<stop offset="1" stop-color="#72B25A" stop-opacity="0"/>
</radialGradient>
<linearGradient id="paint7_linear_2316_55760" x1="35.8124" y1="20.0645" x2="43.2186" y2="23.3457" gradientUnits="userSpaceOnUse">
<stop stop-color="#95D669"/>
<stop offset="1" stop-color="#8FD670"/>
</linearGradient>
<linearGradient id="paint8_linear_2316_55760" x1="40.3593" y1="16.3145" x2="38.6249" y2="19.4551" gradientUnits="userSpaceOnUse">
<stop offset="0.174377" stop-color="#C0FE7C"/>
<stop offset="1" stop-color="#98D969" stop-opacity="0"/>
</linearGradient>
<radialGradient id="paint9_radial_2316_55760" cx="0" cy="0" r="1" gradientUnits="userSpaceOnUse" gradientTransform="translate(35.203 18.4238) rotate(2.7263) scale(1.97098 19.0528)">
<stop offset="0.199095" stop-color="#ABF17B"/>
<stop offset="1" stop-color="#ABF17B" stop-opacity="0"/>
</radialGradient>
<linearGradient id="paint10_linear_2316_55760" x1="42.4218" y1="23.9551" x2="42.0819" y2="23.7442" gradientUnits="userSpaceOnUse">
<stop stop-color="#8ECE6F"/>
<stop offset="1" stop-color="#8ECE6F" stop-opacity="0"/>
</linearGradient>
<linearGradient id="paint11_linear_2316_55760" x1="36.703" y1="25.7832" x2="37.828" y2="23.9551" gradientUnits="userSpaceOnUse">
<stop stop-color="#68A163"/>
<stop offset="1" stop-color="#84CC69" stop-opacity="0"/>
</linearGradient>
<linearGradient id="paint12_linear_2316_55760" x1="12.2344" y1="36.8458" x2="36.2812" y2="36.8458" gradientUnits="userSpaceOnUse">
<stop stop-color="#7ED279"/>
<stop offset="1" stop-color="#88EE94"/>
</linearGradient>
<linearGradient id="paint13_linear_2316_55760" x1="11.1562" y1="43.3146" x2="24" y2="43.3146" gradientUnits="userSpaceOnUse">
<stop stop-color="#6FBE75"/>
<stop offset="1" stop-color="#6FBE75" stop-opacity="0"/>
</linearGradient>
<linearGradient id="paint14_linear_2316_55760" x1="24" y1="13.5958" x2="24" y2="26.4396" gradientUnits="userSpaceOnUse">
<stop stop-color="#A5E26B"/>
<stop offset="1" stop-color="#A5E26B" stop-opacity="0"/>
</linearGradient>
<linearGradient id="paint15_linear_2316_55760" x1="24" y1="45.0958" x2="24" y2="43.4513" gradientUnits="userSpaceOnUse">
<stop stop-color="#539583"/>
<stop offset="1" stop-color="#53AE80" stop-opacity="0"/>
</linearGradient>
<radialGradient id="paint16_radial_2316_55760" cx="0" cy="0" r="1" gradientUnits="userSpaceOnUse" gradientTransform="translate(35.7656 13.5958) rotate(90) scale(12.8906 3.17068)">
<stop stop-color="#B9F87A"/>
<stop offset="1" stop-color="#B9F87A" stop-opacity="0"/>
</radialGradient>
<linearGradient id="paint17_linear_2316_55760" x1="12.2344" y1="26.1583" x2="35.7656" y2="26.1583" gradientUnits="userSpaceOnUse">
<stop stop-color="#BDC792"/>
<stop offset="1" stop-color="#EBF9B6"/>
</linearGradient>
<linearGradient id="paint18_linear_2316_55760" x1="24.0029" y1="13.3787" x2="24.0029" y2="20.5802" gradientUnits="userSpaceOnUse">
<stop stop-color="#2FCF6C"/>
<stop offset="1" stop-color="#2FC36B"/>
</linearGradient>
</defs>
</svg>
